<svg width="1072" height="484" viewBox="0 0 1072 484" fill="none" xmlns="http://www.w3.org/2000/svg">
<g opacity="0.1">
<path d="M164.482 313.071V399.552C230.646 361.677 270.529 366.534 344.16 399.382C418.592 435.053 457.994 435.443 523.837 399.213V313.071C456.206 349.41 417.219 349.188 345.857 313.071C270.255 279.347 230.147 276.257 164.482 313.071Z" fill="#D9EBCD" fill-opacity="0.7"/>
<path d="M523.838 313.071V399.552C590.003 361.677 629.885 366.534 703.516 399.382C777.949 435.053 817.351 435.443 883.194 399.213V313.071C815.563 349.41 776.576 349.188 705.213 313.071C629.612 279.347 589.504 276.257 523.838 313.071Z" fill="#D9EBCD" fill-opacity="0.7"/>
<path d="M339.356 182.126V268.607C273.191 230.732 233.309 235.589 159.678 268.437C85.2455 304.108 45.8432 304.498 -20.0001 268.267V182.126C47.6315 218.465 86.618 218.243 157.981 182.126C233.582 148.401 273.69 145.311 339.356 182.126Z" fill="#D9EBCD" fill-opacity="0.7"/>
<path d="M698.712 182.126V268.607C632.548 230.732 592.665 235.589 519.034 268.437C444.602 304.108 405.2 304.498 339.356 268.267V182.126C406.988 218.465 445.974 218.243 517.337 182.126C592.939 148.401 633.046 145.311 698.712 182.126Z" fill="#D9EBCD" fill-opacity="0.7"/>
<path d="M164.482 52.7257V139.206C230.647 101.332 270.529 106.188 344.16 139.037C418.593 174.708 457.995 175.098 523.838 138.867V52.7257C456.207 89.0648 417.22 88.8424 345.857 52.7257C270.256 19.0009 230.148 15.9111 164.482 52.7257Z" fill="#D9EBCD" fill-opacity="0.7"/>
<path d="M523.839 52.7257V139.206C590.004 101.332 629.886 106.188 703.517 139.037C777.949 174.708 817.352 175.098 883.195 138.867V52.7257C815.563 89.0648 776.577 88.8424 705.214 52.7257C629.612 19.0009 589.505 15.9111 523.839 52.7257Z" fill="#D9EBCD" fill-opacity="0.7"/>
</g>
</svg>
