<svg width="10" height="8" viewBox="0 0 10 8" fill="none" xmlns="http://www.w3.org/2000/svg">
<path d="M8.80646 3.52627L5.47313 0.192939C5.40973 0.132245 5.33497 0.0846683 5.25313 0.0529387C5.09082 -0.01374 4.90877 -0.01374 4.74646 0.0529387C4.66463 0.0846683 4.58987 0.132245 4.52646 0.192939L1.19313 3.52627C1.13097 3.58843 1.08167 3.66222 1.04803 3.74344C1.01438 3.82465 0.99707 3.9117 0.99707 3.99961C0.99707 4.17714 1.0676 4.3474 1.19313 4.47294C1.31867 4.59847 1.48893 4.669 1.66646 4.669C1.844 4.669 2.01426 4.59847 2.1398 4.47294L4.33313 2.27294V7.33294C4.33313 7.50975 4.40337 7.67932 4.52839 7.80434C4.65342 7.92937 4.82299 7.99961 4.9998 7.99961C5.17661 7.99961 5.34618 7.92937 5.4712 7.80434C5.59623 7.67932 5.66646 7.50975 5.66646 7.33294V2.27294L7.8598 4.47294C7.92177 4.53542 7.99551 4.58502 8.07675 4.61887C8.15799 4.65271 8.24512 4.67014 8.33313 4.67014C8.42114 4.67014 8.50828 4.65271 8.58952 4.61887C8.67075 4.58502 8.74449 4.53542 8.80646 4.47294C8.86895 4.41096 8.91855 4.33723 8.95239 4.25599C8.98624 4.17475 9.00366 4.08761 9.00366 3.99961C9.00366 3.9116 8.98624 3.82446 8.95239 3.74322C8.91855 3.66198 8.86895 3.58825 8.80646 3.52627Z" fill="currentColor"/>
</svg>
