<svg width="10" height="8" viewBox="0 0 10 8" fill="none" xmlns="http://www.w3.org/2000/svg">
<path d="M8.80646 4.47373L5.47313 7.80706C5.40973 7.86776 5.33497 7.91533 5.25313 7.94706C5.09082 8.01374 4.90877 8.01374 4.74646 7.94706C4.66463 7.91533 4.58987 7.86776 4.52646 7.80706L1.19313 4.47373C1.13097 4.41157 1.08167 4.33778 1.04803 4.25656C1.01438 4.17535 0.99707 4.0883 0.99707 4.00039C0.99707 3.82286 1.0676 3.6526 1.19313 3.52706C1.31867 3.40153 1.48893 3.331 1.66646 3.331C1.844 3.331 2.01426 3.40153 2.1398 3.52706L4.33313 5.72706V0.667061C4.33313 0.49025 4.40337 0.320681 4.52839 0.195656C4.65342 0.070632 4.82299 0.000394821 4.9998 0.000394821C5.17661 0.000394821 5.34618 0.070632 5.4712 0.195656C5.59623 0.320681 5.66646 0.49025 5.66646 0.667061V5.72706L7.8598 3.52706C7.92177 3.46458 7.99551 3.41498 8.07675 3.38113C8.15799 3.34729 8.24512 3.32986 8.33313 3.32986C8.42114 3.32986 8.50828 3.34729 8.58952 3.38113C8.67075 3.41498 8.74449 3.46458 8.80646 3.52706C8.86895 3.58904 8.91855 3.66277 8.95239 3.74401C8.98624 3.82525 9.00366 3.91239 9.00366 4.00039C9.00366 4.0884 8.98624 4.17554 8.95239 4.25678C8.91855 4.33802 8.86895 4.41175 8.80646 4.47373Z" fill="currentColor"/>
</svg>
