<svg width="20" height="20" viewBox="0 0 20 20" fill="none" xmlns="http://www.w3.org/2000/svg">
<path d="M13.6667 3.33317V3.83317H14.1667H15.8334C16.3638 3.83317 16.8726 4.04388 17.2476 4.41896C17.6227 4.79403 17.8334 5.30274 17.8334 5.83317V15.8332C17.8334 16.3636 17.6227 16.8723 17.2476 17.2474C16.8726 17.6225 16.3638 17.8332 15.8334 17.8332H4.16675C3.63631 17.8332 3.12761 17.6225 2.75253 17.2474C2.37746 16.8723 2.16675 16.3636 2.16675 15.8332V5.83317C2.16675 5.30274 2.37746 4.79403 2.75253 4.41896C3.12761 4.04388 3.63632 3.83317 4.16675 3.83317H5.83342H6.33342V3.33317V2.49984C6.33342 2.41143 6.36853 2.32665 6.43105 2.26413C6.49356 2.20162 6.57834 2.1665 6.66675 2.1665C6.75515 2.1665 6.83994 2.20162 6.90245 2.26413C6.96496 2.32665 7.00008 2.41143 7.00008 2.49984V3.33317V3.83317H7.50008H12.5001H13.0001V3.33317V2.49984C13.0001 2.41143 13.0352 2.32665 13.0977 2.26413C13.1602 2.20162 13.245 2.1665 13.3334 2.1665C13.4218 2.1665 13.5066 2.20162 13.5691 2.26413C13.6316 2.32665 13.6667 2.41143 13.6667 2.49984V3.33317ZM3.33341 9.49984H2.83341V9.99984V15.8332C2.83341 16.1868 2.97389 16.5259 3.22394 16.776C3.47399 17.026 3.81313 17.1665 4.16675 17.1665H15.8334C16.187 17.1665 16.5262 17.026 16.7762 16.776C17.0263 16.5259 17.1667 16.1868 17.1667 15.8332V9.99984V9.49984H16.6667H3.33341ZM16.6667 8.83317H17.1667V8.33317V5.83317C17.1667 5.47955 17.0263 5.14041 16.7762 4.89036C16.5262 4.64031 16.187 4.49984 15.8334 4.49984H14.1667H13.6667V4.99984V5.83317C13.6667 5.92158 13.6316 6.00636 13.5691 6.06887C13.5066 6.13138 13.4218 6.1665 13.3334 6.1665C13.245 6.1665 13.1602 6.13139 13.0977 6.06887C13.0352 6.00636 13.0001 5.92158 13.0001 5.83317V4.99984V4.49984H12.5001H7.50008H7.00008V4.99984V5.83317C7.00008 5.92158 6.96496 6.00636 6.90245 6.06887C6.83994 6.13139 6.75515 6.1665 6.66675 6.1665C6.57834 6.1665 6.49356 6.13139 6.43105 6.06887C6.36853 6.00636 6.33342 5.92158 6.33342 5.83317V4.99984V4.49984H5.83342H4.16675C3.81313 4.49984 3.47399 4.64031 3.22394 4.89036C2.97389 5.14041 2.83341 5.47955 2.83341 5.83317V8.33317V8.83317H3.33341H16.6667Z" fill="#11453B" stroke="#11453B"/>
</svg>
