<svg width="16" height="16" viewBox="0 0 16 16" fill="none" xmlns="http://www.w3.org/2000/svg">
<path d="M8.19366 3.47346L9.19366 4.47346C9.25563 4.53594 9.32937 4.58554 9.41061 4.61938C9.49185 4.65323 9.57898 4.67065 9.66699 4.67065C9.755 4.67065 9.84214 4.65323 9.92338 4.61938C10.0046 4.58554 10.0783 4.53594 10.1403 4.47346C10.2415 4.36726 10.3048 4.23066 10.3205 4.08482C10.3362 3.93899 10.3033 3.79205 10.227 3.66679H12.667C12.8438 3.66679 13.0134 3.59655 13.1384 3.47153C13.2634 3.3465 13.3337 3.17693 13.3337 3.00012C13.3337 2.82331 13.2634 2.65374 13.1384 2.52872C13.0134 2.40369 12.8438 2.33346 12.667 2.33346H10.227C10.3033 2.20819 10.3362 2.06126 10.3205 1.91542C10.3048 1.76958 10.2415 1.63299 10.1403 1.52679C10.0783 1.4643 10.0046 1.41471 9.92338 1.38086C9.84214 1.34702 9.755 1.32959 9.66699 1.32959C9.57898 1.32959 9.49185 1.34702 9.41061 1.38086C9.32937 1.41471 9.25563 1.4643 9.19366 1.52679L8.19366 2.52679C8.13296 2.59019 8.08539 2.66495 8.05366 2.74679C7.98698 2.9091 7.98698 3.09115 8.05366 3.25346C8.08539 3.33529 8.13296 3.41005 8.19366 3.47346ZM15.2803 6.08012C15.2486 5.99829 15.201 5.92352 15.1403 5.86012L14.1403 4.86012C14.0783 4.79764 14.0046 4.74804 13.9234 4.71419C13.8421 4.68035 13.755 4.66292 13.667 4.66292C13.579 4.66292 13.4918 4.68035 13.4106 4.71419C13.3294 4.74804 13.2556 4.79764 13.1937 4.86012C13.0925 4.96632 13.0292 5.10292 13.0135 5.24875C12.9978 5.39459 13.0307 5.54152 13.107 5.66679H10.667C10.4902 5.66679 10.3206 5.73703 10.1956 5.86205C10.0706 5.98708 10.0003 6.15664 10.0003 6.33346C10.0003 6.51027 10.0706 6.67984 10.1956 6.80486C10.3206 6.92988 10.4902 7.00012 10.667 7.00012H13.107C13.0307 7.12539 12.9978 7.27232 13.0135 7.41816C13.0292 7.56399 13.0925 7.70059 13.1937 7.80679C13.2556 7.86927 13.3294 7.91887 13.4106 7.95272C13.4918 7.98656 13.579 8.00399 13.667 8.00399C13.755 8.00399 13.8421 7.98656 13.9234 7.95272C14.0046 7.91887 14.0783 7.86927 14.1403 7.80679L15.1403 6.80679C15.201 6.74339 15.2486 6.66862 15.2803 6.58679C15.347 6.42448 15.347 6.24243 15.2803 6.08012ZM7.33366 6.66679C6.80624 6.66679 6.29067 6.82319 5.85214 7.1162C5.41361 7.40922 5.07181 7.8257 4.86998 8.31297C4.66815 8.80024 4.61534 9.33641 4.71823 9.8537C4.82113 10.371 5.0751 10.8461 5.44804 11.2191C5.82098 11.592 6.29614 11.846 6.81342 11.9489C7.3307 12.0518 7.86688 11.999 8.35415 11.7971C8.84142 11.5953 9.25789 11.2535 9.55091 10.815C9.84393 10.3764 10.0003 9.86087 10.0003 9.33346C10.0003 8.62621 9.71937 7.94793 9.21928 7.44784C8.71918 6.94774 8.0409 6.66679 7.33366 6.66679V6.66679ZM7.33366 10.6668C7.06995 10.6668 6.81216 10.5886 6.5929 10.4421C6.37363 10.2956 6.20274 10.0873 6.10182 9.8437C6.0009 9.60007 5.9745 9.33198 6.02594 9.07334C6.07739 8.81469 6.20438 8.57712 6.39085 8.39065C6.57732 8.20418 6.8149 8.07719 7.07354 8.02574C7.33218 7.97429 7.60027 8.0007 7.8439 8.10162C8.08754 8.20253 8.29578 8.37343 8.44228 8.5927C8.58879 8.81196 8.66699 9.06975 8.66699 9.33346C8.66699 9.68708 8.52652 10.0262 8.27647 10.2763C8.02642 10.5263 7.68728 10.6668 7.33366 10.6668ZM13.3337 8.66679C13.1568 8.66679 12.9873 8.73703 12.8623 8.86205C12.7372 8.98708 12.667 9.15664 12.667 9.33346V12.6668C12.667 12.8436 12.5968 13.0132 12.4717 13.1382C12.3467 13.2632 12.1771 13.3335 12.0003 13.3335H2.66699C2.49018 13.3335 2.32061 13.2632 2.19559 13.1382C2.07056 13.0132 2.00033 12.8436 2.00033 12.6668V7.33346C2.00033 7.15664 2.07056 6.98708 2.19559 6.86205C2.32061 6.73703 2.49018 6.66679 2.66699 6.66679H4.00033C4.14654 6.67394 4.29104 6.63278 4.41153 6.54964C4.53201 6.4665 4.62179 6.34602 4.66699 6.20679L5.02699 5.12679C5.06867 4.99838 5.14834 4.88565 5.25548 4.80351C5.36262 4.72137 5.49217 4.6737 5.62699 4.66679H6.66699C6.8438 4.66679 7.01337 4.59655 7.1384 4.47153C7.26342 4.3465 7.33366 4.17693 7.33366 4.00012C7.33366 3.82331 7.26342 3.65374 7.1384 3.52872C7.01337 3.40369 6.8438 3.33346 6.66699 3.33346H5.62699C5.20606 3.33331 4.79582 3.46597 4.45467 3.71255C4.11353 3.95913 3.85888 4.30706 3.72699 4.70679L3.52033 5.33346H2.66699C2.13656 5.33346 1.62785 5.54417 1.25278 5.91924C0.877706 6.29431 0.666992 6.80302 0.666992 7.33346V12.6668C0.666992 13.1972 0.877706 13.7059 1.25278 14.081C1.62785 14.4561 2.13656 14.6668 2.66699 14.6668H12.0003C12.5308 14.6668 13.0395 14.4561 13.4145 14.081C13.7896 13.7059 14.0003 13.1972 14.0003 12.6668V9.33346C14.0003 9.15664 13.9301 8.98708 13.8051 8.86205C13.68 8.73703 13.5105 8.66679 13.3337 8.66679Z" fill="white"/>
</svg>
