<svg width="10" height="10" viewBox="0 0 10 10" fill="none" xmlns="http://www.w3.org/2000/svg">
<path fill-rule="evenodd" clip-rule="evenodd" d="M9.17545 0.762583C9.58271 1.13561 9.61047 1.76817 9.23744 2.17544C8.08434 3.43437 7.52988 4.20192 6.69701 5.69219C6.38256 6.25484 6.0343 7.03517 5.75672 7.69899C5.62 8.02595 5.50411 8.31573 5.42249 8.52352C5.38173 8.62732 5.34962 8.71038 5.32786 8.76708L5.30323 8.83159L5.29714 8.84764L5.29573 8.85139C5.17161 9.18116 4.88277 9.42214 4.53594 9.48432C4.18908 9.54649 3.83511 9.42152 3.60417 9.15536L0.744693 5.85969C0.382751 5.44254 0.427509 4.81096 0.844662 4.44901C1.26182 4.08707 1.8934 4.13183 2.25534 4.54898L4.04513 6.61179C4.30929 5.99536 4.63434 5.28338 4.95116 4.71649C5.85954 3.0911 6.50494 2.19765 7.76259 0.824575C8.13562 0.417307 8.76818 0.389553 9.17545 0.762583Z" fill="currentColor"/>
</svg>
