<svg width="27" height="27" viewBox="0 0 27 27" fill="none" xmlns="http://www.w3.org/2000/svg">
<path d="M13.3333 0C10.6963 0 8.11839 0.781986 5.92574 2.24707C3.73308 3.71216 2.02411 5.79454 1.01495 8.23089C0.00577712 10.6672 -0.258267 13.3481 0.256202 15.9345C0.770672 18.521 2.04055 20.8967 3.90525 22.7614C5.76995 24.6261 8.14572 25.896 10.7321 26.4105C13.3185 26.9249 15.9994 26.6609 18.4358 25.6517C20.8721 24.6426 22.9545 22.9336 24.4196 20.7409C25.8847 18.5483 26.6667 15.9704 26.6667 13.3333C26.6667 11.5824 26.3218 9.84856 25.6517 8.23089C24.9817 6.61321 23.9995 5.14336 22.7614 3.90524C21.5233 2.66713 20.0535 1.685 18.4358 1.01494C16.8181 0.344877 15.0843 0 13.3333 0Z" fill="#219653"/>
<path d="M11.24 14.7864L16.96 9.05309C17.2098 8.80475 17.5477 8.66536 17.9 8.66536C18.2522 8.66536 18.5902 8.80475 18.84 9.05309C18.965 9.17704 19.0642 9.32451 19.1318 9.48699C19.1995 9.64946 19.2344 9.82374 19.2344 9.99975C19.2344 10.1758 19.1995 10.35 19.1318 10.5125C19.0642 10.675 18.965 10.8225 18.84 10.9464L12.1733 17.6131C11.925 17.8594 11.5898 17.9983 11.24 17.9998C11.0645 18.0008 10.8906 17.9671 10.7281 17.9008C10.5657 17.8344 10.4179 17.7367 10.2933 17.6131L7.15999 14.4664C7.02041 14.3469 6.90705 14.1998 6.82702 14.0344C6.74699 13.869 6.70202 13.6888 6.69492 13.5052C6.68783 13.3215 6.71877 13.1384 6.7858 12.9673C6.85284 12.7962 6.95451 12.6408 7.08445 12.5109C7.21439 12.3809 7.36979 12.2793 7.54089 12.2122C7.71199 12.1452 7.8951 12.1143 8.07873 12.1214C8.26235 12.1285 8.44253 12.1734 8.60795 12.2535C8.77337 12.3335 8.92046 12.4468 9.03999 12.5864L11.24 14.7864Z" fill="white"/>
</svg>
