<svg width="42" height="42" viewBox="0 0 42 42" fill="none" xmlns="http://www.w3.org/2000/svg">
<g clip-path="url(#clip0_919_3068)">
<path d="M13.0941 8.39233e-05C19.1636 8.39233e-05 25.2247 8.39233e-05 31.2941 8.39233e-05C31.2941 3.05985 31.2941 6.12782 31.2941 9.18758C31.2941 10.2048 31.7553 10.6641 32.7765 10.6641C35.7 10.6641 38.6236 10.6641 41.5471 10.6641C41.6953 10.6641 41.8353 10.6641 42 10.6641C42 10.8528 42 10.9923 42 11.1235C42 20.1059 42 29.0884 42 38.0708C42 40.4415 40.4353 42.0001 38.0553 42.0001C31.8541 42.0001 25.6447 42.0001 19.4436 42.0001C19.3118 42.0001 19.18 42.0001 18.9247 42.0001C20.613 40.7778 21.9141 39.3587 22.8941 37.6606C23.8824 35.9626 24.4506 34.1251 24.6483 32.1563C25.2 32.1563 25.7024 32.1563 26.213 32.1563C29.0953 32.1563 31.9777 32.1563 34.86 32.1563C35.4365 32.1563 35.8812 31.9431 36.12 31.4098C36.5071 30.5649 35.873 29.6954 34.8847 29.6872C31.6318 29.6872 28.3789 29.6872 25.1259 29.6872C24.9694 29.6872 24.8047 29.6872 24.64 29.6872C24.4753 27.9399 23.9894 26.3321 23.2236 24.7653C25.2412 24.7653 27.193 24.7653 29.1365 24.7653C31.0553 24.7653 32.9824 24.7653 34.9012 24.7653C35.4612 24.7653 35.8894 24.5274 36.12 24.0188C36.4989 23.1739 35.8647 22.3044 34.8765 22.3044C30.6353 22.3044 26.3941 22.2962 22.153 22.3126C21.7494 22.3126 21.4859 22.1977 21.2141 21.8942C18.8341 19.2856 15.8941 17.7763 12.3612 17.4563C11.5541 17.3825 10.7306 17.4481 9.90709 17.4481C9.89062 17.3333 9.88238 17.2841 9.88238 17.2266C9.88238 12.6739 9.87415 8.12118 9.89062 3.56844C9.89885 2.42821 10.3765 1.44383 11.3236 0.795787C11.8506 0.443053 12.5012 0.262584 13.0941 8.39233e-05ZM25.9412 17.3907C26.0483 17.3907 26.1636 17.3907 26.2706 17.3907C29.1365 17.3907 32.0024 17.3907 34.8683 17.3907C35.4283 17.3907 35.8565 17.1938 36.1118 16.6852C36.5236 15.8321 35.9059 14.938 34.893 14.9298C30.3142 14.9298 25.7353 14.9298 21.1483 14.9298C19.7483 14.9298 18.3483 14.9298 16.9483 14.9298C16.4377 14.9298 16.0424 15.1348 15.7953 15.586C15.3341 16.4309 15.9436 17.3907 16.9647 17.3907C19.9624 17.3907 22.9518 17.3907 25.9412 17.3907Z" fill="#11453B"/>
<path d="M33.7894 0.869698C36.2353 3.30603 38.6894 5.75056 41.1353 8.17868C38.7224 8.17868 36.2682 8.17868 33.7894 8.17868C33.7894 5.71774 33.7894 3.27321 33.7894 0.869698Z" fill="#EA4E4B"/>
<path d="M11.8025 20.1836C14.6182 20.1836 17.3186 21.3021 19.3096 23.2931C21.3006 25.2841 22.4192 27.9845 22.4192 30.8002C22.4192 33.616 21.3006 36.3164 19.3096 38.3074C17.3186 40.2984 14.6182 41.4169 11.8025 41.4169C8.9868 41.4169 6.28641 40.2984 4.29539 38.3074C2.30438 36.3164 1.18584 33.616 1.18584 30.8002C1.18584 27.9845 2.30438 25.2841 4.29539 23.2931C6.28641 21.3021 8.9868 20.1836 11.8025 20.1836ZM11.8025 24.7336C11.61 24.7334 11.4195 24.7734 11.2433 24.851C11.067 24.9286 10.9089 25.0421 10.779 25.1843C10.6492 25.3264 10.5504 25.4941 10.4889 25.6766C10.4275 25.8591 10.4048 26.0524 10.4223 26.2442L10.9759 32.3199C10.9974 32.5242 11.0937 32.7133 11.2464 32.8507C11.399 32.9882 11.5971 33.0642 11.8025 33.0642C12.0079 33.0642 12.206 32.9882 12.3587 32.8507C12.5113 32.7133 12.6076 32.5242 12.6291 32.3199L13.1812 26.2442C13.1987 26.0525 13.176 25.8594 13.1147 25.677C13.0534 25.4946 12.9547 25.327 12.825 25.1848C12.6953 25.0427 12.5373 24.9292 12.3613 24.8515C12.1852 24.7738 11.9949 24.7336 11.8025 24.7336ZM11.8025 36.8669C12.1243 36.8669 12.4329 36.7391 12.6605 36.5115C12.888 36.284 13.0158 35.9754 13.0158 35.6536C13.0158 35.3318 12.888 35.0232 12.6605 34.7956C12.4329 34.5681 12.1243 34.4402 11.8025 34.4402C11.4807 34.4402 11.1721 34.5681 10.9446 34.7956C10.717 35.0232 10.5892 35.3318 10.5892 35.6536C10.5892 35.9754 10.717 36.284 10.9446 36.5115C11.1721 36.7391 11.4807 36.8669 11.8025 36.8669Z" fill="#EA4E4B"/>
</g>
<defs>
<clipPath id="clip0_919_3068">
<rect width="42" height="42" fill="white"/>
</clipPath>
</defs>
</svg>
