<svg width="16" height="16" viewBox="0 0 16 16" fill="none" xmlns="http://www.w3.org/2000/svg">
<path d="M13.4923 13.4913L13.1387 13.1377L13.4923 13.4913C13.7111 13.2725 13.834 12.9758 13.834 12.6663V9.99967C13.834 9.95547 13.8515 9.91308 13.8828 9.88182C13.9141 9.85057 13.9564 9.83301 14.0007 9.83301C14.0449 9.83301 14.0872 9.85057 14.1185 9.88182L14.4721 9.52827L14.1185 9.88183C14.1498 9.91308 14.1673 9.95547 14.1673 9.99967V12.6663C14.1673 13.0642 14.0093 13.4457 13.728 13.727C13.4467 14.0083 13.0651 14.1663 12.6673 14.1663H3.33398C2.93616 14.1663 2.55463 14.0083 2.27332 13.727L1.91977 14.0806L2.27332 13.727C1.99202 13.4457 1.83398 13.0642 1.83398 12.6663V9.99967C1.83398 9.95547 1.85154 9.91308 1.8828 9.88182C1.91406 9.85057 1.95645 9.83301 2.00065 9.83301C2.04485 9.83301 2.08725 9.85057 2.1185 9.88182C2.14976 9.91308 2.16732 9.95547 2.16732 9.99967V12.6663C2.16732 12.9758 2.29023 13.2725 2.50903 13.4913C2.72782 13.7101 3.02457 13.833 3.33398 13.833H12.6673C12.9767 13.833 13.2735 13.7101 13.4923 13.4913ZM7.94944 10.1557L7.93886 10.151L7.92807 10.1468C7.90874 10.1393 7.891 10.1283 7.87573 10.1143L5.21421 7.45279C5.19847 7.43706 5.186 7.41838 5.17748 7.39783C5.16897 7.37728 5.16459 7.35525 5.16459 7.33301C5.16459 7.31076 5.16897 7.28874 5.17748 7.26818C5.186 7.24763 5.19848 7.22896 5.2142 7.21323C5.22993 7.1975 5.24861 7.18502 5.26916 7.17651L5.07782 6.71457L5.26916 7.17651C5.28971 7.168 5.31174 7.16361 5.33398 7.16361C5.35623 7.16361 5.37826 7.168 5.39881 7.17651L5.59015 6.71457L5.39881 7.17651C5.41924 7.18497 5.43781 7.19735 5.45348 7.21294C5.45357 7.21304 5.45367 7.21313 5.45376 7.21323L6.97966 8.74579L7.83398 9.60384V8.39301V1.99967C7.83398 1.95547 7.85154 1.91308 7.8828 1.88182C7.91406 1.85057 7.95645 1.83301 8.00065 1.83301C8.04485 1.83301 8.08725 1.85057 8.1185 1.88182C8.14976 1.91308 8.16732 1.95547 8.16732 1.99967V8.39301V9.60384L9.02164 8.74579L10.5475 7.21323C10.5476 7.21315 10.5477 7.21307 10.5478 7.213C10.5795 7.18138 10.6225 7.16361 10.6673 7.16361C10.7122 7.16361 10.7553 7.18146 10.7871 7.21323C10.8189 7.245 10.8367 7.28808 10.8367 7.33301C10.8367 7.37793 10.8189 7.42102 10.7871 7.45279L8.12557 10.1143C8.1103 10.1283 8.09256 10.1393 8.07323 10.1468L8.06244 10.151L8.05186 10.1557C8.03573 10.1628 8.01829 10.1665 8.00065 10.1665C7.98302 10.1665 7.96557 10.1628 7.94944 10.1557Z" fill="black" stroke="currentColor"/>
</svg>
