<svg width="25" height="32" viewBox="0 0 25 32" fill="none" xmlns="http://www.w3.org/2000/svg">
<path fill-rule="evenodd" clip-rule="evenodd" d="M1.99998 0H17.3929L24.7999 7.372V30C24.7999 31.105 23.904 32 22.7999 32H1.99998C0.895951 32 0 31.105 0 30V1.99998C0 0.895016 0.896055 0 1.99998 0Z" fill="white"/>
<path d="M1.99998 0.5H17.1865L24.2999 7.5798V30C24.2999 30.8287 23.628 31.5 22.7999 31.5H1.99998C1.17195 31.5 0.5 30.8287 0.5 30V1.99998C0.5 1.17133 1.17203 0.5 1.99998 0.5Z" stroke="#E8E9EB"/>
<path d="M24.4002 7.5999H18.9837C17.9991 7.5999 17.2002 6.80175 17.2002 5.81819V0.399902" stroke="#E8E9EB"/>
<rect x="6" y="12" width="6" height="4" rx="1" fill="#007934"/>
<rect x="6" y="18" width="6" height="4" rx="1" fill="#007934"/>
<rect x="13.5" y="12" width="6" height="4" rx="1" fill="#007934"/>
<rect x="13.5" y="18" width="6" height="4" rx="1" fill="#007934"/>
</svg>
