<svg width="21" height="12" viewBox="0 0 21 12" fill="none" xmlns="http://www.w3.org/2000/svg">
<g clip-path="url(#clip0_16543_334583)">
<path d="M10.4908 0.512851C13.5504 0.502176 16.141 1.69356 18.465 3.55216C19.3148 4.24692 20.1129 5.00039 20.8532 5.80681C21.0295 5.9947 21.0643 6.11427 20.8663 6.32671C18.2365 9.1429 15.128 11.1157 11.1567 11.4616C8.54546 11.689 6.18988 10.9033 4.03015 9.49305C2.56131 8.53013 1.30246 7.32807 0.143716 6.02459C-0.0586573 5.79721 -0.0412488 5.66163 0.15786 5.45346C2.70928 2.76964 5.72638 0.93987 9.5138 0.517121C9.83915 0.497784 10.1653 0.496358 10.4908 0.512851ZM13.768 6.04701C13.768 4.04002 12.1947 2.4291 10.2265 2.42589C8.25822 2.42269 6.65555 4.04002 6.661 6.03207C6.66644 8.02411 8.29303 9.66173 10.2417 9.63397C12.1903 9.60621 13.768 8.0177 13.768 6.04701ZM12.68 10.0717C12.7115 10.0813 12.7474 10.1048 12.7757 10.0984C15.3739 9.46316 17.5108 8.05507 19.4257 6.26052C19.59 6.10573 19.5411 6.00324 19.405 5.86766C17.563 4.03255 15.5088 2.53692 12.915 1.88358C12.8298 1.8549 12.7429 1.83102 12.6549 1.81206C12.5657 1.80031 12.4624 1.74053 12.371 1.84088C15.4555 3.58312 15.8352 7.88853 12.68 10.0717ZM7.73053 2.01596C7.67663 2.00418 7.62142 1.99916 7.56623 2.00101C5.26397 2.68424 3.31422 3.93434 1.58209 5.5474C1.37645 5.73956 1.43303 5.85272 1.60276 6.01072C2.07387 6.45268 2.51779 6.92454 3.00523 7.34728C4.34567 8.50237 5.82539 9.43754 7.62063 9.98626C4.80047 7.81274 4.97238 3.97384 7.73053 2.01596Z" fill="#D9EBCD"/>
<path d="M10.6481 8.43634C9.48396 8.64024 8.47209 8.11608 7.9988 7.09337C7.51137 6.04077 7.8084 4.75224 8.70058 4.05727C9.09825 3.74473 9.58894 3.56793 10.0983 3.55367C10.6076 3.53941 11.1077 3.68848 11.5229 3.97827C12.5108 4.68605 12.8177 5.89985 12.2911 7.17023C12.0147 6.77417 11.7318 6.40053 11.2096 6.39947C10.9533 6.40161 10.7071 6.49798 10.5198 6.66955C10.0258 7.09871 10.0606 7.70721 10.6481 8.43634Z" fill="#D9EBCD"/>
</g>
<defs>
<clipPath id="clip0_16543_334583">
<rect width="21" height="11" fill="white" transform="translate(0 0.5)"/>
</clipPath>
</defs>
</svg>
