<svg width="18" height="18" viewBox="0 0 18 18" fill="none" xmlns="http://www.w3.org/2000/svg">
<path d="M16.0575 6.48726C16.0575 6.48726 16.0575 6.48726 16.0575 6.44226C15.5337 4.99772 14.5788 3.74893 13.3221 2.86483C12.0653 1.98072 10.5673 1.50397 9.03073 1.49906C7.49416 1.49415 5.99316 1.96132 4.73078 2.83738C3.46839 3.71343 2.50556 4.95609 1.97251 6.39726C1.94365 6.45393 1.92342 6.5146 1.91251 6.57726C1.64101 7.35613 1.50159 8.17491 1.50001 8.99976C1.4963 10.0948 1.73242 11.1773 2.19177 12.1714C2.65112 13.1654 3.32257 14.0468 4.15894 14.7536C4.99531 15.4604 5.9763 15.9755 7.033 16.2627C8.0897 16.5498 9.19647 16.6022 10.2755 16.4159C11.3546 16.2297 12.3798 15.8094 13.2791 15.1846C14.1784 14.5599 14.93 13.7457 15.4811 12.7995C16.0321 11.8532 16.3693 10.7977 16.4689 9.70725C16.5685 8.61676 16.4281 7.51768 16.0575 6.48726ZM9.00001 2.99976C10.0522 3.00084 11.0856 3.27858 11.9965 3.80514C12.9075 4.3317 13.6639 5.08854 14.19 5.99976H13.29C13.067 5.75461 12.7926 5.56175 12.4864 5.43498C12.1801 5.30821 11.8497 5.25064 11.5187 5.26641C11.1876 5.28217 10.8641 5.37087 10.5714 5.52617C10.2786 5.68147 10.0237 5.89952 9.82501 6.16476C9.56201 6.06115 9.28263 6.00527 9.00001 5.99976C8.71739 6.00527 8.43802 6.06115 8.17501 6.16476C7.97629 5.89952 7.72144 5.68147 7.42866 5.52617C7.13588 5.37087 6.8124 5.28217 6.48136 5.26641C6.15032 5.25064 5.81988 5.30821 5.51367 5.43498C5.20746 5.56175 4.93303 5.75461 4.71001 5.99976H3.81001C4.3361 5.08854 5.09256 4.3317 6.0035 3.80514C6.91444 3.27858 7.94784 3.00084 9.00001 2.99976ZM12.375 7.49976C12.375 7.64809 12.331 7.7931 12.2486 7.91643C12.1662 8.03977 12.0491 8.1359 11.912 8.19267C11.775 8.24943 11.6242 8.26428 11.4787 8.23534C11.3332 8.20641 11.1996 8.13497 11.0947 8.03009C10.9898 7.9252 10.9184 7.79156 10.8894 7.64607C10.8605 7.50059 10.8753 7.34979 10.9321 7.21274C10.9889 7.0757 11.085 6.95857 11.2083 6.87615C11.3317 6.79374 11.4767 6.74976 11.625 6.74976C11.8239 6.74976 12.0147 6.82877 12.1553 6.96943C12.296 7.11008 12.375 7.30084 12.375 7.49976ZM7.12501 7.49976C7.12501 7.64809 7.08103 7.7931 6.99861 7.91643C6.9162 8.03977 6.79907 8.1359 6.66202 8.19267C6.52498 8.24943 6.37418 8.26428 6.22869 8.23534C6.08321 8.20641 5.94957 8.13497 5.84468 8.03009C5.73979 7.9252 5.66836 7.79156 5.63942 7.64607C5.61048 7.50059 5.62534 7.34979 5.6821 7.21274C5.73887 7.0757 5.835 6.95857 5.95833 6.87615C6.08167 6.79374 6.22668 6.74976 6.37501 6.74976C6.57392 6.74976 6.76469 6.82877 6.90534 6.96943C7.04599 7.11008 7.12501 7.30084 7.12501 7.49976ZM9.00001 14.9998C7.40871 14.9998 5.88259 14.3676 4.75737 13.2424C3.63215 12.1172 3.00001 10.5911 3.00001 8.99976C3.00335 8.49366 3.06884 7.98988 3.19501 7.49976H4.12501C4.10711 8.09649 4.32699 8.6759 4.73629 9.11052C5.14559 9.54513 5.71078 9.79935 6.30751 9.81726C6.90425 9.83516 7.48366 9.61527 7.91827 9.20598C8.35289 8.79668 8.60711 8.23149 8.62501 7.63476C8.73903 7.56893 8.86836 7.53428 9.00001 7.53428C9.13166 7.53428 9.261 7.56893 9.37501 7.63476C9.39291 8.23149 9.64714 8.79668 10.0818 9.20598C10.5164 9.61527 11.0958 9.83516 11.6925 9.81726C12.2892 9.79935 12.8544 9.54513 13.2637 9.11052C13.673 8.6759 13.8929 8.09649 13.875 7.49976H14.805C14.9312 7.98988 14.9967 8.49366 15 8.99976C15 10.5911 14.3679 12.1172 13.2427 13.2424C12.1174 14.3676 10.5913 14.9998 9.00001 14.9998ZM10.77 10.6723C10.2687 11.0765 9.64403 11.2969 9.00001 11.2969C8.35599 11.2969 7.73137 11.0765 7.23001 10.6723C7.07685 10.545 6.87939 10.4837 6.68107 10.502C6.48275 10.5203 6.29982 10.6166 6.17251 10.7698C6.04521 10.9229 5.98396 11.1204 6.00225 11.3187C6.02053 11.517 6.11685 11.7 6.27001 11.8273C7.03602 12.4667 8.00218 12.817 9.00001 12.817C9.99784 12.817 10.964 12.4667 11.73 11.8273C11.8832 11.7 11.9795 11.517 11.9978 11.3187C12.0161 11.1204 11.9548 10.9229 11.8275 10.7698C11.7645 10.6939 11.6871 10.6312 11.5999 10.5853C11.5126 10.5394 11.4172 10.511 11.319 10.502C11.1206 10.4837 10.9232 10.545 10.77 10.6723Z" fill="#B4A572"/>
</svg>
