<svg width="16" height="16" viewBox="0 0 16 16" fill="none" xmlns="http://www.w3.org/2000/svg">
<path d="M11.5453 2.9642C12.5571 3.67119 13.3329 4.66516 13.7733 5.81689V5.84758L13.8032 5.93014C14.2879 7.26732 14.2879 8.73219 13.8032 10.0694L13.7733 10.1519V10.1826C13.3329 11.3344 12.5571 12.3283 11.5453 13.0353C10.5096 13.7589 9.2767 14.147 8.0133 14.147C6.74991 14.147 5.51699 13.7589 4.48135 13.0353C3.46949 12.3283 2.69365 11.3344 2.2533 10.1826V10.1519L2.22337 10.0694C1.73869 8.73219 1.73869 7.26732 2.22337 5.93014L2.2533 5.84758V5.81689C2.69365 4.66516 3.46949 3.67119 4.48135 2.9642C5.51699 2.24059 6.7499 1.85254 8.0133 1.85254C9.2767 1.85254 10.5096 2.24059 11.5453 2.9642ZM2.3566 9.46097L2.45504 9.83309H2.83997H4.07997H4.64378L4.57638 9.27332C4.47452 8.42733 4.47452 7.57218 4.57638 6.7262L4.64378 6.16642H4.07997H2.83997H2.45504L2.3566 6.53855C2.10324 7.49621 2.10324 8.5033 2.3566 9.46097ZM3.38663 10.1664H2.51455L2.95514 10.919C3.39227 11.6657 3.99004 12.3059 4.70514 12.793L5.42902 12.1467C5.16018 11.6364 4.95032 11.097 4.8035 10.5392L4.7054 10.1664H4.31997H3.38663ZM4.31997 5.83309H4.7093L4.80472 5.45564C4.94555 4.89857 5.1491 4.35926 5.41147 3.84807L4.68201 3.20867C3.97486 3.69828 3.38473 4.33822 2.95389 5.08263L2.51955 5.83309H3.38663H4.31997ZM7.03749 13.5362L7.8333 14.1202V13.1331V10.6664V10.1664H7.3333H5.7133H5.08626L5.22585 10.7777C5.47869 11.885 6.1218 12.8642 7.03749 13.5362ZM7.3333 9.83309H7.8333V9.33309V6.66642V6.16642H7.3333H5.42663H4.99204L4.93151 6.59679C4.8006 7.52752 4.8006 8.472 4.93151 9.40273L4.99204 9.83309H5.42663H7.3333ZM7.3333 5.83309H7.8333V5.33309V2.86642V1.87933L7.03749 2.46332C6.1218 3.13528 5.47869 4.1145 5.22585 5.22178L5.08626 5.83309H5.7133H7.3333ZM12.6133 5.83309H13.4854L13.0448 5.08049C12.6077 4.33378 12.0099 3.69366 11.2948 3.20653L10.5709 3.85278C10.8398 4.36316 11.0496 4.90249 11.1964 5.46035L11.2945 5.83309H11.68H12.6133ZM8.96245 2.46332L8.16663 1.87933V2.86642V5.33309V5.83309H8.66663H10.2866H10.9137L10.7741 5.22178C10.5212 4.1145 9.87813 3.13528 8.96245 2.46332ZM8.16663 13.1331V14.1202L8.96245 13.5362C9.87813 12.8642 10.5212 11.885 10.7741 10.7777L10.9137 10.1664H10.2866H8.66663H8.16663V10.6664V13.1331ZM10.5733 9.83309H11.0079L11.0684 9.40273C11.1993 8.472 11.1993 7.52752 11.0684 6.59679L11.0079 6.16642H10.5733H8.66663H8.16663V6.66642V9.33309V9.83309H8.66663H10.5733ZM10.5909 12.1467L11.3148 12.793C12.0299 12.3059 12.6277 11.6657 13.0648 10.919L13.5054 10.1664H12.6333H11.7H11.3145L11.2164 10.5392C11.0696 11.097 10.8598 11.6364 10.5909 12.1467ZM13.16 9.83309H13.5449L13.6433 9.46097C13.8967 8.5033 13.8967 7.49621 13.6433 6.53855L13.5449 6.16642H13.16H11.92H11.3552L11.4237 6.72703C11.4752 7.14903 11.5007 7.5738 11.5 7.99893L11.5 8.00081C11.5009 8.4258 11.4754 8.85043 11.4237 9.27226L11.3549 9.83309H11.92H13.16Z" fill="black" stroke="#11453B"/>
</svg>
