<svg width="20" height="20" viewBox="0 0 20 20" fill="none" xmlns="http://www.w3.org/2000/svg">
<g clip-path="url(#clip0_17577_16205)">
<path d="M11.0509 0.035225L11.0668 0.104518L11.0672 0.104427C11.1148 0.0934421 11.1631 0.0822979 11.2083 0.0711137H12.1281C12.2511 0.0951303 12.3734 0.116406 12.4948 0.137543C12.7719 0.185763 13.0449 0.233266 13.3128 0.310963L13.3133 0.311099C15.6141 0.960733 17.3358 2.99549 17.6182 5.37038C17.982 8.45101 16.0628 11.2667 13.0922 12.0132C9.76637 12.8486 6.35444 10.6359 5.75885 7.25576L5.75884 7.25569C5.24016 4.32941 6.76852 1.55274 9.51099 0.485096C9.75424 0.391255 10.0102 0.327606 10.2726 0.271603C10.3671 0.25145 10.463 0.23217 10.5595 0.212783C10.7289 0.178755 10.8999 0.144395 11.0674 0.104394L11.0509 0.035225ZM11.0509 0.035225C10.8844 0.0749843 10.7159 0.108827 10.5476 0.142639C10.1857 0.215336 9.82457 0.287887 9.4853 0.418787L11.1996 0C11.1526 0.0117402 11.1017 0.0234804 11.0509 0.0352206L11.0509 0.035225ZM11.6377 1.10306C14.394 1.09117 16.6287 3.339 16.6366 6.12504C16.6446 8.88778 14.4099 11.1551 11.6734 11.1631C8.93287 11.171 6.68631 8.91555 6.67837 6.14893C6.67043 3.38252 8.89702 1.11103 11.6377 1.10306ZM11.6377 1.10306C11.6377 1.10306 11.6377 1.10306 11.6377 1.10306L11.6379 1.17417L11.6376 1.10306C11.6376 1.10306 11.6377 1.10306 11.6377 1.10306Z" fill="#359AA0" stroke="#359AA0" stroke-width="0.142227"/>
<path d="M3.45401 14.2465C3.49315 14.086 3.51663 13.9451 3.5636 13.812C3.83366 13.0488 4.409 12.6731 5.17613 12.5009C6.48337 12.2073 7.72798 12.3404 8.92955 12.9549C9.36008 13.1741 9.81409 13.3659 10.2759 13.5224C10.5538 13.6163 10.8591 13.6516 11.1566 13.6633C11.7476 13.6829 12.3425 13.6672 12.9335 13.6711C13.364 13.6711 13.5949 13.9099 13.5832 14.3404C13.5675 14.9236 13.3836 15.448 13.0313 15.9608C13.3209 15.9608 13.5832 15.9686 13.8415 15.9569C13.8924 15.9529 13.9432 15.8825 13.9902 15.8355C14.5382 15.2876 15.0822 14.7357 15.6341 14.1956C16.7025 13.1506 18.3816 13.1193 19.4932 14.1173C19.8454 14.4344 19.8571 14.7749 19.5245 15.1075C18.1546 16.4813 16.7808 17.8512 15.411 19.221C14.8826 19.7494 14.2446 20.0077 13.501 20.0077C9.5636 20.0077 5.62622 20.0077 1.68885 20.0077C1.22309 19.9999 1 19.7768 1 19.315C1 17.8512 1 16.3874 1 14.9197C1 14.4617 1.21918 14.2465 1.68493 14.2465C2.2681 14.2426 2.85519 14.2465 3.45401 14.2465ZM4.63601 18.8297C4.72994 18.8297 4.80039 18.8297 4.87084 18.8297C7.72016 18.8297 10.5734 18.8257 13.4227 18.8336C13.9002 18.8336 14.2916 18.677 14.6282 18.3365C15.7945 17.1623 16.9648 15.996 18.135 14.8257C18.1742 14.7866 18.2055 14.7435 18.2524 14.6927C18.2055 14.6731 18.1781 14.6535 18.1468 14.6457C17.4853 14.4383 16.9022 14.5752 16.4051 15.0645C15.8141 15.6516 15.2192 16.2347 14.6399 16.8336C14.4325 17.0449 14.2094 17.1389 13.9159 17.1349C12.0881 17.1271 10.2564 17.1271 8.42857 17.1271C8.18591 17.1271 7.94716 17.131 7.7045 17.1193C7.4775 17.1075 7.31311 16.9823 7.21918 16.7788C7.12916 16.5792 7.14873 16.3835 7.27789 16.2034C7.41487 16.0077 7.61448 15.949 7.84149 15.949C8.70646 15.9529 9.57143 15.9529 10.4403 15.9529C10.6086 15.9529 10.7808 15.9529 10.9452 15.9373C11.544 15.8707 12.135 15.3854 12.2838 14.8336C11.9276 14.8336 11.5793 14.8297 11.2309 14.8336C10.6791 14.8414 10.1389 14.7553 9.63014 14.5439C9.16047 14.3522 8.69472 14.1525 8.2407 13.9255C7.26614 13.4441 6.2681 13.4128 5.23875 13.6946C4.81605 13.8081 4.63601 14.0508 4.63601 14.4852C4.63601 15.5185 4.63601 16.5557 4.63601 17.5889C4.63601 17.996 4.63601 18.3991 4.63601 18.8297ZM3.45401 18.8179C3.45401 17.679 3.45401 16.5557 3.45401 15.4285C3.02348 15.4285 2.60861 15.4285 2.182 15.4285C2.182 16.5635 2.182 17.6868 2.182 18.8179C2.60861 18.8179 3.02348 18.8179 3.45401 18.8179Z" fill="#359AA0"/>
<g clip-path="url(#clip1_17577_16205)">
<path d="M12.6218 4.37686C12.6218 4.22581 12.6254 4.0744 12.6218 3.92335C12.6188 3.84343 12.6489 3.8218 12.7248 3.8229C12.94 3.82693 13.1555 3.8284 13.3704 3.8229C13.462 3.82033 13.4881 3.85113 13.4866 3.94022C13.4818 4.22398 13.4892 4.50811 13.4829 4.79224C13.4807 4.89636 13.5053 4.93888 13.6186 4.93448C13.8657 4.92862 13.8661 4.93448 13.8661 5.18892C13.8661 5.33996 13.8628 5.49138 13.8661 5.64242C13.8683 5.71575 13.8488 5.74508 13.7678 5.74654C13.484 5.75241 13.484 5.75607 13.484 6.0468C13.484 6.18868 13.4877 6.33093 13.484 6.47281C13.4815 6.55053 13.5079 6.574 13.5856 6.57656C13.8661 6.58463 13.8661 6.58756 13.8661 6.86582C13.8661 7.00771 13.8628 7.14995 13.8661 7.29183C13.8686 7.36882 13.843 7.39265 13.7645 7.39412C13.4837 7.39999 13.484 7.40329 13.484 7.68338C13.484 7.89859 13.4807 8.11416 13.484 8.329C13.484 8.41405 13.4558 8.43898 13.3741 8.43715C13.1361 8.43238 12.8975 8.43201 12.6595 8.43715C12.626 8.44039 12.5923 8.43331 12.563 8.41686C12.5336 8.40042 12.51 8.37538 12.4953 8.34513C12.3252 8.06283 12.1477 7.78493 11.9791 7.50191C11.9321 7.42272 11.8819 7.38715 11.7851 7.38899C11.4599 7.39595 11.1348 7.39449 10.8096 7.38899C10.7194 7.38899 10.693 7.41502 10.6948 7.50447C10.7003 7.77467 10.6926 8.04487 10.6988 8.31506C10.701 8.41332 10.6692 8.43971 10.5742 8.43641C10.3682 8.42981 10.1618 8.42835 9.95608 8.43641C9.84793 8.44118 9.82556 8.39975 9.8274 8.3026C9.83326 8.04157 9.82483 7.78053 9.83143 7.5195C9.834 7.41905 9.8087 7.38495 9.70275 7.38752C9.45895 7.39339 9.45858 7.38752 9.45858 7.14665C9.45858 6.98644 9.46151 6.82586 9.45858 6.66565C9.45858 6.59233 9.48388 6.57363 9.5539 6.57106C9.8307 6.56007 9.8307 6.5575 9.8307 6.27777C9.8307 6.13589 9.82666 5.99364 9.8307 5.85176C9.83363 5.76964 9.80833 5.74178 9.72291 5.74178C9.45858 5.73921 9.45858 5.73554 9.45858 5.46608C9.45858 5.3242 9.46298 5.18195 9.45858 5.04007C9.45491 4.95648 9.48131 4.93008 9.56637 4.93008C9.83143 4.92605 9.83143 4.92202 9.83143 4.64999C9.83143 4.41169 9.834 4.17339 9.83143 3.93545C9.83143 3.85516 9.85123 3.82107 9.93922 3.82327C10.1728 3.82877 10.4063 3.82803 10.6398 3.82327C10.6713 3.82075 10.7027 3.8279 10.73 3.84376C10.7572 3.85961 10.779 3.88342 10.7923 3.91199C10.9756 4.21775 11.167 4.51984 11.3503 4.82633C11.3951 4.89966 11.4423 4.93632 11.5336 4.93632C11.8588 4.93045 12.184 4.93118 12.5092 4.93632C12.5987 4.93632 12.6298 4.91029 12.6258 4.81937C12.6188 4.67272 12.6258 4.52607 12.6258 4.37943L12.6218 4.37686ZM11.9124 5.74434C12.0828 6.02261 12.239 6.27887 12.3974 6.53404C12.441 6.60406 12.514 6.5729 12.5737 6.5707C12.6471 6.56776 12.6199 6.50324 12.6203 6.46328C12.6229 6.25724 12.6203 6.0512 12.6203 5.84516C12.6203 5.7953 12.6298 5.74251 12.5495 5.74361C12.3468 5.74617 12.1426 5.74434 11.9124 5.74434ZM11.4017 6.57363L10.9163 5.78687C10.8723 5.71538 10.8008 5.74471 10.7417 5.74727C10.6684 5.75094 10.6985 5.81583 10.6981 5.85469C10.6952 6.06037 10.6981 6.26604 10.6981 6.47171C10.6981 6.5201 10.6849 6.57546 10.7667 6.57436C10.969 6.57216 11.1725 6.57363 11.4017 6.57363Z" fill="#359AA0"/>
</g>
</g>
<defs>
<clipPath id="clip0_17577_16205">
<rect width="18.7593" height="20" fill="white" transform="translate(1)"/>
</clipPath>
<clipPath id="clip1_17577_16205">
<rect width="4.40894" height="4.61608" fill="white" transform="translate(9.45605 3.82227)"/>
</clipPath>
</defs>
</svg>
