<svg width="16" height="16" viewBox="0 0 16 16" fill="none" xmlns="http://www.w3.org/2000/svg">
<path d="M13.7767 7.66369L13.4735 7.9973L13.774 8.33333C14.02 8.60835 14.156 8.96437 14.156 9.33333C14.156 9.7023 14.02 10.0583 13.774 10.3333L13.4759 10.6667L13.774 11C13.9666 11.2153 14.093 11.4817 14.1378 11.7671C14.1827 12.0524 14.1442 12.3447 14.027 12.6087C13.9097 12.8728 13.7188 13.0973 13.477 13.2554C13.2355 13.4133 12.9537 13.4982 12.6652 13.5H3.33337C2.93555 13.5 2.55402 13.342 2.27271 13.0607C1.99176 12.7797 1.83377 12.3988 1.83337 12.0015C1.83594 11.632 1.9748 11.2764 2.22337 11.003L2.52661 10.6694L2.22605 10.3333C1.98007 10.0583 1.84409 9.7023 1.84409 9.33333C1.84409 8.96437 1.98007 8.60834 2.22605 8.33333L2.52419 8L2.22605 7.66667C1.98007 7.39166 1.84409 7.03563 1.84409 6.66667C1.84409 6.2977 1.98007 5.94168 2.22605 5.66667L2.52661 5.33063L2.22337 4.99702C1.9748 4.72357 1.83594 4.368 1.83337 3.99851C1.83377 3.60122 1.99176 3.22029 2.27271 2.93934C2.55402 2.65804 2.93555 2.5 3.33337 2.5H7.33262C7.57201 2.50078 7.80774 2.55884 8.02011 2.66934C8.23268 2.77994 8.41565 2.93985 8.55372 3.13569L8.90297 2.88947L8.55372 3.13569C8.69179 3.33153 8.78093 3.5576 8.81368 3.79496C8.84643 4.03233 8.82184 4.27409 8.74197 4.5L8.50626 5.16667H9.21337H12.6667C13.0645 5.16667 13.4461 5.3247 13.7274 5.60601L14.0809 5.25245L13.7274 5.60601C14.0083 5.88695 14.1663 6.26786 14.1667 6.66514C14.1641 7.03465 14.0253 7.39023 13.7767 7.66369ZM8.74471 12.4925L8.49408 13.1667H9.21337H12.6632C12.8168 13.1685 12.9691 13.1388 13.1107 13.0793C13.2499 13.0208 13.3757 12.9348 13.4807 12.8266C13.5888 12.7213 13.6755 12.596 13.736 12.4576C13.7981 12.3153 13.8312 12.1621 13.8333 12.0069L13.8334 12.0069V12C13.8334 11.6906 13.7105 11.3938 13.4917 11.175L13.1381 11.5286L13.4917 11.175C13.2729 10.9562 12.9761 10.8333 12.6667 10.8333H9.21337H8.49408L8.74471 11.5075C8.8628 11.8252 8.8628 12.1748 8.74471 12.4925ZM8.74471 9.82578L8.49408 10.5H9.21337H12.6632C12.8168 10.5019 12.9691 10.4721 13.1107 10.4126C13.2499 10.3541 13.3757 10.2682 13.4807 10.1599C13.5888 10.0546 13.6755 9.92929 13.736 9.7909C13.7981 9.64867 13.8312 9.49547 13.8333 9.34028L13.8334 9.34028V9.33333C13.8334 9.02392 13.7105 8.72717 13.4917 8.50838L13.1381 8.86193L13.4917 8.50837C13.2729 8.28958 12.9761 8.16667 12.6667 8.16667H9.21337H8.49408L8.74471 8.84088C8.8628 9.15856 8.8628 9.5081 8.74471 9.82578ZM8.74471 7.15912L8.49408 7.83333H9.21337H12.6633C12.8168 7.83519 12.9691 7.80545 13.1107 7.74593C13.2499 7.68746 13.3757 7.60149 13.4807 7.49323C13.5888 7.38794 13.6755 7.26263 13.736 7.12423C13.7981 6.982 13.8312 6.8288 13.8333 6.67361L13.8334 6.67361V6.66667C13.8334 6.35725 13.7105 6.0605 13.4917 5.84171C13.2729 5.62292 12.9761 5.5 12.6667 5.5H9.21337H8.49408L8.74471 6.17422C8.8628 6.4919 8.8628 6.84144 8.74471 7.15912ZM3.33337 13.1667H7.33337C7.64279 13.1667 7.93954 13.0438 8.15833 12.825C8.37712 12.6062 8.50004 12.3094 8.50004 12C8.50004 11.6906 8.37712 11.3938 8.15833 11.175C7.93954 10.9562 7.64279 10.8333 7.33337 10.8333H3.33337C3.02396 10.8333 2.72721 10.9562 2.50842 11.175C2.28962 11.3938 2.16671 11.6906 2.16671 12C2.16671 12.3094 2.28962 12.6062 2.50842 12.825C2.72721 13.0438 3.02396 13.1667 3.33337 13.1667ZM3.33337 10.5H7.33337C7.64279 10.5 7.93954 10.3771 8.15833 10.1583C8.37712 9.9395 8.50004 9.64275 8.50004 9.33333C8.50004 9.02391 8.37712 8.72717 8.15833 8.50838C7.93954 8.28958 7.64279 8.16667 7.33337 8.16667H3.33337C3.02395 8.16667 2.72721 8.28958 2.50842 8.50838C2.28962 8.72717 2.16671 9.02391 2.16671 9.33333C2.16671 9.64275 2.28962 9.9395 2.50842 10.1583C2.72721 10.3771 3.02396 10.5 3.33337 10.5ZM3.33337 7.83333H7.33337C7.64279 7.83333 7.93954 7.71042 8.15833 7.49162C8.37712 7.27283 8.50004 6.97609 8.50004 6.66667C8.50004 6.35725 8.37712 6.0605 8.15833 5.84171C7.93954 5.62292 7.64279 5.5 7.33337 5.5H3.33337C3.02395 5.5 2.72721 5.62292 2.50842 5.84171C2.28962 6.0605 2.16671 6.35725 2.16671 6.66667C2.16671 6.97609 2.28962 7.27283 2.50842 7.49162C2.72721 7.71042 3.02395 7.83333 3.33337 7.83333ZM3.33337 5.16667H7.33337C7.64279 5.16667 7.93954 5.04375 8.15833 4.82496C8.37712 4.60617 8.50004 4.30942 8.50004 4C8.50004 3.69058 8.37712 3.39383 8.15833 3.17504C7.93954 2.95625 7.64279 2.83333 7.33337 2.83333H3.33337C3.02395 2.83333 2.72721 2.95625 2.50842 3.17504C2.28962 3.39383 2.16671 3.69058 2.16671 4C2.16671 4.30942 2.28962 4.60617 2.50842 4.82496C2.72721 5.04375 3.02395 5.16667 3.33337 5.16667Z" fill="#11453B" stroke="#11453B"/>
</svg>
