<svg width="20" height="20" viewBox="0 0 20 20" fill="none" xmlns="http://www.w3.org/2000/svg">
<path d="M13.5976 8.53017L13.5921 8.53659L13.5867 8.54319C13.5557 8.58143 13.5166 8.61232 13.4722 8.63364C13.4282 8.65478 13.3801 8.666 13.3313 8.66651H6.66668V8.66647L6.66002 8.66655C6.60966 8.66723 6.5598 8.65648 6.51419 8.63512C6.46858 8.61376 6.42841 8.58234 6.39668 8.54322L6.3967 8.54321L6.39392 8.53984C6.36249 8.50178 6.33992 8.45722 6.32781 8.40938C6.31575 8.36173 6.31439 8.312 6.3238 8.26376C6.32384 8.26357 6.32388 8.26337 6.32392 8.26317L7.1566 4.09974C7.15665 4.09949 7.1567 4.09924 7.15676 4.09899C7.17246 4.02286 7.21428 3.95462 7.27498 3.90605C7.33589 3.85733 7.41195 3.8315 7.48993 3.83308L7.48993 3.83318H7.50002H12.5V3.83328L12.5101 3.83308C12.5881 3.8315 12.6641 3.85733 12.725 3.90605C12.7858 3.95462 12.8276 4.02286 12.8433 4.09899C12.8433 4.09924 12.8434 4.09949 12.8434 4.09974L13.675 8.2578C13.6828 8.30536 13.6802 8.35405 13.6673 8.40051C13.654 8.44838 13.6302 8.49268 13.5976 8.53017ZM8.18335 4.49984H7.77345L7.69306 4.90179L7.19306 7.40179L7.07345 7.99984H7.68335H12.3167H12.9266L12.807 7.40179L12.307 4.90179L12.2266 4.49984H11.8167H8.18335ZM17.5 11.3332V11.3333L17.5101 11.3331C17.5881 11.3315 17.6641 11.3573 17.725 11.4061C17.7858 11.4547 17.8277 11.5231 17.8433 11.5993C17.8434 11.5995 17.8434 11.5996 17.8434 11.5997L18.675 15.7578C18.6828 15.8054 18.6802 15.8541 18.6673 15.9005C18.654 15.9484 18.6302 15.9927 18.5976 16.0302L18.5921 16.0366L18.5867 16.0432C18.5557 16.0814 18.5166 16.1123 18.4722 16.1336C18.4282 16.1548 18.3801 16.166 18.3314 16.1665H11.6667V16.1665L11.66 16.1666C11.6097 16.1672 11.5598 16.1565 11.5142 16.1351C11.4686 16.1138 11.4284 16.0823 11.3967 16.0432L11.3967 16.0432L11.3939 16.0398C11.3625 16.0018 11.3399 15.9572 11.3278 15.9094C11.3158 15.8617 11.3144 15.812 11.3238 15.7638C11.3238 15.7636 11.3239 15.7634 11.3239 15.7632L12.1566 11.5997C12.1567 11.5995 12.1567 11.5992 12.1568 11.599C12.1725 11.5229 12.2143 11.4546 12.275 11.4061C12.3359 11.3573 12.412 11.3315 12.4899 11.3331L12.4899 11.3332H12.5H17.5ZM12.1931 14.9018L12.0734 15.4998H12.6833H17.3167H17.9266L17.807 14.9018L17.307 12.4018L17.2266 11.9998H16.8167H13.1833H12.7734L12.6931 12.4018L12.1931 14.9018ZM2.48993 11.3331L2.48993 11.3332H2.50002H7.50002V10.8332L7.5101 11.3331C7.58808 11.3315 7.66414 11.3573 7.72505 11.4061C7.78576 11.4546 7.82757 11.5229 7.84328 11.599C7.84333 11.5992 7.84338 11.5995 7.84343 11.5997L8.67504 15.7578C8.6828 15.8054 8.68016 15.854 8.66729 15.9005C8.65402 15.9484 8.63023 15.9927 8.59764 16.0302L8.59206 16.0366L8.58671 16.0432C8.55569 16.0814 8.51659 16.1123 8.47221 16.1336C8.42823 16.1548 8.38015 16.166 8.33137 16.1665H1.66668V16.1665L1.66002 16.1666C1.60966 16.1672 1.5598 16.1565 1.51419 16.1351C1.46858 16.1138 1.42841 16.0823 1.39668 16.0432L1.3967 16.0432L1.39392 16.0398C1.36249 16.0018 1.33991 15.9572 1.32781 15.9094C1.31575 15.8617 1.31438 15.812 1.32381 15.7637C1.32384 15.7635 1.32388 15.7634 1.32392 15.7632L2.1566 11.5997C2.15665 11.5995 2.15669 11.5993 2.15674 11.5991C2.17244 11.5229 2.21426 11.4546 2.27498 11.4061C2.33589 11.3573 2.41195 11.3315 2.48993 11.3331ZM2.19306 14.9018L2.07345 15.4998H2.68335H7.31668H7.92658L7.80697 14.9018L7.30697 12.4018L7.22658 11.9998H6.81668H3.18335H2.77345L2.69306 12.4018L2.19306 14.9018Z" fill="#11453B" stroke="#11453B"/>
</svg>
