<svg width="13" height="12" viewBox="0 0 13 12" fill="none" xmlns="http://www.w3.org/2000/svg">
<g clip-path="url(#clip0_16269_23008)">
<path d="M8.89575 1.44143C8.89575 1.04877 8.90528 0.655157 8.89575 0.262496C8.88812 0.0547284 8.96627 -0.00150134 9.16356 0.00135784C9.723 0.0118415 10.2834 0.0156538 10.8419 0.00135784C11.0802 -0.00531359 11.1478 0.0747433 11.144 0.306337C11.1316 1.04401 11.1507 1.78263 11.1345 2.52125C11.1288 2.79192 11.1926 2.90248 11.4871 2.89104C12.1295 2.87579 12.1304 2.89104 12.1304 3.55246C12.1304 3.94513 12.1219 4.33874 12.1304 4.7314C12.1362 4.92202 12.0856 4.99826 11.875 5.00207C11.1373 5.01732 11.1373 5.02685 11.1373 5.78263C11.1373 6.15146 11.1469 6.52125 11.1373 6.89009C11.1307 7.09214 11.1993 7.15313 11.4013 7.1598C12.1304 7.18077 12.1304 7.1884 12.1304 7.91177C12.1304 8.2806 12.1219 8.65039 12.1304 9.01923C12.1371 9.21937 12.0704 9.28132 11.8664 9.28513C11.1364 9.30038 11.1373 9.30896 11.1373 10.0371C11.1373 10.5965 11.1288 11.1569 11.1373 11.7154C11.1373 11.9365 11.064 12.0014 10.8514 11.9966C10.2329 11.9842 9.61245 11.9832 8.99391 11.9966C8.90684 12.005 8.81927 11.9866 8.74295 11.9439C8.66664 11.9011 8.60522 11.836 8.56694 11.7574C8.12472 11.0235 7.66344 10.3011 7.22503 9.56533C7.10304 9.35947 6.97247 9.26702 6.72086 9.27179C5.87549 9.2899 5.03013 9.28608 4.18476 9.27179C3.95031 9.27179 3.88169 9.33945 3.88645 9.572C3.90075 10.2744 3.88073 10.9768 3.89694 11.6792C3.90266 11.9346 3.81974 12.0033 3.5729 11.9947C3.03728 11.9775 2.5007 11.9737 1.96603 11.9947C1.68488 12.0071 1.62675 11.8994 1.63151 11.6468C1.64676 10.9682 1.62484 10.2897 1.64199 9.61108C1.64866 9.34994 1.5829 9.2613 1.30747 9.26797C0.673681 9.28322 0.672731 9.26798 0.672731 8.64182C0.672731 8.22533 0.680355 7.80789 0.672731 7.3914C0.672731 7.20079 0.73849 7.15218 0.920524 7.14551C1.64009 7.11692 1.64009 7.11024 1.64009 6.38306C1.64009 6.01422 1.6296 5.64444 1.64009 5.2756C1.64771 5.06212 1.58195 4.98968 1.35989 4.98968C0.67273 4.98301 0.672731 4.97348 0.672731 4.27298C0.672731 3.90415 0.684167 3.53436 0.672731 3.16552C0.6632 2.94822 0.731818 2.8796 0.952928 2.8796C1.64199 2.86912 1.64199 2.85864 1.64199 2.15146C1.64199 1.53197 1.64866 0.912484 1.64199 0.293947C1.64199 0.0852265 1.69346 -0.00340799 1.92219 0.00231038C2.52929 0.0166063 3.1364 0.0147002 3.7435 0.00231038C3.82521 -0.00423267 3.90697 0.0143515 3.97783 0.0555725C4.04869 0.0967936 4.10526 0.158683 4.13997 0.232951C4.6165 1.0278 5.114 1.81313 5.59053 2.60989C5.7068 2.8005 5.82975 2.89581 6.06706 2.89581C6.91242 2.88056 7.75779 2.88246 8.60316 2.89581C8.8357 2.89581 8.91671 2.82814 8.90623 2.59178C8.88812 2.21055 8.90623 1.82933 8.90623 1.4481L8.89575 1.44143ZM7.05157 4.99635C7.49475 5.71973 7.90075 6.38592 8.31247 7.04925C8.42589 7.23128 8.61555 7.15027 8.7709 7.14455C8.96151 7.13693 8.89098 6.96919 8.89193 6.86531C8.89861 6.32969 8.89193 5.79407 8.89193 5.25845C8.89193 5.12883 8.91671 4.99159 8.70799 4.99445C8.18095 5.00112 7.65009 4.99635 7.05157 4.99635ZM5.72396 7.15218L4.4621 5.10691C4.34773 4.92106 4.16189 4.99731 4.00845 5.00398C3.81783 5.01351 3.89598 5.1822 3.89503 5.28322C3.88741 5.81789 3.89503 6.35256 3.89503 6.88723C3.89503 7.01303 3.86072 7.15694 4.07325 7.15408C4.59934 7.14837 5.12829 7.15218 5.72396 7.15218Z" fill="currentColor"/>
</g>
<defs>
<clipPath id="clip0_16269_23008">
<rect width="11.4615" height="12" fill="currentColor" transform="translate(0.666992)"/>
</clipPath>
</defs>
</svg>
