<svg width="20" height="20" viewBox="0 0 20 20" fill="none" xmlns="http://www.w3.org/2000/svg">
<g clip-path="url(#clip0_16252_23647)">
<path d="M13.7143 2.40174C13.7143 1.7473 13.7302 1.09128 13.7143 0.436842C13.7016 0.0905629 13.8318 -0.00315328 14.1606 0.00161203C15.093 0.0190848 16.027 0.0254386 16.9578 0.00161203C17.355 -0.00950702 17.4677 0.123921 17.4614 0.509911C17.4407 1.73936 17.4725 2.9704 17.4455 4.20144C17.436 4.65255 17.5424 4.83681 18.0332 4.81775C19.1038 4.79234 19.1054 4.81775 19.1054 5.92012C19.1054 6.57456 19.0911 7.23059 19.1054 7.88502C19.115 8.20271 19.0308 8.32978 18.6797 8.33614C17.4503 8.36155 17.4503 8.37744 17.4503 9.63707C17.4503 10.2518 17.4662 10.8681 17.4503 11.4828C17.4391 11.8196 17.5535 11.9212 17.8903 11.9324C19.1054 11.9673 19.1054 11.98 19.1054 13.1856C19.1054 13.8004 19.0911 14.4167 19.1054 15.0314C19.1165 15.365 19.0053 15.4682 18.6654 15.4746C17.4487 15.5 17.4503 15.5143 17.4503 16.7278C17.4503 17.6603 17.436 18.5943 17.4503 19.5251C17.4503 19.8936 17.328 20.0016 16.9737 19.9937C15.9428 19.973 14.9088 19.9714 13.8779 19.9937C13.7328 20.0077 13.5868 19.9771 13.4596 19.9058C13.3324 19.8345 13.2301 19.7261 13.1663 19.595C12.4292 18.3719 11.6604 17.1678 10.9297 15.9416C10.7264 15.5985 10.5088 15.4444 10.0895 15.4523C8.68051 15.4825 7.27156 15.4762 5.86262 15.4523C5.47187 15.4523 5.3575 15.5651 5.36545 15.9527C5.38927 17.1234 5.35591 18.294 5.38292 19.4647C5.39245 19.8904 5.25425 20.0048 4.84285 19.9905C3.95015 19.9619 3.05586 19.9555 2.16474 19.9905C1.69615 20.0111 1.59926 19.8316 1.6072 19.4107C1.63262 18.2797 1.59608 17.1488 1.62468 16.0178C1.63579 15.5826 1.52619 15.4349 1.06713 15.446C0.0108226 15.4714 0.00923845 15.446 0.00923845 14.4024C0.00923845 13.7082 0.0219459 13.0125 0.00923845 12.3183C0.00923845 12.0007 0.118837 11.9196 0.422228 11.9085C1.6215 11.8609 1.6215 11.8498 1.6215 10.6378C1.6215 10.0231 1.60403 9.40674 1.6215 8.79202C1.63421 8.43621 1.52461 8.31549 1.1545 8.31549C0.00923707 8.30437 0.00923845 8.28848 0.00923845 7.12098C0.00923845 6.50626 0.0282997 5.88994 0.00923845 5.27522C-0.00664591 4.91305 0.107717 4.79869 0.476234 4.79869C1.62467 4.78121 1.62468 4.76374 1.62468 3.58512C1.62468 2.55264 1.63579 1.52016 1.62468 0.489261C1.62468 0.141393 1.71045 -0.00633102 2.09168 0.0031996C3.10351 0.0270261 4.11535 0.0238493 5.12718 0.0031996C5.26337 -0.00770549 5.39964 0.0232681 5.51774 0.0919698C5.63584 0.160672 5.73012 0.26382 5.78797 0.387601C6.58218 1.71236 7.41135 3.02123 8.20557 4.34916C8.39935 4.66685 8.60426 4.82569 8.99978 4.82569C10.4087 4.80028 11.8177 4.80345 13.2266 4.82569C13.6142 4.82569 13.7492 4.71291 13.7317 4.31898C13.7016 3.68361 13.7317 3.04823 13.7317 2.41286L13.7143 2.40174ZM10.6406 8.32661C11.3793 9.53223 12.0559 10.6425 12.7421 11.7481C12.9312 12.0515 13.2473 11.9165 13.5062 11.9069C13.8239 11.8942 13.7063 11.6147 13.7079 11.4415C13.719 10.5488 13.7079 9.65613 13.7079 8.76343C13.7079 8.5474 13.7492 8.31866 13.4013 8.32343C12.5229 8.33455 11.6382 8.32661 10.6406 8.32661ZM8.42795 11.9196L6.32486 8.51087C6.13424 8.20112 5.8245 8.32819 5.56877 8.33931C5.25108 8.3552 5.38133 8.63635 5.37974 8.80472C5.36703 9.69584 5.37974 10.5869 5.37974 11.4781C5.37974 11.6877 5.32256 11.9276 5.67678 11.9228C6.55359 11.9133 7.43518 11.9196 8.42795 11.9196Z" fill="currentColor"/>
</g>
<defs>
<clipPath id="clip0_16252_23647">
<rect width="19.1025" height="20" fill="white"/>
</clipPath>
</defs>
</svg>
