<svg width="20" height="20" viewBox="0 0 20 20" fill="none" xmlns="http://www.w3.org/2000/svg">
<path d="M4.02243 1.91058C3.86615 1.7543 3.65418 1.6665 3.43317 1.6665C3.21216 1.6665 3.0002 1.7543 2.84391 1.91058C2.68763 2.06686 2.59984 2.27882 2.59984 2.49984V6.24984C2.59984 6.47085 2.68763 6.68281 2.84391 6.83909C3.0002 6.99537 3.21216 7.08317 3.43317 7.08317H7.18317C7.40418 7.08317 7.61615 6.99537 7.77243 6.83909C7.92871 6.68281 8.0165 6.47085 8.0165 6.24984C8.0165 6.02882 7.92871 5.81686 7.77243 5.66058C7.61615 5.5043 7.40418 5.4165 7.18317 5.4165H5.90304C5.77922 5.52657 5.65956 5.64186 5.54442 5.76219L5.18317 5.4165V4.9165H5.71716L4.02243 1.91058ZM4.02243 1.91058L3.66887 2.26413C3.60636 2.20162 3.52158 2.1665 3.43317 2.1665C3.34477 2.1665 3.25998 2.20162 3.19747 2.26414C3.13496 2.32665 3.09984 2.41143 3.09984 2.49984V6.24984C3.09984 6.33824 3.13496 6.42303 3.19747 6.48554C3.25998 6.54805 3.34477 6.58317 3.43317 6.58317H7.18317C7.27158 6.58317 7.35636 6.54805 7.41887 6.48554C7.48139 6.42303 7.5165 6.33824 7.5165 6.24984C7.5165 6.16143 7.48139 6.07665 7.41887 6.01413C7.35636 5.95162 7.27158 5.9165 7.18317 5.9165H5.18317H4.01269L4.82192 5.07082C5.80954 4.03871 7.08308 3.32529 8.47907 3.02215C9.87505 2.71901 11.3298 2.83997 12.6565 3.36951C13.9833 3.89905 15.1215 4.81301 15.9251 5.99407C16.7287 7.17513 17.161 8.5694 17.1665 9.99791L17.1665 9.99984C17.1665 10.0882 17.2016 10.173 17.2641 10.2355C17.3266 10.2981 17.4114 10.3332 17.4998 10.3332C17.5882 10.3332 17.673 10.2981 17.7355 10.2355C17.7981 10.173 17.8332 10.0882 17.8332 9.99984C17.8332 8.97115 17.6306 7.95253 17.2369 7.00215C16.8432 6.05177 16.2662 5.18823 15.5388 4.46083C14.8114 3.73344 13.9479 3.15644 12.9975 2.76278C12.0474 2.36921 11.029 2.1666 10.0006 2.1665C7.99264 2.17241 6.06366 2.94915 4.61193 4.33634L3.7665 5.14417V3.97484V2.49984C3.7665 2.41143 3.73138 2.32665 3.66887 2.26414L4.02243 1.91058ZM9.76318 12.7394L9.76316 12.7394C9.73227 12.7082 9.70783 12.6713 9.69124 12.6307C9.6749 12.5907 9.6665 12.5479 9.66649 12.5047C9.66823 12.4148 9.70225 12.3286 9.76215 12.2617C9.79202 12.235 9.82649 12.2139 9.86392 12.1994L9.86399 12.1995L9.87699 12.1941C9.93769 12.1686 10.0046 12.1616 10.0693 12.174C10.1315 12.186 10.1889 12.2155 10.2349 12.2589C10.2964 12.3261 10.3314 12.4135 10.3332 12.5047C10.3332 12.5702 10.3139 12.6343 10.2776 12.6889L10.6943 12.9653L10.2776 12.689C10.241 12.7441 10.1888 12.7871 10.1277 12.8125C10.0665 12.8379 9.9992 12.8445 9.93429 12.8315C9.86937 12.8185 9.8098 12.7864 9.76318 12.7394ZM15.1778 14.9372L15.987 14.0915H14.8165H12.8165C12.7281 14.0915 12.6433 14.0564 12.5808 13.9939C12.5183 13.9314 12.4832 13.8466 12.4832 13.7582C12.4832 13.6698 12.5183 13.585 12.5808 13.5225C12.6433 13.46 12.7281 13.4248 12.8165 13.4248H16.5823C16.6663 13.4288 16.7457 13.4644 16.8046 13.5245C16.8645 13.5856 16.8985 13.6673 16.8998 13.7528V17.4998C16.8998 17.5882 16.8647 17.673 16.8022 17.7355C16.7397 17.7981 16.6549 17.8332 16.5665 17.8332C16.4781 17.8332 16.3933 17.7981 16.3308 17.7355C16.2683 17.673 16.2332 17.5882 16.2332 17.4998V16.0248V14.8618L15.3892 15.662C14.2791 16.7144 12.8851 17.4188 11.3793 17.6882C9.87351 17.9576 8.32179 17.7802 6.91565 17.1779C5.50951 16.5756 4.31047 15.5748 3.46652 14.299C2.62273 13.0234 2.1708 11.5287 2.1665 9.9993C2.16665 9.91109 2.20175 9.82652 2.26413 9.76414C2.32665 9.70162 2.41143 9.6665 2.49984 9.6665C2.58824 9.6665 2.67303 9.70162 2.73554 9.76414C2.79805 9.82665 2.83317 9.91143 2.83317 9.99984L2.83317 10.0011C2.83691 11.4304 3.26793 12.8259 4.07085 14.0084C4.87376 15.1908 6.0119 16.1062 7.33901 16.6368C8.66613 17.1675 10.1216 17.2892 11.5184 16.9863C12.9152 16.6834 14.1896 15.9698 15.1778 14.9372ZM10.2355 10.2355C10.173 10.2981 10.0882 10.3332 9.99984 10.3332C9.91143 10.3332 9.82665 10.2981 9.76414 10.2355C9.70162 10.173 9.6665 10.0882 9.6665 9.99984V7.49984C9.6665 7.41143 9.70162 7.32665 9.76414 7.26414C9.82665 7.20162 9.91143 7.1665 9.99984 7.1665C10.0882 7.1665 10.173 7.20162 10.2355 7.26414C10.2981 7.32665 10.3332 7.41143 10.3332 7.49984V9.99984C10.3332 10.0882 10.2981 10.173 10.2355 10.2355Z" fill="#EA4E4B" stroke="#EA4E4B"/>
</svg>
