<svg width="20" height="20" viewBox="0 0 20 20" fill="none" xmlns="http://www.w3.org/2000/svg">
<g clip-path="url(#clip0_17115_2097)">
<path d="M18.0014 20C12.6899 20 7.37394 20 2.06251 20C2.03514 19.9883 2.00776 19.9765 1.98038 19.9687C0.752909 19.7652 0 19.0022 0 17.9456C0 12.6433 0 7.33712 0 2.03483C0 0.833496 0.981063 0 2.38193 0C5.80424 0.00391313 9.22656 0.0195656 12.6489 0.0234788C13.2101 0.0234788 13.6756 0.191743 14.0771 0.528272C15.8385 1.99961 17.6044 3.46703 19.3794 4.92663C19.8038 5.2749 19.9954 5.67404 19.9954 6.17492C19.9863 8.90237 19.9909 11.6298 19.9909 14.3573C19.9909 15.5625 19.9954 16.7638 19.9909 17.9691C19.9863 18.8926 19.384 19.64 18.4349 19.9022C18.2934 19.9374 18.1474 19.9648 18.0014 20ZM12.1606 1.59656C12.0602 1.59264 11.9872 1.58482 11.9142 1.58482C8.7885 1.57699 5.65823 1.56525 2.53251 1.55743C1.93931 1.55743 1.82067 1.65917 1.82067 2.15613C1.82067 7.37233 1.82067 12.5846 1.82067 17.8008C1.82067 17.8673 1.82067 17.93 1.82067 17.9965C1.8298 18.2391 2.01688 18.4074 2.30436 18.4269C2.3728 18.4308 2.44125 18.4269 2.5097 18.4269C7.51996 18.4269 12.5302 18.4269 17.5405 18.4269C18.0424 18.4269 18.1702 18.3134 18.1702 17.883C18.1702 14.1773 18.1702 10.4754 18.1702 6.76971C18.1702 6.69928 18.1702 6.63275 18.1702 6.55058C18.0516 6.55058 17.9694 6.55058 17.8873 6.55058C16.7693 6.55058 15.6559 6.55058 14.538 6.55058C13.1417 6.54666 12.1606 5.70534 12.1561 4.51184C12.1515 3.61182 12.1561 2.71571 12.1561 1.81569C12.1606 1.75308 12.1606 1.68265 12.1606 1.59656ZM13.9813 2.6218C13.9813 3.28703 13.9813 3.89748 13.9813 4.50792C13.9813 4.84054 14.1593 4.99315 14.5517 4.99315C15.2498 4.99707 15.948 4.99315 16.6461 4.99315C16.6918 4.99315 16.7374 4.98141 16.815 4.96967C15.8704 4.18705 14.9532 3.4279 13.9813 2.6218Z" fill="#11453B" stroke="#11453B" stroke-width="0.308277"/>
<path d="M10.0215 14.8828C11.646 14.8828 13.2659 14.8828 14.8903 14.8828C15.4698 14.8828 15.8714 14.5385 15.8531 14.0728C15.8394 13.7363 15.5565 13.431 15.1732 13.3528C15.0637 13.3293 14.9496 13.3215 14.8356 13.3215C11.6277 13.3215 8.41987 13.3215 5.21202 13.3215C4.6827 13.3215 4.32678 13.5484 4.22183 13.9437C4.10319 14.378 4.47736 14.828 4.99299 14.875C5.09794 14.8828 5.20289 14.8828 5.31241 14.8828C6.88211 14.8828 8.45181 14.8828 10.0215 14.8828Z" fill="#11453B" stroke="#11453B" stroke-width="0.308277"/>
<path d="M8.84426 11.7598C10.0809 11.7598 11.3174 11.7637 12.554 11.7559C13.2385 11.7519 13.6811 11.1924 13.4119 10.6758C13.2339 10.3315 12.9054 10.1945 12.481 10.1945C11.322 10.1945 10.1584 10.1945 8.9994 10.1945C7.73086 10.1945 6.46689 10.1945 5.19835 10.1945C4.71923 10.1945 4.37243 10.3941 4.2401 10.7306C4.04389 11.2393 4.46826 11.748 5.11165 11.7519C6.18854 11.7598 7.26543 11.7559 8.34232 11.7559C8.51115 11.7598 8.67999 11.7598 8.84426 11.7598Z" fill="#11453B" stroke="#11453B" stroke-width="0.308277"/>
<path d="M7.6761 8.63281C8.53396 8.63281 9.38725 8.63672 10.2451 8.6289C10.6558 8.62498 10.9798 8.3902 11.0847 8.04976C11.1851 7.7367 11.0482 7.38844 10.7151 7.21626C10.56 7.138 10.3638 7.07539 10.1858 7.07539C8.50201 7.06365 6.81824 7.06756 5.13902 7.07147C4.64165 7.07147 4.27204 7.35322 4.20359 7.75236C4.13971 8.11628 4.41349 8.48411 4.84242 8.59368C4.96106 8.62498 5.09795 8.6289 5.22572 8.6289C6.04251 8.63672 6.8593 8.63281 7.6761 8.63281Z" fill="#11453B" stroke="#11453B" stroke-width="0.308277"/>
</g>
<defs>
<clipPath id="clip0_17115_2097">
<rect width="20" height="20" fill="white"/>
</clipPath>
</defs>
</svg>
