<svg width="25" height="32" viewBox="0 0 25 32" fill="none" xmlns="http://www.w3.org/2000/svg">
<path fill-rule="evenodd" clip-rule="evenodd" d="M1.99998 0H17.3929L24.7999 7.372V30C24.7999 31.105 23.904 32 22.7999 32H1.99998C0.895951 32 0 31.105 0 30V1.99998C0 0.895016 0.896055 0 1.99998 0Z" fill="white"/>
<path d="M1.99998 0.5H17.1865L24.2999 7.5798V30C24.2999 30.8287 23.628 31.5 22.7999 31.5H1.99998C1.17195 31.5 0.5 30.8287 0.5 30V1.99998C0.5 1.17133 1.17203 0.5 1.99998 0.5Z" stroke="#E8E9EB"/>
<path d="M24.4002 7.5999H18.9837C17.9991 7.5999 17.2002 6.80175 17.2002 5.81819V0.399902" stroke="#E8E9EB"/>
<path d="M7.48945 24.0002C7.30854 24.0002 7.1349 23.9454 6.98673 23.8422C6.44553 23.4638 6.37275 23.0427 6.40706 22.7559C6.50168 21.967 7.5482 21.1413 9.51855 20.3001C10.3005 18.703 11.0444 16.7353 11.4879 15.0912C10.969 14.0387 10.4647 12.6732 10.8323 11.8723C10.9612 11.5917 11.1219 11.3766 11.4218 11.2835C11.5404 11.2467 11.8398 11.2002 11.95 11.2002C12.2121 11.2002 12.4424 11.5147 12.6056 11.7085C12.759 11.8907 13.1068 12.2769 12.4117 15.0044C13.1125 16.3534 14.1055 17.7276 15.0568 18.6686C15.7384 18.5538 16.3248 18.4952 16.8026 18.4952C17.6167 18.4952 18.1101 18.672 18.3113 19.0364C18.4777 19.3378 18.4096 19.6901 18.1085 20.0831C17.819 20.4605 17.4197 20.6602 16.9544 20.6602C16.3222 20.6602 15.5861 20.288 14.7652 19.553C13.2903 19.8403 11.5679 20.353 10.1757 20.9204C9.74106 21.78 9.32464 22.4724 8.9368 22.9802C8.40393 23.6755 7.94435 24.0002 7.48945 24.0002ZM8.87338 21.5164C7.76239 22.0983 7.30958 22.5766 7.27682 22.846C7.27162 22.8906 7.25759 23.0078 7.50089 23.1813C7.57835 23.1585 8.03065 22.9662 8.87338 21.5164ZM15.963 19.364C16.3867 19.6678 16.4902 19.8214 16.7673 19.8214C16.8889 19.8214 17.2357 19.8166 17.3963 19.6077C17.4738 19.5064 17.5039 19.4415 17.5159 19.4066C17.4519 19.3751 17.3672 19.3112 16.905 19.3112C16.6425 19.3116 16.3124 19.3223 15.963 19.364ZM12.0795 16.1746C11.7078 17.3734 11.217 18.6677 10.6893 19.8398C11.7759 19.4468 12.957 19.1038 14.0665 18.861C13.3646 18.1012 12.6633 17.1525 12.0795 16.1746ZM11.7639 12.0743C11.713 12.0903 11.0725 12.9257 11.8138 13.6327C12.3072 12.6078 11.7863 12.0675 11.7639 12.0743Z" fill="#E2574C"/>
</svg>
