<svg width="16" height="16" viewBox="0 0 16 16" fill="none" xmlns="http://www.w3.org/2000/svg">
<path d="M6.58774 12.2699L8.99831 3.27353C9.04876 3.08525 8.93702 2.89172 8.74874 2.84127L4.92292 1.81615C4.73464 1.7657 4.54111 1.87743 4.49066 2.06571L2.08009 11.0621C1.74655 12.3068 2.48525 13.5863 3.73 13.9198C4.97476 14.2533 6.25421 13.5147 6.58774 12.2699Z" fill="#8D8E8D" stroke="#8D8E8D" stroke-width="2" stroke-linecap="round" stroke-linejoin="round"/>
<path d="M4.33334 13.9999L13.6471 13.9999C13.842 13.9999 14 13.8419 14 13.647V9.6862" stroke="#8D8E8D" stroke-width="2" stroke-linecap="round" stroke-linejoin="round"/>
<path d="M4.33334 11.7333H4.33468V11.7347H4.33334V11.7333Z" stroke="#8D8E8D" stroke-width="2" stroke-linecap="round" stroke-linejoin="round"/>
<path d="M5.31998 13.7808L13.7611 9.84468C13.9377 9.7623 14.0142 9.55231 13.9318 9.37565L12.2579 5.78596C12.1755 5.6093 11.9655 5.53287 11.7889 5.61524L8.01996 7.37271" stroke="#8D8E8D" stroke-width="2" stroke-linecap="round" stroke-linejoin="round"/>
</svg>
