<svg width="16" height="16" viewBox="0 0 16 16" fill="none" xmlns="http://www.w3.org/2000/svg">
<path fill-rule="evenodd" clip-rule="evenodd" d="M11.0173 12.089C9.87398 12.9781 8.43724 13.5075 6.87688 13.5075C3.14792 13.5075 0.125 10.4838 0.125 6.75377C0.125 3.02377 3.14792 0 6.87688 0C10.6058 0 13.6288 3.02377 13.6288 6.75377C13.6288 8.31442 13.0996 9.75143 12.2109 10.8951L15.6274 14.3085C15.9572 14.638 15.9576 15.1725 15.6282 15.5024C15.2988 15.8323 14.7644 15.8326 14.4346 15.5031L11.0173 12.089ZM11.9408 6.75377C11.9408 9.55127 9.67361 11.8191 6.87688 11.8191C4.08016 11.8191 1.81297 9.55127 1.81297 6.75377C1.81297 3.95627 4.08016 1.68844 6.87688 1.68844C9.67361 1.68844 11.9408 3.95627 11.9408 6.75377Z" fill="#868FA0"/>
</svg>
