<svg width="16" height="16" viewBox="0 0 16 16" fill="none" xmlns="http://www.w3.org/2000/svg">
<path d="M9.73654 10.7739L10.0894 10.9364L10.3341 10.6347C10.5357 10.3862 10.7899 10.1854 11.0783 10.0468C11.3663 9.90841 11.6813 9.83543 12.0008 9.83309C12.4288 9.83342 12.847 9.96047 13.2029 10.1982C13.5592 10.4363 13.8369 10.7747 14.0009 11.1706C14.1649 11.5665 14.2078 12.0022 14.1242 12.4224C14.0406 12.8427 13.8342 13.2288 13.5312 13.5318C13.2282 13.8348 12.8421 14.0412 12.4218 14.1248C12.0015 14.2084 11.5659 14.1655 11.17 14.0015C10.7741 13.8375 10.4357 13.5598 10.1976 13.2035C9.96011 12.848 9.83308 12.4303 9.83246 12.0029C9.83427 11.8737 9.84706 11.7449 9.87069 11.6179L9.94191 11.235L9.58816 11.0722L6.06816 9.45221L5.75559 9.30836L5.50956 9.54892C5.20465 9.84706 4.81853 10.0486 4.39958 10.1283C3.98063 10.2079 3.54749 10.1622 3.15442 9.9968C2.76135 9.8314 2.42583 9.55367 2.1899 9.19843C1.95397 8.84318 1.82812 8.42621 1.82812 7.99975C1.82812 7.5733 1.95397 7.15632 2.1899 6.80108L1.77339 6.52446L2.1899 6.80108C2.42583 6.44583 2.76135 6.1681 3.15442 6.0027C3.54749 5.83729 3.98063 5.79156 4.39958 5.87123C4.81853 5.95091 5.20465 6.15244 5.50956 6.45058L5.75559 6.69115L6.06816 6.54729L9.58816 4.92729L9.94191 4.76449L9.87069 4.38164C9.84694 4.25396 9.83414 4.12449 9.83243 3.99463C9.82856 3.48432 10.0049 2.989 10.3305 2.59599C10.6563 2.20269 11.1106 1.93713 11.6131 1.84617C12.1157 1.75521 12.6342 1.84469 13.0772 2.09883C13.5202 2.35297 13.8592 2.75542 14.0343 3.23516C14.2095 3.7149 14.2095 4.24109 14.0344 4.72086C13.8594 5.20063 13.5205 5.60315 13.0775 5.85736C12.6346 6.11158 12.1161 6.20116 11.6135 6.11029C11.111 6.01942 10.6567 5.75394 10.3308 5.36071L10.0856 5.06482L9.73654 5.22564L6.33654 6.79231L5.93233 6.97856L6.07049 7.40164C6.19741 7.79028 6.19741 8.20922 6.07049 8.59786L5.93233 9.02094L6.33654 9.20719L9.73654 10.7739ZM13.0177 2.47539L12.7399 2.89112L13.0177 2.47539C12.7162 2.27394 12.3617 2.16642 11.9991 2.16642C11.5129 2.16642 11.0466 2.35957 10.7028 2.70339C10.3589 3.0472 10.1658 3.51352 10.1658 3.99975C10.1658 4.36235 10.2733 4.71681 10.4748 5.0183C10.6762 5.31979 10.9625 5.55477 11.2975 5.69353C11.6325 5.83229 12.0012 5.8686 12.3568 5.79786C12.7124 5.72712 13.0391 5.55251 13.2955 5.29611C13.5519 5.03972 13.7265 4.71305 13.7972 4.35742C13.868 4.00178 13.8317 3.63316 13.6929 3.29816C13.5541 2.96317 13.3192 2.67684 13.0177 2.47539ZM2.98058 9.52411C3.28207 9.72556 3.63652 9.83308 3.99912 9.83308C4.48535 9.83308 4.95167 9.63993 5.29549 9.29611C5.6393 8.9523 5.83246 8.48598 5.83246 7.99975C5.83246 7.63715 5.72493 7.2827 5.52348 6.98121C5.32204 6.67972 5.03571 6.44473 4.70071 6.30597C4.36571 6.16721 3.99709 6.13091 3.64146 6.20164C3.28583 6.27238 2.95916 6.44699 2.70276 6.70339C2.44636 6.95978 2.27176 7.28645 2.20102 7.64209C2.13028 7.99772 2.16658 8.36634 2.30534 8.70134C2.44411 9.03634 2.67909 9.32266 2.98058 9.52411ZM10.9806 13.5241C11.2821 13.7256 11.6365 13.8331 11.9991 13.8331C12.4854 13.8331 12.9517 13.6399 13.2955 13.2961C13.6393 12.9523 13.8325 12.486 13.8325 11.9998C13.8325 11.6372 13.7249 11.2827 13.5235 10.9812C13.322 10.6797 13.0357 10.4447 12.7007 10.306C12.3657 10.1672 11.9971 10.1309 11.6415 10.2016C11.2858 10.2724 10.9592 10.447 10.7028 10.7034C10.4464 10.9598 10.2718 11.2865 10.201 11.6421C10.1303 11.9977 10.1666 12.3663 10.3053 12.7013C10.4441 13.0363 10.6791 13.3227 10.9806 13.5241Z" fill="currentColor" stroke="currentColor"/>
</svg>
