<svg width="40" height="40" viewBox="0 0 40 40" fill="none" xmlns="http://www.w3.org/2000/svg">
<g clip-path="url(#clip0_725_2920)">
<path d="M0.794445 39.9997C-0.0178736 39.5533 -0.160699 39.1695 0.160658 38.2947C0.821225 36.5004 1.49072 34.7151 2.16021 32.9298C2.20484 32.8048 2.2584 32.6888 2.33874 32.5103C4.40971 34.7776 7.06983 35.9113 10.0424 36.7325C8.63198 37.2592 7.34655 37.7412 6.06113 38.2233C4.48112 38.8213 2.91004 39.4194 1.33004 40.0086C1.15151 39.9997 0.972977 39.9997 0.794445 39.9997Z" fill="#11453B"/>
<path d="M27.0745 28.0924C27.0834 29.7259 26.5389 30.4579 25.3963 31.0381C24.3608 31.5737 23.3253 31.4309 22.272 31.2613C17.4427 30.4758 12.9794 28.7708 9.0428 25.8161C7.95375 24.9948 6.97183 24.0486 6.15951 22.9328C6.07025 22.8078 6.00776 22.5668 6.06132 22.424C6.97183 19.9156 7.89127 17.4162 8.83749 14.9257C9.49805 13.2028 10.6317 12.6405 12.5152 13.06C14.2113 13.4349 15.6931 14.274 17.1035 15.247C20.6384 17.7018 23.5396 20.7636 25.7355 24.4682C26.4586 25.6911 27.0299 26.9765 27.0745 28.0924ZM24.2091 29.1725C24.2269 29.1368 24.2358 29.0921 24.2537 29.0564C24.825 29.0654 25.0392 28.9136 24.9053 28.3512C24.7089 27.5211 24.4679 26.682 24.0841 25.9321C22.7987 23.4059 20.933 21.3171 18.871 19.3979C17.2285 17.8625 15.4699 16.4789 13.3811 15.5862C12.8009 15.3363 12.176 15.1845 11.5512 15.0863C11.0602 15.006 10.8549 15.2113 10.9442 15.7023C11.0691 16.3807 11.2298 17.068 11.5155 17.6929C12.5509 19.9602 14.1131 21.8616 15.8448 23.6291C17.6391 25.459 19.5762 27.1194 21.8792 28.2709C22.6201 28.628 23.4324 28.869 24.2091 29.1725Z" fill="#11453B"/>
<path d="M5.08835 25.0391C9.1678 29.3506 14.3095 31.5555 19.9154 33.0284C19.7994 33.0908 19.719 33.1444 19.6297 33.1712C17.898 33.8139 16.1662 34.4655 14.4166 35.0904C14.131 35.1975 13.7828 35.2243 13.4793 35.1797C11.0513 34.8047 8.68577 34.2334 6.50768 33.0373C5.29367 32.3767 4.2314 31.5376 3.44586 30.3772C3.34767 30.2343 3.26733 30.0022 3.31196 29.8594C3.88327 28.2705 4.48135 26.6726 5.08835 25.0391Z" fill="#11453B"/>
<path d="M21.013 8.68559C21.2986 9.123 21.5843 9.50684 21.8164 9.90854C22.6376 11.3011 22.2806 12.7383 20.8969 13.5863C20.0132 14.1219 19.0313 14.3183 18.0226 14.4432C17.612 14.4968 17.3352 14.2826 17.2549 13.8719C17.1567 13.4256 17.0674 12.9704 17.005 12.5151C16.9335 12.0063 17.1389 11.7474 17.6566 11.6314C18.1833 11.5064 18.7189 11.3993 19.3348 11.2564C19.2009 11.0511 19.1116 10.9262 19.0313 10.8012C18.7724 10.4174 18.4868 10.0603 18.2636 9.65859C17.2906 7.90005 18.2458 6.08796 20.2364 5.88265C20.7184 5.82909 21.2004 5.80231 21.7271 5.7666C21.4504 5.35598 21.1915 4.98999 20.9505 4.60615C20.0668 3.15111 20.4506 1.6693 21.9324 0.821277C22.7805 0.330315 23.7267 0.133931 24.6907 0.0178851C25.1371 -0.0356744 25.387 0.16071 25.4852 0.607039C25.5834 1.02659 25.6637 1.44614 25.7262 1.87461C25.8155 2.43699 25.6191 2.70479 25.0567 2.82976C24.5301 2.9458 23.9945 3.06185 23.4053 3.19575C23.7624 3.71349 24.0748 4.14196 24.3605 4.58829C24.905 5.44525 25.0746 6.3379 24.5747 7.27519C24.1373 8.09644 23.4053 8.46243 22.5216 8.56955C22.0395 8.61418 21.5575 8.64096 21.013 8.68559Z" fill="#EA4E4B"/>
<path d="M34.2513 18.2815C34.171 18.9599 34.1531 19.6026 34.0103 20.2275C33.6532 21.7986 32.0821 22.5752 30.6271 21.8789C29.9933 21.5754 29.422 21.138 28.7436 20.7095C28.6276 21.1826 28.5026 21.6468 28.4133 22.111C28.2616 22.9322 28.0116 23.1108 27.1904 22.9501C26.8422 22.8787 26.4941 22.8251 26.146 22.7448C25.7443 22.6555 25.5122 22.3966 25.5657 21.9771C25.6907 20.9595 25.896 19.9508 26.4495 19.067C27.2975 17.7013 28.7168 17.3531 30.0915 18.1654C30.5021 18.4065 30.886 18.6832 31.3234 18.9778C31.3591 18.4957 31.3948 18.0315 31.4394 17.5763C31.6537 15.425 33.5372 14.4877 35.385 15.6035C35.8492 15.8892 36.2866 16.2195 36.8222 16.5765C36.9471 16.0588 37.0721 15.5946 37.1614 15.1215C37.3131 14.327 37.5631 14.1485 38.3665 14.3002C38.7324 14.3717 39.0984 14.4341 39.4555 14.5145C39.8661 14.6037 40.0714 14.8805 40.0179 15.2911C39.8929 16.2641 39.6965 17.2282 39.1966 18.0851C38.3397 19.5401 36.8757 19.9151 35.4296 19.0403C35.0101 18.8082 34.6441 18.5404 34.2513 18.2815Z" fill="#EA4E4B"/>
<path d="M38.4735 7.27535C38.4735 8.11444 38.6074 8.24834 37.5362 8.35546C33.9655 8.7036 31.0019 10.3818 28.3864 12.7206C27.3331 13.6578 26.4404 14.7826 25.4942 15.8449C25.1014 16.2823 25.039 16.3269 24.548 15.9966C24.3248 15.8449 24.1017 15.702 23.8874 15.5503C23.4232 15.2379 23.4054 15.0861 23.7446 14.6219C25.4139 12.3456 27.4402 10.4621 29.8147 8.94462C31.9124 7.60563 34.1619 6.65941 36.6346 6.30235C37.0184 6.24879 37.4023 6.21308 37.7861 6.1863C38.3306 6.1506 38.4735 6.29342 38.4735 6.83794C38.4735 6.97184 38.4735 7.12359 38.4735 7.27535Z" fill="#EA4E4B"/>
<path d="M14.9523 4.78461C14.9523 5.16845 14.9434 5.5523 14.9523 5.94507C14.9612 6.32891 14.8005 6.52529 14.3988 6.52529C14.0329 6.51637 13.6579 6.52529 13.283 6.52529C12.9795 6.51637 12.8099 6.35569 12.8099 6.05219C12.801 5.17738 12.801 4.30258 12.8099 3.42777C12.8099 3.15105 12.9617 2.98144 13.2473 2.97252C13.6579 2.96359 14.0775 2.96359 14.4881 2.97252C14.7916 2.98144 14.9344 3.1689 14.9434 3.46348C14.9612 3.89195 14.9523 4.33828 14.9523 4.78461Z" fill="#EA4E4B"/>
<path d="M32.413 27.1727C32.0023 27.1727 31.5828 27.1727 31.1722 27.1727C30.7972 27.1727 30.6276 26.9941 30.6366 26.6281C30.6455 26.2711 30.6366 25.914 30.6366 25.5569C30.6366 25.2088 30.7972 25.0303 31.1454 25.0303C31.9934 25.0303 32.8325 25.0303 33.6805 25.0303C34.0287 25.0303 34.1983 25.2088 34.1983 25.5569C34.1983 25.914 34.1983 26.2711 34.1983 26.6281C34.2072 26.9941 34.0287 27.1816 33.6627 27.1727C33.2431 27.1727 32.8325 27.1727 32.413 27.1727Z" fill="#EA4E4B"/>
<path d="M36.8937 1.64292C36.8223 1.75004 36.7687 1.87501 36.6794 1.96427C36.0903 2.57128 35.4922 3.16044 34.8941 3.75852C34.6531 3.99953 34.4121 4.01739 34.1622 3.76744C33.9033 3.49965 33.6355 3.24077 33.3766 2.9819C33.1445 2.74981 33.1267 2.51772 33.3588 2.28563C33.9747 1.66077 34.5817 1.03591 35.2244 0.446756C35.3405 0.339637 35.6797 0.321784 35.7957 0.419976C36.1439 0.687773 36.4384 1.02698 36.7509 1.34834C36.8223 1.4019 36.8401 1.51795 36.8937 1.64292Z" fill="#EA4E4B"/>
</g>
<defs>
<clipPath id="clip0_725_2920">
<rect width="40" height="40" fill="white"/>
</clipPath>
</defs>
</svg>
