<svg width="41" height="40" viewBox="0 0 41 40" fill="none" xmlns="http://www.w3.org/2000/svg">
<rect x="8" y="4" width="24.7999" height="32" rx="2" fill="white"/>
<path d="M23.5254 18.75L27.4584 14.8169C27.8522 14.4232 28.5254 14.7021 28.5254 15.2589V24.7411C28.5254 25.2979 27.8522 25.5768 27.4584 25.1831L23.5254 21.25M14.1504 25.625H21.6504C22.6859 25.625 23.5254 24.7855 23.5254 23.75V16.25C23.5254 15.2145 22.6859 14.375 21.6504 14.375H14.1504C13.1149 14.375 12.2754 15.2145 12.2754 16.25V23.75C12.2754 24.7855 13.1149 25.625 14.1504 25.625Z" stroke="#2F80ED" stroke-width="1.5" stroke-linecap="round" stroke-linejoin="round"/>
<rect x="8" y="4" width="24.7999" height="32" rx="2" stroke="#E7E8E7"/>
</svg>
