<svg width="25" height="32" viewBox="0 0 25 32" fill="none" xmlns="http://www.w3.org/2000/svg">
<path fill-rule="evenodd" clip-rule="evenodd" d="M1.99998 0H17.3929L24.7999 7.372V30C24.7999 31.105 23.904 32 22.7999 32H1.99998C0.895951 32 0 31.105 0 30V1.99998C0 0.895016 0.896055 0 1.99998 0Z" fill="white"/>
<path d="M1.99998 0.5H17.1865L24.2999 7.5798V30C24.2999 30.8287 23.628 31.5 22.7999 31.5H1.99998C1.17195 31.5 0.5 30.8287 0.5 30V1.99998C0.5 1.17133 1.17203 0.5 1.99998 0.5Z" stroke="#E8E9EB"/>
<path d="M24.4002 7.5999H18.9837C17.9991 7.5999 17.2002 6.80175 17.2002 5.81819V0.399902" stroke="#E8E9EB"/>
<path d="M7 19.8271V11.9253C7 10.9908 7.64716 10.1808 8.55863 9.97461L14.8443 8.55239C16.0954 8.26933 17.2857 9.22043 17.2857 10.5031V21.4271C17.2857 22.7318 16.0567 23.6872 14.7924 23.3653L8.50664 21.7653C7.62035 21.5397 7 20.7417 7 19.8271Z" fill="#325599"/>
<path d="M12.6029 17.7142L12.1306 16.1192C12.1081 16.0407 12.0811 15.9457 12.0496 15.8342C12.0182 15.7227 11.9867 15.6081 11.9552 15.4904C11.9237 15.3707 11.8945 15.2602 11.8675 15.159C11.8427 15.0579 11.8236 14.9794 11.8101 14.9237H11.7831C11.7719 14.9794 11.7539 15.0579 11.7291 15.159C11.7044 15.2602 11.6763 15.3707 11.6448 15.4904C11.6133 15.6102 11.5818 15.7269 11.5503 15.8404C11.5211 15.954 11.4941 16.051 11.4694 16.1316L10.9734 17.7142H10.103L9.05713 14.2856H9.86008L10.3459 15.9891C10.3774 16.1047 10.4078 16.2296 10.437 16.3638C10.4685 16.4981 10.4955 16.6261 10.518 16.7479C10.5405 16.8697 10.5573 16.9699 10.5686 17.0483H10.5956C10.6046 16.9926 10.6169 16.9224 10.6327 16.8377C10.6484 16.751 10.6664 16.6612 10.6866 16.5683C10.7069 16.4733 10.7271 16.3845 10.7474 16.3019C10.7676 16.2172 10.7867 16.1491 10.8047 16.0975L11.3783 14.2856H12.2453L12.7952 16.0975C12.82 16.176 12.847 16.2751 12.8762 16.3948C12.9055 16.5125 12.9313 16.6312 12.9538 16.751C12.9785 16.8687 12.9943 16.9668 13.001 17.0452H13.028C13.037 16.975 13.0528 16.88 13.0753 16.7603C13.1 16.6385 13.1281 16.5094 13.1596 16.3731C13.1911 16.2348 13.2237 16.1068 13.2574 15.9891L13.7534 14.2856H14.5428L13.4902 17.7142H12.6029Z" fill="white"/>
</svg>
