<svg width="144" height="39" viewBox="0 0 144 39" fill="none" xmlns="http://www.w3.org/2000/svg">
<g clip-path="url(#clip0_16088_22787)">
<path d="M40.9688 21.5959C40.9146 24.4083 39.1031 26.2745 36.1281 26.2745C34.2354 26.2745 33.0721 25.355 33.0721 23.8944C33.0721 22.164 34.4243 21.1902 36.804 21.1902H40.9687V21.5959H40.9688ZM47.8917 25.355C46.9993 25.355 46.5666 25.1384 46.5666 24.0568V16.7282C46.5666 11.7522 43.2136 9.18359 37.4265 9.18359C31.9366 9.18359 28.2321 11.8335 27.8266 15.8627H33.3159C33.5592 14.3486 35.0468 13.3481 37.264 13.3481C39.6437 13.3481 40.9689 14.5381 40.9689 16.4039V17.4046H36.8583C30.6384 17.4046 27.3397 19.8925 27.3397 24.2999C27.3397 28.2485 30.5577 30.3845 35.0468 30.3845C38.2648 30.3845 40.3742 29.0598 41.8072 26.7614C41.7801 28.7355 42.6997 30.1414 45.6474 30.1414H48.5406V25.355H47.8918H47.8917Z" fill="#11453B"/>
<path d="M50.7581 14.2131H60.6553L50.2983 26.2741V30.1414H68.7956V25.3548H57.9513L68.3088 13.2936V9.42676H50.7581V14.2131Z" fill="#11453B"/>
<path d="M70.4724 30.1414H76.2054V9.42676H70.4724V30.1414Z" fill="#11453B"/>
<path d="M73.3384 7.20931C75.1776 7.20931 76.6376 5.82993 76.6376 4.0183C76.6376 2.17918 75.1775 0.799805 73.3384 0.799805C71.4727 0.799805 70.0392 2.17918 70.0392 4.0183C70.0392 5.82993 71.4727 7.20931 73.3384 7.20931Z" fill="#11453B"/>
<path fill-rule="evenodd" clip-rule="evenodd" d="M89.1587 25.7606C86.0486 25.7606 84.1015 23.2998 84.1015 19.7303C84.1015 16.2415 86.0486 13.8077 89.1587 13.8077C92.2414 13.8077 94.2696 16.2415 94.2696 19.7303C94.2696 23.2998 92.2413 25.7606 89.1587 25.7606ZM90.4021 9.18373C87.455 9.18373 85.3725 10.5088 84.0208 12.2933V9.42681H78.5033V38.1999H84.1822V27.5186C85.5076 29.2218 87.5632 30.3846 90.4297 30.3846C95.9998 30.3846 100.03 26.2745 100.03 19.8115C100.03 13.2938 95.9999 9.15664 90.4023 9.18373H90.4021Z" fill="#11453B"/>
<path d="M114.443 21.5959C114.389 24.4083 112.577 26.2745 109.603 26.2745C107.709 26.2745 106.546 25.355 106.546 23.8944C106.546 22.164 107.899 21.1902 110.278 21.1902H114.443V21.5959H114.443ZM121.366 25.355C120.474 25.355 120.041 25.1384 120.041 24.0568V16.7282C120.041 11.7522 116.688 9.18359 110.873 9.18359C105.411 9.18359 101.707 11.8335 101.301 15.8627H106.763C107.007 14.3486 108.521 13.3481 110.711 13.3481C113.091 13.3481 114.443 14.5381 114.443 16.4039V17.4046H110.333C104.113 17.4046 100.814 19.8925 100.814 24.2999C100.814 28.2485 104.032 30.3845 108.521 30.3845C111.739 30.3845 113.821 29.0598 115.282 26.7614C115.227 28.7355 116.174 30.1414 119.094 30.1414H122.015V25.355H121.366Z" fill="#11453B"/>
<path d="M129.073 30.249L128.559 31.6284C127.992 33.0343 127.505 33.4129 126.044 33.4129H122.908V38.1993H128.424C131.642 38.1993 132.697 36.4962 133.994 33.0885L143.189 9.42676H137.105L132.183 24.1645L127.153 9.42676H121.096L129.073 30.249H129.073Z" fill="#11453B"/>
<path fill-rule="evenodd" clip-rule="evenodd" d="M25.5005 24.4889C18.388 26.0844 8.54483 19.1886 0.810791 21.5952V27.1658C8.54483 24.759 18.388 31.655 25.5005 30.0595V24.4889Z" fill="#11453B"/>
<path fill-rule="evenodd" clip-rule="evenodd" d="M25.5005 15.2673C18.388 16.8627 8.54483 9.9669 0.810791 12.3736V17.9447C8.54483 15.5375 18.388 22.4333 25.5005 20.8649V15.2672V15.2673Z" fill="#11453B"/>
<path fill-rule="evenodd" clip-rule="evenodd" d="M25.5005 6.12715C18.388 7.69557 8.54483 0.799643 0.810791 3.20658V8.80411C8.54483 6.39745 18.388 13.2934 25.5005 11.6979V6.12729V6.12715Z" fill="#11453B"/>
</g>
<defs>
<clipPath id="clip0_16088_22787">
<rect width="142.378" height="37.4" fill="white" transform="translate(0.810791 0.799805)"/>
</clipPath>
</defs>
</svg>
