<svg width="40" height="40" viewBox="0 0 40 40" fill="none" xmlns="http://www.w3.org/2000/svg">
<rect width="40" height="40" rx="20" fill="white"/>
<path d="M22.135 10C22.5342 10.0783 22.9413 10.1292 23.3327 10.2427C25.6614 10.9002 27.4031 12.9589 27.6888 15.362C28.0567 18.4775 26.1154 21.3268 23.1096 22.0822C19.7436 22.9276 16.2916 20.6888 15.6888 17.2681C15.1644 14.3092 16.7103 11.499 19.4853 10.4188C19.9824 10.227 20.5264 10.1605 21.0509 10.0352C21.1017 10.0235 21.1526 10.0117 21.1996 10C21.5088 10 21.8219 10 22.135 10ZM26.5655 16.1252C26.5577 13.3777 24.3542 11.1624 21.6379 11.1742C18.9374 11.182 16.7417 13.4207 16.7495 16.1487C16.7573 18.8767 18.9726 21.0998 21.6732 21.092C24.3698 21.0841 26.5734 18.8493 26.5655 16.1252Z" fill="#359AA0"/>
<path d="M13.454 24.2464C13.4932 24.0859 13.5166 23.945 13.5636 23.812C13.8337 23.0488 14.409 22.673 15.1761 22.5008C16.4834 22.2073 17.728 22.3403 18.9296 22.9548C19.3601 23.174 19.8141 23.3658 20.2759 23.5223C20.5538 23.6163 20.8591 23.6515 21.1566 23.6632C21.7476 23.6828 22.3425 23.6671 22.9335 23.6711C23.364 23.6711 23.5949 23.9098 23.5832 24.3403C23.5675 24.9235 23.3836 25.448 23.0313 25.9607C23.3209 25.9607 23.5832 25.9685 23.8415 25.9568C23.8924 25.9529 23.9432 25.8824 23.9902 25.8354C24.5382 25.2875 25.0822 24.7356 25.6341 24.1955C26.7025 23.1505 28.3816 23.1192 29.4932 24.1172C29.8454 24.4343 29.8571 24.7748 29.5245 25.1075C28.1546 26.4812 26.7808 27.8511 25.411 29.221C24.8826 29.7493 24.2446 30.0077 23.501 30.0077C19.5636 30.0077 15.6262 30.0077 11.6888 30.0077C11.2231 29.9998 11 29.7767 11 29.3149C11 27.8511 11 26.3873 11 24.9196C11 24.4617 11.2192 24.2464 11.6849 24.2464C12.2681 24.2425 12.8552 24.2464 13.454 24.2464ZM14.636 28.8296C14.7299 28.8296 14.8004 28.8296 14.8708 28.8296C17.7202 28.8296 20.5734 28.8257 23.4227 28.8335C23.9002 28.8335 24.2916 28.6769 24.6282 28.3364C25.7945 27.1623 26.9648 25.9959 28.135 24.8257C28.1742 24.7865 28.2055 24.7435 28.2524 24.6926C28.2055 24.673 28.1781 24.6534 28.1468 24.6456C27.4853 24.4382 26.9022 24.5752 26.4051 25.0644C25.8141 25.6515 25.2192 26.2347 24.6399 26.8335C24.4325 27.0448 24.2094 27.1388 23.9159 27.1349C22.0881 27.127 20.2564 27.127 18.4286 27.127C18.1859 27.127 17.9472 27.1309 17.7045 27.1192C17.4775 27.1075 17.3131 26.9822 17.2192 26.7787C17.1292 26.5791 17.1487 26.3834 17.2779 26.2034C17.4149 26.0077 17.6145 25.9489 17.8415 25.9489C18.7065 25.9529 19.5714 25.9529 20.4403 25.9529C20.6086 25.9529 20.7808 25.9529 20.9452 25.9372C21.544 25.8707 22.135 25.3853 22.2838 24.8335C21.9276 24.8335 21.5793 24.8296 21.2309 24.8335C20.6791 24.8413 20.1389 24.7552 19.6301 24.5439C19.1605 24.3521 18.6947 24.1525 18.2407 23.9255C17.2661 23.4441 16.2681 23.4127 15.2387 23.6945C14.816 23.808 14.636 24.0507 14.636 24.4852C14.636 25.5184 14.636 26.5556 14.636 27.5889C14.636 27.9959 14.636 28.399 14.636 28.8296ZM13.454 28.8178C13.454 27.6789 13.454 26.5556 13.454 25.4284C13.0235 25.4284 12.6086 25.4284 12.182 25.4284C12.182 26.5634 12.182 27.6867 12.182 28.8178C12.6086 28.8178 13.0235 28.8178 13.454 28.8178Z" fill="#359AA0"/>
<path d="M22.6216 14.377C22.6216 14.2259 22.6253 14.0745 22.6216 13.9235C22.6187 13.8435 22.6488 13.8219 22.7247 13.823C22.9399 13.827 23.1554 13.8285 23.3703 13.823C23.4619 13.8205 23.488 13.8512 23.4865 13.9403C23.4817 14.2241 23.4891 14.5082 23.4828 14.7924C23.4806 14.8965 23.5052 14.939 23.6185 14.9346C23.8656 14.9287 23.8659 14.9346 23.8659 15.189C23.8659 15.3401 23.8626 15.4915 23.8659 15.6425C23.8681 15.7159 23.8487 15.7452 23.7677 15.7467C23.4839 15.7525 23.4839 15.7562 23.4839 16.0469C23.4839 16.1888 23.4876 16.331 23.4839 16.4729C23.4814 16.5507 23.5077 16.5741 23.5855 16.5767C23.8659 16.5847 23.8659 16.5877 23.8659 16.8659C23.8659 17.0078 23.8626 17.1501 23.8659 17.292C23.8685 17.3689 23.8428 17.3928 23.7644 17.3942C23.4836 17.4001 23.4839 17.4034 23.4839 17.6835C23.4839 17.8987 23.4806 18.1143 23.4839 18.3291C23.4839 18.4142 23.4557 18.4391 23.3739 18.4373C23.136 18.4325 22.8973 18.4321 22.6594 18.4373C22.6259 18.4405 22.5922 18.4334 22.5629 18.417C22.5335 18.4005 22.5099 18.3755 22.4952 18.3452C22.325 18.0629 22.1476 17.7851 21.979 17.502C21.932 17.4228 21.8818 17.3873 21.785 17.3891C21.4598 17.3961 21.1346 17.3946 20.8094 17.3891C20.7193 17.3891 20.6929 17.4151 20.6947 17.5046C20.7002 17.7748 20.6925 18.045 20.6987 18.3152C20.7009 18.4134 20.669 18.4398 20.5741 18.4365C20.368 18.4299 20.1616 18.4285 19.956 18.4365C19.8478 18.4413 19.8254 18.3999 19.8273 18.3027C19.8331 18.0417 19.8247 17.7807 19.8313 17.5196C19.8339 17.4192 19.8086 17.3851 19.7026 17.3876C19.4588 17.3935 19.4585 17.3876 19.4585 17.1468C19.4585 16.9866 19.4614 16.826 19.4585 16.6658C19.4585 16.5924 19.4838 16.5737 19.5538 16.5712C19.8306 16.5602 19.8306 16.5576 19.8306 16.2779C19.8306 16.136 19.8265 15.9938 19.8306 15.8519C19.8335 15.7698 19.8082 15.7419 19.7228 15.7419C19.4585 15.7393 19.4585 15.7357 19.4585 15.4662C19.4585 15.3243 19.4629 15.1821 19.4585 15.0402C19.4548 14.9566 19.4812 14.9302 19.5662 14.9302C19.8313 14.9262 19.8313 14.9221 19.8313 14.6501C19.8313 14.4118 19.8339 14.1735 19.8313 13.9356C19.8313 13.8553 19.8511 13.8212 19.9391 13.8234C20.1726 13.8289 20.4062 13.8281 20.6397 13.8234C20.6711 13.8209 20.7026 13.828 20.7298 13.8439C20.7571 13.8597 20.7789 13.8835 20.7922 13.9121C20.9755 14.2179 21.1669 14.52 21.3502 14.8264C21.3949 14.8998 21.4422 14.9364 21.5335 14.9364C21.8587 14.9306 22.1839 14.9313 22.5091 14.9364C22.5985 14.9364 22.6297 14.9104 22.6257 14.8195C22.6187 14.6728 22.6257 14.5262 22.6257 14.3795L22.6216 14.377ZM21.9122 15.7445C22.0827 16.0227 22.2389 16.279 22.3973 16.5342C22.4409 16.6042 22.5139 16.573 22.5736 16.5708C22.6469 16.5679 22.6198 16.5034 22.6202 16.4634C22.6227 16.2574 22.6202 16.0513 22.6202 15.8453C22.6202 15.7954 22.6297 15.7426 22.5494 15.7437C22.3467 15.7463 22.1425 15.7445 21.9122 15.7445ZM21.4015 16.5737L20.9161 15.787C20.8721 15.7155 20.8006 15.7448 20.7416 15.7474C20.6683 15.7511 20.6984 15.8159 20.698 15.8548C20.6951 16.0605 20.698 16.2662 20.698 16.4718C20.698 16.5202 20.6848 16.5756 20.7666 16.5745C20.9689 16.5723 21.1724 16.5737 21.4015 16.5737Z" fill="#359AA0"/>
</svg>
