<svg width="16" height="16" viewBox="0 0 16 16" fill="none" xmlns="http://www.w3.org/2000/svg">
<path d="M14.0003 6.16699H14.0002H13.3335H12.8335V6.66699V11.4565V11.8105L13.1674 11.9281C13.4589 12.0308 13.7114 12.2211 13.8904 12.4731C14.0692 12.7249 14.1658 13.0258 14.1668 13.3346V14.667V14.6671C14.1668 14.689 14.1625 14.7107 14.1542 14.7309L14.6161 14.9221L14.1542 14.7309C14.1458 14.7511 14.1335 14.7694 14.1181 14.7849L14.4716 15.1384L14.1181 14.7849C14.1026 14.8004 14.0842 14.8126 14.064 14.821L14.2553 15.283L14.064 14.821C14.0438 14.8294 14.0222 14.8337 14.0003 14.8337H14.0002H2.00016H2.00003C1.97816 14.8337 1.95651 14.8294 1.93629 14.821C1.91609 14.8126 1.89773 14.8004 1.88226 14.7849L1.52928 15.1379L1.88226 14.7849C1.8668 14.7694 1.85453 14.7511 1.84616 14.7309L1.38452 14.922L1.84616 14.7309C1.83779 14.7107 1.83349 14.689 1.8335 14.6671V14.667V13.3345C1.83459 13.0257 1.93116 12.7248 2.10998 12.4731C2.28893 12.2211 2.54147 12.0308 2.83295 11.9281L3.16683 11.8105V11.4565V6.66699V6.16699H2.66683H2.00016H2.00003C1.97816 6.167 1.9565 6.16269 1.9363 6.15433L1.74501 6.61629L1.93629 6.15433C1.91609 6.14596 1.89773 6.13369 1.88226 6.11823C1.8668 6.10276 1.85453 6.0844 1.84616 6.06419C1.83779 6.04398 1.83349 6.02233 1.8335 6.00045V6.00032L1.8335 4.00032L1.8335 4.00012C1.83348 3.96526 1.84444 3.93129 1.86483 3.90301L1.45923 3.61062L1.86483 3.90301C1.88521 3.87474 1.91398 3.8536 1.94705 3.8426L1.94734 3.84251L7.94711 1.84258C7.94715 1.84257 7.94718 1.84256 7.94722 1.84254C7.98159 1.83113 8.01872 1.83113 8.05309 1.84254C8.05313 1.84255 8.05317 1.84257 8.05321 1.84258L14.053 3.84251L14.0533 3.8426C14.0863 3.8536 14.1151 3.87474 14.1355 3.90301L14.5351 3.61492L14.1355 3.90302C14.1559 3.93129 14.1668 3.96526 14.1668 4.00012V4.00032V6.00032V6.00045C14.1668 6.02232 14.1625 6.04398 14.1542 6.06419C14.1458 6.0844 14.1335 6.10276 14.1181 6.11822L14.4716 6.47178L14.1181 6.11823C14.1026 6.13369 14.0842 6.14596 14.064 6.15433L14.2553 6.61629L14.064 6.15433C14.0438 6.16269 14.0222 6.167 14.0003 6.16699ZM13.3335 14.5003H13.8335V14.0003V13.3337V13.3332C13.8332 13.024 13.7102 12.7275 13.4916 12.5089C13.273 12.2903 12.9765 12.1673 12.6673 12.167H12.6668H3.3335H3.333C3.0238 12.1673 2.72736 12.2903 2.50873 12.5089C2.2901 12.7275 2.16714 13.024 2.16683 13.3332V13.3337V14.0003V14.5003H2.66683H13.3335ZM3.50016 11.3337V11.8337H4.00016H5.3335H5.8335V11.3337V6.66699V6.16699H5.3335H4.00016H3.50016V6.66699V11.3337ZM6.16683 11.3337V11.8337H6.66683H9.3335H9.8335V11.3337V6.66699V6.16699H9.3335H6.66683H6.16683V6.66699V11.3337ZM10.1668 11.3337V11.8337H10.6668H12.0002H12.5002V11.3337V6.66699V6.16699H12.0002H10.6668H10.1668V6.66699V11.3337ZM2.16683 5.33366V5.83366H2.66683H13.3335H13.8335V5.33366V4.48079V4.12043L13.4916 4.00645L8.15829 2.22845L8.00016 2.17574L7.84203 2.22845L2.5087 4.00645L2.16683 4.12043V4.48079V5.33366Z" fill="#11453B" stroke="#11453B"/>
</svg>
