<svg width="21" height="20" viewBox="0 0 21 20" fill="none" xmlns="http://www.w3.org/2000/svg">
<path d="M16.5797 10.8333C16.3964 10.8333 16.2047 10.775 16.0214 10.7333C15.6501 10.6515 15.2853 10.5429 14.9297 10.4083C14.5431 10.2677 14.1182 10.275 13.7366 10.4288C13.3551 10.5827 13.044 10.8722 12.8631 11.2416L12.6797 11.6166C11.8681 11.1651 11.1222 10.6043 10.4631 9.94997C9.8087 9.29082 9.24791 8.54497 8.79639 7.7333L9.14639 7.49997C9.51586 7.31907 9.80537 7.00791 9.95922 6.62638C10.1131 6.24485 10.1204 5.8199 9.97972 5.4333C9.84741 5.07699 9.73884 4.7123 9.65472 4.34164C9.61306 4.1583 9.57972 3.96664 9.55472 3.77497C9.45353 3.18799 9.14608 2.65642 8.68774 2.276C8.2294 1.89559 7.6503 1.69131 7.05472 1.69997H4.55472C4.19558 1.6966 3.83993 1.77065 3.51198 1.91708C3.18403 2.06351 2.89148 2.27888 2.65425 2.54854C2.41701 2.81819 2.24067 3.1358 2.13721 3.47973C2.03376 3.82367 2.00562 4.18585 2.05472 4.54164C2.49867 8.03279 4.09308 11.2765 6.5861 13.7605C9.07912 16.2445 12.3286 17.8271 15.8214 18.2583H16.1381C16.7526 18.2592 17.3459 18.0337 17.8047 17.625C18.0684 17.3892 18.279 17.1001 18.4226 16.7769C18.5663 16.4537 18.6397 16.1037 18.6381 15.75V13.25C18.6278 12.6711 18.4171 12.1138 18.0417 11.673C17.6663 11.2323 17.1496 10.9355 16.5797 10.8333ZM16.9964 15.8333C16.9962 15.9516 16.9709 16.0686 16.922 16.1763C16.8732 16.2841 16.8019 16.3802 16.7131 16.4583C16.6199 16.5387 16.5111 16.5988 16.3934 16.6346C16.2757 16.6705 16.1519 16.6814 16.0297 16.6666C12.9088 16.2665 10.0099 14.8387 7.79032 12.6085C5.57072 10.3784 4.15673 7.47275 3.77139 4.34997C3.75813 4.2279 3.76975 4.10441 3.80556 3.98696C3.84137 3.86951 3.90061 3.76054 3.97972 3.66664C4.05781 3.57775 4.15394 3.50651 4.2617 3.45765C4.36947 3.4088 4.4864 3.38345 4.60472 3.3833H7.10472C7.29851 3.37899 7.48774 3.44237 7.63984 3.56253C7.79194 3.68269 7.8974 3.85211 7.93806 4.04164C7.97139 4.26942 8.01306 4.49442 8.06306 4.71664C8.15932 5.15593 8.28744 5.58762 8.44639 6.00831L7.27972 6.54997C7.17997 6.59574 7.09024 6.66076 7.01569 6.7413C6.94113 6.82184 6.88322 6.91632 6.84528 7.0193C6.80734 7.12228 6.79012 7.23175 6.7946 7.34141C6.79908 7.45107 6.82517 7.55876 6.87139 7.6583C8.07072 10.2273 10.1358 12.2923 12.7047 13.4916C12.9076 13.575 13.1352 13.575 13.3381 13.4916C13.442 13.4545 13.5375 13.397 13.619 13.3226C13.7006 13.2482 13.7665 13.1584 13.8131 13.0583L14.3297 11.8916C14.7605 12.0457 15.2002 12.1737 15.6464 12.275C15.8686 12.325 16.0936 12.3666 16.3214 12.4C16.5109 12.4406 16.6803 12.5461 16.8005 12.6982C16.9207 12.8503 16.984 13.0395 16.9797 13.2333L16.9964 15.8333Z" fill="#515251"/>
</svg>
