<svg width="24" height="24" viewBox="0 0 24 24" fill="none" xmlns="http://www.w3.org/2000/svg">
<path d="M10.7543 3.45879C11.4721 2.84707 12.5279 2.84707 13.2457 3.45879L14.4667 4.49929C14.7743 4.76143 15.1567 4.91985 15.5596 4.952L17.1587 5.07961C18.0988 5.15463 18.8454 5.90117 18.9204 6.8413L19.048 8.4404C19.0802 8.84327 19.2386 9.22573 19.5007 9.53333L20.5412 10.7543C21.1529 11.4721 21.1529 12.5279 20.5412 13.2457L19.5007 14.4667C19.2386 14.7743 19.0802 15.1567 19.048 15.5596L18.9204 17.1587C18.8454 18.0988 18.0988 18.8454 17.1587 18.9204L15.5596 19.048C15.1567 19.0802 14.7743 19.2386 14.4667 19.5007L13.2457 20.5412C12.5279 21.1529 11.4721 21.1529 10.7543 20.5412L9.53333 19.5007C9.22573 19.2386 8.84327 19.0802 8.4404 19.048L6.8413 18.9204C5.90117 18.8454 5.15463 18.0988 5.07961 17.1587L4.952 15.5596C4.91985 15.1567 4.76143 14.7743 4.49929 14.4667L3.45879 13.2457C2.84707 12.5279 2.84707 11.4721 3.45879 10.7543L4.49929 9.53333C4.76143 9.22573 4.91985 8.84327 4.952 8.4404L5.07961 6.8413C5.15463 5.90117 5.90117 5.15463 6.8413 5.07961L8.4404 4.952C8.84327 4.91985 9.22573 4.76143 9.53333 4.49929L10.7543 3.45879Z" fill="#E43838" stroke="#EF4444" stroke-width="2" stroke-linecap="round" stroke-linejoin="round"/>
<path d="M13.0855 12.0027L15.8812 9.21352L15.8812 9.21344C16.0255 9.06915 16.1066 8.87345 16.1066 8.66939C16.1066 8.46534 16.0255 8.26964 15.8812 8.12535C15.737 7.98106 15.5413 7.9 15.3372 7.9C15.1331 7.9 14.9374 7.98106 14.7932 8.12535L14.7931 8.12543L12.0039 10.9211L9.21466 8.12543L9.21458 8.12535C9.07029 7.98106 8.87459 7.9 8.67053 7.9C8.46648 7.9 8.27078 7.98106 8.12649 8.12535C7.9822 8.26964 7.90114 8.46534 7.90114 8.66939C7.90114 8.87345 7.9822 9.06915 8.12649 9.21344L8.12657 9.21352L10.9223 12.0027L8.12678 14.7917C8.12674 14.7918 8.12669 14.7918 8.12665 14.7919C8.05485 14.8631 7.99786 14.9478 7.95896 15.0412C7.92004 15.1346 7.9 15.2349 7.9 15.3361C7.9 15.4373 7.92004 15.5375 7.95896 15.6309C7.99783 15.7242 8.05477 15.8089 8.12649 15.8801C8.1977 15.9518 8.28239 16.0088 8.37569 16.0476C8.46912 16.0866 8.56932 16.1066 8.67053 16.1066C8.77174 16.1066 8.87195 16.0866 8.96537 16.0476C9.05877 16.0087 9.14355 15.9517 9.2148 15.8799C9.21482 15.8799 9.21485 15.8798 9.21487 15.8798L12.0039 13.0843L14.7929 15.8798C14.7929 15.8798 14.7929 15.8799 14.7929 15.8799C14.8642 15.9517 14.949 16.0087 15.0424 16.0476C15.1358 16.0866 15.236 16.1066 15.3372 16.1066C15.4384 16.1066 15.5386 16.0866 15.632 16.0476C15.7253 16.0088 15.81 15.9518 15.8812 15.8801C15.953 15.8089 16.0099 15.7242 16.0488 15.6309C16.0877 15.5375 16.1077 15.4373 16.1077 15.3361C16.1077 15.2349 16.0877 15.1346 16.0488 15.0412C16.0099 14.9478 15.9529 14.8631 15.881 14.7918C15.881 14.7918 15.881 14.7918 15.881 14.7917L14.4478 13.3619L13.0855 12.0027Z" fill="white" stroke="white" stroke-width="0.2"/>
</svg>
