<svg width="67" height="49" viewBox="0 0 67 49" fill="none" xmlns="http://www.w3.org/2000/svg">
<path d="M61.72 42.76C58.68 46.6 54.68 48.52 49.56 48.52C45.72 48.52 42.36 47.4 39.64 44.84C36.92 42.28 35.48 39.24 35.48 35.72C35.48 31.88 36.6 28.84 38.68 26.76C40.76 24.68 43.32 23.56 46.36 23.56C48.12 23.56 49.88 24.04 51.48 24.84C51.64 24.52 51.64 23.72 51.64 22.6C51.64 19.56 50.36 17 47.8 14.92C45.24 13 41.4 11.88 36.44 11.72V0.0399952C45.72 0.199993 53.08 2.59999 58.36 7.24C63.8 12.04 66.36 18.76 66.36 27.56C66.36 33.8 64.92 38.92 61.72 42.76ZM27 42.76C23.96 46.6 19.96 48.52 14.84 48.52C11 48.52 7.64 47.4 4.92 44.84C2.2 42.28 0.759998 39.24 0.759998 35.72C0.759998 31.88 1.88 28.84 3.96 26.76C6.04 24.68 8.6 23.56 11.64 23.56C13.4 23.56 15.16 24.04 16.76 24.84C16.92 24.52 16.92 23.72 16.92 22.6C16.92 19.56 15.64 17 13.08 14.92C10.52 13 6.68 11.88 1.72 11.72V0.0399952C11 0.199993 18.36 2.59999 23.64 7.24C29.08 12.04 31.64 18.76 31.64 27.56C31.64 33.8 30.2 38.92 27 42.76Z" fill="#B4A572"/>
</svg>
