<svg width="18" height="18" viewBox="0 0 18 18" fill="none" xmlns="http://www.w3.org/2000/svg">
<path d="M8.3728 4.63576C8.63138 4.59612 8.89263 4.5764 9.15423 4.57678C11.4985 4.57678 13.7027 6.26495 14.9854 8.99993C14.7892 9.41614 14.5677 9.8199 14.3219 10.2089C14.2439 10.3297 14.2029 10.4706 14.204 10.6144C14.2056 10.7753 14.2599 10.9312 14.3584 11.0584C14.4569 11.1856 14.5944 11.277 14.7498 11.3188C14.9051 11.3605 15.0699 11.3503 15.2189 11.2897C15.368 11.2291 15.4931 11.1214 15.5752 10.983C15.9186 10.4433 16.217 9.87619 16.4672 9.28744C16.5067 9.19545 16.5271 9.09637 16.5271 8.99624C16.5271 8.89612 16.5067 8.79704 16.4672 8.70505C14.978 5.24763 12.1767 3.1024 9.15423 3.1024C8.80824 3.10066 8.4628 3.13026 8.12216 3.19086C8.02535 3.20732 7.93273 3.24268 7.84959 3.29494C7.76645 3.34719 7.69441 3.41531 7.63759 3.4954C7.58078 3.57549 7.54029 3.66599 7.51845 3.76173C7.4966 3.85746 7.49383 3.95657 7.51029 4.05338C7.52675 4.15019 7.56211 4.24281 7.61437 4.32595C7.66662 4.40909 7.73473 4.48113 7.81483 4.53794C7.89492 4.59476 7.98542 4.63525 8.08115 4.65709C8.17689 4.67893 8.276 4.6817 8.3728 4.66525V4.63576ZM3.04291 1.8418C2.97418 1.77307 2.89258 1.71854 2.80277 1.68134C2.71296 1.64415 2.61671 1.625 2.5195 1.625C2.4223 1.625 2.32605 1.64415 2.23624 1.68134C2.14643 1.71854 2.06483 1.77307 1.9961 1.8418C1.85728 1.98062 1.7793 2.16889 1.7793 2.36521C1.7793 2.56152 1.85728 2.7498 1.9961 2.88861L4.28139 5.16654C3.23869 6.17024 2.40882 7.37368 1.84129 8.70505C1.8007 8.79806 1.77974 8.89845 1.77974 8.99993C1.77974 9.10141 1.8007 9.2018 1.84129 9.29481C3.33042 12.7522 6.13174 14.8975 9.15423 14.8975C10.479 14.8883 11.7726 14.4939 12.877 13.7622L15.2655 16.1581C15.3341 16.2272 15.4156 16.282 15.5054 16.3194C15.5953 16.3569 15.6916 16.3761 15.789 16.3761C15.8863 16.3761 15.9826 16.3569 16.0725 16.3194C16.1623 16.282 16.2438 16.2272 16.3124 16.1581C16.3815 16.0895 16.4363 16.008 16.4737 15.9182C16.5111 15.8283 16.5304 15.732 16.5304 15.6347C16.5304 15.5373 16.5111 15.441 16.4737 15.3511C16.4363 15.2613 16.3815 15.1798 16.3124 15.1112L3.04291 1.8418ZM7.73145 8.61659L9.53757 10.4227C9.41297 10.4584 9.28384 10.4758 9.15423 10.4743C8.7632 10.4743 8.38818 10.319 8.11168 10.0425C7.83518 9.76598 7.67984 9.39096 7.67984 8.99993C7.67834 8.87032 7.69572 8.74119 7.73145 8.61659ZM9.15423 13.4231C6.80996 13.4231 4.60576 11.7349 3.33042 8.99993C3.80671 7.94851 4.4827 6.99962 5.32083 6.20598L6.62566 7.52555C6.31917 8.08493 6.20232 8.7286 6.29264 9.36002C6.38296 9.99143 6.67558 10.5765 7.1266 11.0276C7.57762 11.4786 8.16273 11.7712 8.79414 11.8615C9.42556 11.9518 10.0692 11.835 10.6286 11.5285L11.8007 12.6859C10.998 13.1583 10.0856 13.4125 9.15423 13.4231Z" fill="#DBE9CF"/>
</svg>
