<svg width="16" height="16" viewBox="0 0 16 16" fill="none" xmlns="http://www.w3.org/2000/svg">
<path d="M7.99992 13.8067L7.64637 13.4531L4.5797 10.3864L4.57969 10.3864C4.07552 9.88224 3.68932 9.2726 3.44886 8.60135C3.20844 7.93024 3.11967 7.2142 3.18892 6.5047L7.99992 13.8067ZM7.99992 13.8067L8.35347 13.4531M7.99992 13.8067L8.35347 13.4531M8.35347 13.4531L11.42 10.3866C11.4201 10.3865 11.4201 10.3865 11.4201 10.3864C11.9263 9.88062 12.3136 9.26859 12.5542 8.59464C12.7947 7.9207 12.8823 7.20172 12.8108 6.48974C12.739 5.77267 12.5092 5.0804 12.1381 4.46267C11.7669 3.84494 11.2636 3.31708 10.6642 2.91701L10.6632 2.91641C9.87396 2.3921 8.94748 2.11242 7.99992 2.11242C7.05236 2.11242 6.12588 2.3921 5.33659 2.9164L5.33552 2.91712M8.35347 13.4531L5.33552 2.91712M5.33552 2.91712C4.73429 3.31874 4.22982 3.84894 3.85857 4.46939C3.48735 5.08981 3.25862 5.78496 3.18893 6.50459L5.33552 2.91712ZM13.1422 6.46738L13.1423 6.46834C13.2167 7.22759 13.1212 7.99389 12.8627 8.71164C12.6042 9.42939 12.1892 10.0806 11.6477 10.618L11.6454 10.6203L8.12537 14.1603L8.12492 14.1608C8.10943 14.1764 8.09099 14.1888 8.07068 14.1973L8.26297 14.6588L8.07068 14.1973C8.05038 14.2057 8.02859 14.2101 8.00659 14.2101C7.98458 14.2101 7.9628 14.2057 7.94249 14.1973L7.7502 14.6588L7.94249 14.1973C7.92218 14.1888 7.90375 14.1764 7.88826 14.1608L7.88714 14.1597L4.35381 10.6197L4.35214 10.618C3.81068 10.0806 3.39563 9.42939 3.13712 8.71164C2.87864 7.99399 2.78312 7.22781 2.8575 6.46867C2.9335 5.70365 3.17797 4.96495 3.57336 4.30563C3.96864 3.64648 4.50495 3.08302 5.14378 2.65569C5.88707 2.16277 6.74531 1.87066 7.63498 1.80778C8.52496 1.74488 9.41607 1.91352 10.2215 2.29727C11.027 2.68102 11.7193 3.26682 12.2312 3.9976C12.743 4.72839 13.0569 5.57927 13.1422 6.46738ZM10.0786 8.38848L10.4943 8.66627L10.0786 8.38848C9.80389 8.7996 9.41344 9.12004 8.95663 9.30925C8.49981 9.49847 7.99715 9.54798 7.5122 9.45152C7.02724 9.35506 6.58179 9.11695 6.23215 8.76732C5.88252 8.41769 5.64442 7.97223 5.54796 7.48728C5.45149 7.00233 5.501 6.49966 5.69022 6.04285C5.87944 5.58603 6.19987 5.19558 6.61099 4.92088C7.02196 4.64628 7.5051 4.49967 7.99935 4.49956C8.66204 4.50117 9.29714 4.76513 9.76574 5.23373C10.2344 5.70236 10.4983 6.33749 10.4999 7.00021C10.4998 7.49444 10.3532 7.97754 10.0786 8.38848ZM9.80144 5.79582L9.3857 6.0736L9.80144 5.79582C9.56336 5.43951 9.22498 5.16181 8.82907 4.99782C8.43316 4.83383 7.99752 4.79092 7.57722 4.87452C7.15693 4.95812 6.77087 5.16448 6.46786 5.46749C6.16484 5.7705 5.95849 6.15657 5.87489 6.57686C5.79128 6.99715 5.83419 7.4328 5.99818 7.8287C6.16217 8.22461 6.43988 8.563 6.79618 8.80107C7.15249 9.03915 7.57139 9.16622 7.99992 9.16622C8.57456 9.16622 9.12566 8.93795 9.53198 8.53162C9.93831 8.12529 10.1666 7.57419 10.1666 6.99956C10.1666 6.57103 10.0395 6.15213 9.80144 5.79582Z" fill="#11453B" stroke="#11453B"/>
</svg>
