<svg width="22" height="20" viewBox="0 0 22 20" fill="none" xmlns="http://www.w3.org/2000/svg">
<path d="M9.46 3.99501L10 3.40501V6.99501C10 7.26023 10.1054 7.51458 10.2929 7.70212C10.4804 7.88966 10.7348 7.99501 11 7.99501C11.2652 7.99501 11.5196 7.88966 11.7071 7.70212C11.8946 7.51458 12 7.26023 12 6.99501V3.40501L12.54 3.95501C12.6308 4.05754 12.7416 4.14032 12.8657 4.19825C12.9898 4.25617 13.1244 4.28799 13.2613 4.29174C13.3982 4.29549 13.5344 4.27109 13.6615 4.22005C13.7885 4.16901 13.9038 4.09241 14 3.99501C14.0937 3.90205 14.1681 3.79145 14.2189 3.66959C14.2697 3.54773 14.2958 3.41703 14.2958 3.28501C14.2958 3.153 14.2697 3.0223 14.2189 2.90044C14.1681 2.77858 14.0937 2.66798 14 2.57501L11.71 0.285014C11.6149 0.193973 11.5028 0.122608 11.38 0.0750135C11.1365 -0.0250045 10.8635 -0.0250045 10.62 0.0750135C10.4972 0.122608 10.3851 0.193973 10.29 0.285014L8 2.53501C7.80639 2.72862 7.69762 2.99121 7.69762 3.26501C7.69762 3.53882 7.80639 3.80141 8 3.99501C8.19361 4.18862 8.4562 4.29739 8.73 4.29739C9.0038 4.29739 9.26639 4.18862 9.46 3.99501V3.99501ZM11 9.99501C10.4067 9.99501 9.82664 10.171 9.33329 10.5006C8.83994 10.8302 8.45542 11.2988 8.22836 11.847C8.0013 12.3951 7.94189 12.9983 8.05764 13.5803C8.1734 14.1622 8.45912 14.6968 8.87868 15.1163C9.29824 15.5359 9.83279 15.8216 10.4147 15.9374C10.9967 16.0531 11.5999 15.9937 12.1481 15.7667C12.6962 15.5396 13.1648 15.1551 13.4944 14.6617C13.8241 14.1684 14 13.5884 14 12.995C14 12.1994 13.6839 11.4363 13.1213 10.8737C12.5587 10.3111 11.7956 9.99501 11 9.99501ZM11 13.995C10.8022 13.995 10.6089 13.9364 10.4444 13.8265C10.28 13.7166 10.1518 13.5604 10.0761 13.3777C10.0004 13.195 9.98063 12.9939 10.0192 12.7999C10.0578 12.6059 10.153 12.4278 10.2929 12.2879C10.4327 12.1481 10.6109 12.0528 10.8049 12.0142C10.9989 11.9756 11.2 11.9954 11.3827 12.0711C11.5654 12.1468 11.7216 12.275 11.8315 12.4394C11.9414 12.6039 12 12.7972 12 12.995C12 13.2602 11.8946 13.5146 11.7071 13.7021C11.5196 13.8897 11.2652 13.995 11 13.995ZM4 12.995C4 13.1928 4.05865 13.3861 4.16853 13.5506C4.27841 13.715 4.43459 13.8432 4.61732 13.9189C4.80004 13.9946 5.00111 14.0144 5.19509 13.9758C5.38907 13.9372 5.56725 13.842 5.70711 13.7021C5.84696 13.5623 5.9422 13.3841 5.98079 13.1901C6.01937 12.9961 5.99957 12.7951 5.92388 12.6123C5.84819 12.4296 5.72002 12.2734 5.55557 12.1635C5.39112 12.0537 5.19778 11.995 5 11.995C4.73478 11.995 4.48043 12.1004 4.29289 12.2879C4.10536 12.4754 4 12.7298 4 12.995ZM18 12.995C18 12.7972 17.9414 12.6039 17.8315 12.4394C17.7216 12.275 17.5654 12.1468 17.3827 12.0711C17.2 11.9954 16.9989 11.9756 16.8049 12.0142C16.6109 12.0528 16.4327 12.1481 16.2929 12.2879C16.153 12.4278 16.0578 12.6059 16.0192 12.7999C15.9806 12.9939 16.0004 13.195 16.0761 13.3777C16.1518 13.5604 16.28 13.7166 16.4444 13.8265C16.6089 13.9364 16.8022 13.995 17 13.995C17.2652 13.995 17.5196 13.8897 17.7071 13.7021C17.8946 13.5146 18 13.2602 18 12.995ZM19 5.99501H15C14.7348 5.99501 14.4804 6.10037 14.2929 6.28791C14.1054 6.47544 14 6.7298 14 6.99501C14 7.26023 14.1054 7.51458 14.2929 7.70212C14.4804 7.88966 14.7348 7.99501 15 7.99501H19C19.2652 7.99501 19.5196 8.10037 19.7071 8.28791C19.8946 8.47544 20 8.7298 20 8.99501V16.995C20 17.2602 19.8946 17.5146 19.7071 17.7021C19.5196 17.8897 19.2652 17.995 19 17.995H3C2.73478 17.995 2.48043 17.8897 2.29289 17.7021C2.10536 17.5146 2 17.2602 2 16.995V8.99501C2 8.7298 2.10536 8.47544 2.29289 8.28791C2.48043 8.10037 2.73478 7.99501 3 7.99501H7C7.26522 7.99501 7.51957 7.88966 7.70711 7.70212C7.89464 7.51458 8 7.26023 8 6.99501C8 6.7298 7.89464 6.47544 7.70711 6.28791C7.51957 6.10037 7.26522 5.99501 7 5.99501H3C2.20435 5.99501 1.44129 6.31108 0.87868 6.87369C0.31607 7.4363 0 8.19936 0 8.99501V16.995C0 17.7907 0.31607 18.5537 0.87868 19.1163C1.44129 19.6789 2.20435 19.995 3 19.995H19C19.7956 19.995 20.5587 19.6789 21.1213 19.1163C21.6839 18.5537 22 17.7907 22 16.995V8.99501C22 8.19936 21.6839 7.4363 21.1213 6.87369C20.5587 6.31108 19.7956 5.99501 19 5.99501Z" fill="white"/>
</svg>
