<svg width="440" height="98" viewBox="0 0 440 98" fill="none" xmlns="http://www.w3.org/2000/svg">
<path d="M402.432 8.04951C414.354 0.996843 431.527 33.6574 438.624 50.8693V98H1V1C1 1 7.00394 2.34722 14.9713 14.3465C29.4934 36.2176 20.2936 8.04951 42.6471 4.27129C65.0006 0.493072 38.3893 50.8693 54.3561 54.6475C70.3229 58.4257 69.2584 55.9069 74.5807 72.2792C79.903 88.6515 90.5475 92.7909 103.321 83.9751C116.094 75.1592 109.708 42.0535 138.448 63.4633C167.188 84.8732 177.833 64.7227 195.928 50.8693C214.024 37.0158 211.895 19.3842 252.344 72.2792C292.794 125.174 302.374 72.2792 309.825 58.4257C317.276 44.5723 320.469 40.794 348.145 42.0534C375.821 43.3129 387.53 16.8653 402.432 8.04951Z" fill="url(#paint0_linear_926_3371)"/>
<path d="M438.624 50.8693C431.527 33.6574 414.354 0.996843 402.432 8.04951C387.53 16.8654 375.821 43.3129 348.145 42.0534C320.469 40.794 317.276 44.5723 309.825 58.4257C302.374 72.2792 292.794 125.174 252.344 72.2792C211.895 19.3842 214.024 37.0158 195.928 50.8693C177.833 64.7227 167.188 84.8732 138.448 63.4633C109.708 42.0535 116.094 76.0574 103.321 84.8732C90.5475 93.6891 79.903 88.6515 74.5807 72.2792C69.2584 55.9069 70.3229 58.4257 54.3561 54.6475C38.3893 50.8693 65.0006 0.493072 42.6471 4.27129C20.2936 8.04951 29.4934 36.2176 14.9713 14.3465C7.00395 2.34722 1 1 1 1" stroke="#EA4E4B" stroke-width="2"/>
<circle cx="220" cy="36" r="5" fill="#EA4E4B" stroke="white" stroke-width="2"/>
<defs>
<linearGradient id="paint0_linear_926_3371" x1="220.539" y1="-3.99265" x2="220.539" y2="98" gradientUnits="userSpaceOnUse">
<stop stop-color="#EA4E4B"/>
<stop offset="0.567708" stop-color="#FDEEEE" stop-opacity="0.15"/>
<stop offset="1" stop-color="white" stop-opacity="0"/>
</linearGradient>
</defs>
</svg>
