<svg width="41" height="40" viewBox="0 0 41 40" fill="none" xmlns="http://www.w3.org/2000/svg">
<rect x="0.399902" width="40" height="40" rx="20" fill="white"/>
<path d="M20.1632 22.7396L20.1632 22.7396C20.1323 22.7084 20.1079 22.6715 20.0913 22.6309C20.075 22.5909 20.0666 22.5481 20.0666 22.5049C20.0683 22.4149 20.1023 22.3287 20.1622 22.2619C20.1921 22.2352 20.2266 22.214 20.264 22.1995L20.2641 22.1997L20.2771 22.1942C20.3378 22.1687 20.4047 22.1617 20.4693 22.1742C20.5315 22.1862 20.589 22.2156 20.635 22.259C20.6965 22.3263 20.7315 22.4137 20.7333 22.5049C20.7332 22.5704 20.7139 22.6345 20.6777 22.6891C20.6411 22.7443 20.5889 22.7873 20.5277 22.8127C20.4666 22.8381 20.3993 22.8447 20.3344 22.8317C20.2694 22.8186 20.2099 22.7866 20.1632 22.7396ZM25.5778 24.9374L26.3871 24.0917H25.2166H23.2166C23.1282 24.0917 23.0434 24.0565 22.9809 23.994C22.9184 23.9315 22.8832 23.8467 22.8832 23.7583C22.8832 23.6699 22.9184 23.5851 22.9809 23.5226C23.0434 23.4601 23.1282 23.425 23.2166 23.425H26.9824C27.0663 23.429 27.1458 23.4645 27.2047 23.5247C27.2646 23.5858 27.2986 23.6675 27.2999 23.7529V27.5C27.2999 27.5884 27.2648 27.6732 27.2023 27.7357C27.1398 27.7982 27.055 27.8333 26.9666 27.8333C26.8782 27.8333 26.7934 27.7982 26.7309 27.7357C26.6684 27.6732 26.6332 27.5884 26.6332 27.5V26.025V24.862L25.7892 25.6621C24.6791 26.7146 23.2852 27.419 21.7794 27.6883C20.2736 27.9577 18.7219 27.7803 17.3157 27.1781C15.9096 26.5758 14.7105 25.575 13.8666 24.2992C13.0228 23.0236 12.5709 21.5289 12.5666 19.9995C12.5667 19.9113 12.6018 19.8267 12.6642 19.7643C12.7267 19.7018 12.8115 19.6667 12.8999 19.6667C12.9883 19.6667 13.0731 19.7018 13.1356 19.7643C13.1981 19.8268 13.2332 19.9116 13.2332 20L13.2332 20.0013C13.237 21.4306 13.668 22.8261 14.4709 24.0085C15.2738 25.191 16.412 26.1063 17.7391 26.637C19.0662 27.1676 20.5217 27.2893 21.9185 26.9865C23.3153 26.6836 24.5897 25.97 25.5778 24.9374ZM14.1666 13.975V15.1443L15.012 14.3365C16.4637 12.9493 18.3927 12.1726 20.4006 12.1667C21.4291 12.1668 22.4474 12.3694 23.3976 12.7629C24.348 13.1566 25.2115 13.7336 25.9389 14.461C26.6663 15.1884 27.2433 16.0519 27.637 17.0023C28.0306 17.9527 28.2332 18.9713 28.2332 20C28.2332 20.0884 28.1981 20.1732 28.1356 20.2357C28.0731 20.2982 27.9883 20.3333 27.8999 20.3333C27.8115 20.3333 27.7267 20.2982 27.6642 20.2357C27.6017 20.1732 27.5666 20.0884 27.5666 20L27.5666 19.9981C27.5611 18.5696 27.1288 17.1753 26.3252 15.9942C25.5216 14.8132 24.3833 13.8992 23.0566 13.3697C21.7298 12.8401 20.2751 12.7192 18.8791 13.0223C17.4832 13.3255 16.2096 14.0389 15.222 15.071L14.4128 15.9167H15.5832H17.5832C17.6716 15.9167 17.7564 15.9518 17.8189 16.0143C17.8815 16.0768 17.9166 16.1616 17.9166 16.25C17.9166 16.3384 17.8815 16.4232 17.8189 16.4857C17.7564 16.5482 17.6716 16.5833 17.5832 16.5833H13.8332C13.7448 16.5833 13.6601 16.5482 13.5975 16.4857C13.535 16.4232 13.4999 16.3384 13.4999 16.25V12.5C13.4999 12.4116 13.535 12.3268 13.5975 12.2643C13.6601 12.2018 13.7448 12.1667 13.8332 12.1667C13.9216 12.1667 14.0064 12.2018 14.0689 12.2643C14.1315 12.3268 14.1666 12.4116 14.1666 12.5V13.975ZM20.6356 20.2357C20.5731 20.2982 20.4883 20.3333 20.3999 20.3333C20.3115 20.3333 20.2267 20.2982 20.1642 20.2357C20.1017 20.1732 20.0666 20.0884 20.0666 20V17.5C20.0666 17.4116 20.1017 17.3268 20.1642 17.2643C20.2267 17.2018 20.3115 17.1667 20.3999 17.1667C20.4883 17.1667 20.5731 17.2018 20.6356 17.2643C20.6981 17.3268 20.7332 17.4116 20.7332 17.5V20C20.7332 20.0884 20.6981 20.1732 20.6356 20.2357Z" fill="#EA4E4B" stroke="#EA4E4B"/>
</svg>
