<svg width="16" height="16" viewBox="0 0 16 16" fill="none" xmlns="http://www.w3.org/2000/svg">
<path d="M9.33333 8H5.33333C5.15652 8 4.98695 8.07023 4.86193 8.19526C4.7369 8.32028 4.66667 8.48985 4.66667 8.66666C4.66667 8.84347 4.7369 9.01304 4.86193 9.13807C4.98695 9.26309 5.15652 9.33333 5.33333 9.33333H9.33333C9.51014 9.33333 9.67971 9.26309 9.80474 9.13807C9.92976 9.01304 10 8.84347 10 8.66666C10 8.48985 9.92976 8.32028 9.80474 8.19526C9.67971 8.07023 9.51014 8 9.33333 8ZM12.94 12.6667L13.8067 11.8067C13.9322 11.6811 14.0027 11.5109 14.0027 11.3333C14.0027 11.1558 13.9322 10.9855 13.8067 10.86C13.6811 10.7345 13.5109 10.6639 13.3333 10.6639C13.1558 10.6639 12.9855 10.7345 12.86 10.86L12 11.7267L11.14 10.86C11.0145 10.7345 10.8442 10.6639 10.6667 10.6639C10.4891 10.6639 10.3189 10.7345 10.1933 10.86C10.0678 10.9855 9.99727 11.1558 9.99727 11.3333C9.99727 11.5109 10.0678 11.6811 10.1933 11.8067L11.06 12.6667L10.1933 13.5267C10.1308 13.5886 10.0813 13.6624 10.0474 13.7436C10.0136 13.8249 9.99613 13.912 9.99613 14C9.99613 14.088 10.0136 14.1751 10.0474 14.2564C10.0813 14.3376 10.1308 14.4114 10.1933 14.4733C10.2553 14.5358 10.329 14.5854 10.4103 14.6193C10.4915 14.6531 10.5787 14.6705 10.6667 14.6705C10.7547 14.6705 10.8418 14.6531 10.9231 14.6193C11.0043 14.5854 11.078 14.5358 11.14 14.4733L12 13.6067L12.86 14.4733C12.922 14.5358 12.9957 14.5854 13.0769 14.6193C13.1582 14.6531 13.2453 14.6705 13.3333 14.6705C13.4213 14.6705 13.5085 14.6531 13.5897 14.6193C13.671 14.5854 13.7447 14.5358 13.8067 14.4733C13.8692 14.4114 13.9187 14.3376 13.9526 14.2564C13.9864 14.1751 14.0039 14.088 14.0039 14C14.0039 13.912 13.9864 13.8249 13.9526 13.7436C13.9187 13.6624 13.8692 13.5886 13.8067 13.5267L12.94 12.6667ZM8 13.3333H4C3.82319 13.3333 3.65362 13.2631 3.5286 13.1381C3.40357 13.013 3.33333 12.8435 3.33333 12.6667V3.33333C3.33333 3.15652 3.40357 2.98695 3.5286 2.86192C3.65362 2.7369 3.82319 2.66666 4 2.66666H7.33333V4.66666C7.33333 5.19709 7.54405 5.7058 7.91912 6.08088C8.29419 6.45595 8.8029 6.66666 9.33333 6.66666H11.3333V8.66666C11.3333 8.84347 11.4036 9.01304 11.5286 9.13807C11.6536 9.26309 11.8232 9.33333 12 9.33333C12.1768 9.33333 12.3464 9.26309 12.4714 9.13807C12.5964 9.01304 12.6667 8.84347 12.6667 8.66666V6C12.6667 6 12.6667 5.99999 12.6667 5.95999C12.6597 5.89875 12.6463 5.83842 12.6267 5.78V5.71999C12.5946 5.65145 12.5519 5.58844 12.5 5.53333L8.5 1.53333C8.44489 1.48147 8.38188 1.43872 8.31333 1.40666C8.29128 1.4028 8.26872 1.4028 8.24667 1.40666C8.18184 1.372 8.11217 1.34728 8.04 1.33333H4C3.46957 1.33333 2.96086 1.54404 2.58579 1.91911C2.21071 2.29419 2 2.8029 2 3.33333V12.6667C2 13.1971 2.21071 13.7058 2.58579 14.0809C2.96086 14.4559 3.46957 14.6667 4 14.6667H8C8.17681 14.6667 8.34638 14.5964 8.4714 14.4714C8.59643 14.3464 8.66667 14.1768 8.66667 14C8.66667 13.8232 8.59643 13.6536 8.4714 13.5286C8.34638 13.4036 8.17681 13.3333 8 13.3333ZM8.66667 3.60666L10.3933 5.33333H9.33333C9.15652 5.33333 8.98695 5.26309 8.86193 5.13807C8.7369 5.01304 8.66667 4.84347 8.66667 4.66666V3.60666ZM5.33333 5.33333C5.15652 5.33333 4.98695 5.40357 4.86193 5.52859C4.7369 5.65361 4.66667 5.82318 4.66667 6C4.66667 6.17681 4.7369 6.34638 4.86193 6.4714C4.98695 6.59642 5.15652 6.66666 5.33333 6.66666H6C6.17681 6.66666 6.34638 6.59642 6.4714 6.4714C6.59643 6.34638 6.66667 6.17681 6.66667 6C6.66667 5.82318 6.59643 5.65361 6.4714 5.52859C6.34638 5.40357 6.17681 5.33333 6 5.33333H5.33333ZM8 10.6667H5.33333C5.15652 10.6667 4.98695 10.7369 4.86193 10.8619C4.7369 10.9869 4.66667 11.1565 4.66667 11.3333C4.66667 11.5101 4.7369 11.6797 4.86193 11.8047C4.98695 11.9298 5.15652 12 5.33333 12H8C8.17681 12 8.34638 11.9298 8.4714 11.8047C8.59643 11.6797 8.66667 11.5101 8.66667 11.3333C8.66667 11.1565 8.59643 10.9869 8.4714 10.8619C8.34638 10.7369 8.17681 10.6667 8 10.6667Z" fill="#8D8E8D"/>
</svg>
