<svg width="887" height="453" viewBox="0 0 887 453" fill="none" xmlns="http://www.w3.org/2000/svg">
<g opacity="0.1">
<path d="M-20.5186 282.071V368.552C45.646 330.677 85.5284 335.534 159.159 368.382C233.592 404.053 272.994 404.443 338.837 368.213V282.071C271.206 318.41 232.219 318.188 160.856 282.071C85.2548 248.347 45.1471 245.257 -20.5186 282.071Z" fill="#D9EBCD" fill-opacity="0.7"/>
<path d="M338.838 282.071V368.552C405.002 330.677 444.885 335.534 518.516 368.382C592.948 404.053 632.35 404.443 698.194 368.213V282.071C630.562 318.41 591.576 318.188 520.213 282.071C444.611 248.347 404.504 245.257 338.838 282.071Z" fill="#D9EBCD" fill-opacity="0.7"/>
<path d="M154.355 151.126V237.607C88.1909 199.732 48.3085 204.589 -25.3224 237.437C-99.7548 273.108 -139.157 273.498 -205 237.267V151.126C-137.369 187.465 -98.3823 187.243 -27.0195 151.126C48.5821 117.401 88.6898 114.311 154.355 151.126Z" fill="#D9EBCD" fill-opacity="0.7"/>
<path d="M513.712 151.126V237.607C447.547 199.732 407.665 204.589 334.034 237.437C259.602 273.108 220.199 273.498 154.356 237.267V151.126C221.988 187.465 260.974 187.243 332.337 151.126C407.939 117.401 448.046 114.311 513.712 151.126Z" fill="#D9EBCD" fill-opacity="0.7"/>
<path d="M-20.5176 21.7257V108.206C45.647 70.3316 85.5294 75.1882 159.16 108.037C233.593 143.708 272.995 144.098 338.838 107.867V21.7257C271.207 58.0648 232.22 57.8424 160.857 21.7257C85.2557 -11.9991 45.1481 -15.0889 -20.5176 21.7257Z" fill="#D9EBCD" fill-opacity="0.7"/>
<path d="M338.839 21.7257V108.206C405.003 70.3316 444.886 75.1882 518.517 108.037C592.949 143.708 632.351 144.098 698.195 107.867V21.7257C630.563 58.0648 591.577 57.8424 520.214 21.7257C444.612 -11.9991 404.505 -15.0889 338.839 21.7257Z" fill="#D9EBCD" fill-opacity="0.7"/>
</g>
</svg>
