<svg width="41" height="40" viewBox="0 0 41 40" fill="none" xmlns="http://www.w3.org/2000/svg">
<rect x="0.399902" width="40" height="40" rx="20" fill="white"/>
<path d="M24.0666 13.3333V13.8333H24.5666H26.2332C26.7637 13.8333 27.2724 14.044 27.6474 14.4191C28.0225 14.7942 28.2332 15.3029 28.2332 15.8333V25.8333C28.2332 26.3638 28.0225 26.8725 27.6474 27.2475C27.2724 27.6226 26.7637 27.8333 26.2332 27.8333H14.5666C14.0361 27.8333 13.5274 27.6226 13.1523 27.2475C12.7773 26.8725 12.5666 26.3638 12.5666 25.8333V15.8333C12.5666 15.3029 12.7773 14.7942 13.1523 14.4191C13.5274 14.044 14.0361 13.8333 14.5666 13.8333H16.2332H16.7332V13.3333V12.5C16.7332 12.4116 16.7683 12.3268 16.8309 12.2643C16.8934 12.2018 16.9782 12.1667 17.0666 12.1667C17.155 12.1667 17.2397 12.2018 17.3023 12.2643C17.3648 12.3268 17.3999 12.4116 17.3999 12.5V13.3333V13.8333H17.8999H22.8999H23.3999V13.3333V12.5C23.3999 12.4116 23.435 12.3268 23.4975 12.2643C23.56 12.2018 23.6448 12.1667 23.7332 12.1667C23.8216 12.1667 23.9064 12.2018 23.9689 12.2643C24.0314 12.3268 24.0666 12.4116 24.0666 12.5V13.3333ZM13.7332 19.5H13.2332V20V25.8333C13.2332 26.187 13.3737 26.5261 13.6238 26.7761C13.8738 27.0262 14.2129 27.1667 14.5666 27.1667H26.2332C26.5868 27.1667 26.926 27.0262 27.176 26.7761C27.4261 26.5261 27.5666 26.187 27.5666 25.8333V20V19.5H27.0666H13.7332ZM27.0666 18.8333H27.5666V18.3333V15.8333C27.5666 15.4797 27.4261 15.1406 27.176 14.8905C26.926 14.6405 26.5868 14.5 26.2332 14.5H24.5666H24.0666V15V15.8333C24.0666 15.9217 24.0314 16.0065 23.9689 16.069C23.9064 16.1315 23.8216 16.1667 23.7332 16.1667C23.6448 16.1667 23.56 16.1315 23.4975 16.069C23.435 16.0065 23.3999 15.9217 23.3999 15.8333V15V14.5H22.8999H17.8999H17.3999V15V15.8333C17.3999 15.9217 17.3648 16.0065 17.3023 16.069C17.2397 16.1315 17.155 16.1667 17.0666 16.1667C16.9782 16.1667 16.8934 16.1315 16.8309 16.069C16.7683 16.0065 16.7332 15.9217 16.7332 15.8333V15V14.5H16.2332H14.5666C14.2129 14.5 13.8738 14.6405 13.6238 14.8905C13.3737 15.1406 13.2332 15.4797 13.2332 15.8333V18.3333V18.8333H13.7332H27.0666Z" fill="#11453B" stroke="#11453B"/>
</svg>
