<svg width="67" height="49" viewBox="0 0 67 49" fill="none" xmlns="http://www.w3.org/2000/svg">
<path d="M5.28 42.76C8.32 46.6 12.32 48.52 17.44 48.52C21.28 48.52 24.64 47.4 27.36 44.84C30.08 42.28 31.52 39.24 31.52 35.72C31.52 31.88 30.4 28.84 28.32 26.76C26.24 24.68 23.68 23.56 20.64 23.56C18.88 23.56 17.12 24.04 15.52 24.84C15.36 24.52 15.36 23.72 15.36 22.6C15.36 19.56 16.64 17 19.2 14.92C21.76 13 25.6 11.88 30.56 11.72V0.0399952C21.28 0.199993 13.92 2.59999 8.64 7.24C3.2 12.04 0.64 18.76 0.64 27.56C0.64 33.8 2.08 38.92 5.28 42.76ZM40 42.76C43.04 46.6 47.04 48.52 52.16 48.52C56 48.52 59.36 47.4 62.08 44.84C64.8 42.28 66.24 39.24 66.24 35.72C66.24 31.88 65.12 28.84 63.04 26.76C60.96 24.68 58.4 23.56 55.36 23.56C53.6 23.56 51.84 24.04 50.24 24.84C50.08 24.52 50.08 23.72 50.08 22.6C50.08 19.56 51.36 17 53.92 14.92C56.48 13 60.32 11.88 65.28 11.72V0.0399952C56 0.199993 48.64 2.59999 43.36 7.24C37.92 12.04 35.36 18.76 35.36 27.56C35.36 33.8 36.8 38.92 40 42.76Z" fill="#B4A572"/>
</svg>
