<svg width="440" height="100" viewBox="0 0 440 100" fill="none" xmlns="http://www.w3.org/2000/svg">
<path d="M402.432 8.19486C414.354 0.996778 431.527 34.3308 438.624 51.8975V100H1V1C1 1 7.00394 2.375 14.9713 14.6217C29.4934 36.9438 20.2936 8.19486 42.6471 4.33874C65.0006 0.48262 38.3893 51.8975 54.3561 55.7536C70.3229 59.6097 69.2584 57.039 74.5807 73.7489C79.903 90.4587 90.5475 94.6835 103.321 85.6859C116.094 76.6883 109.708 42.8999 138.448 64.7513C167.188 86.6026 177.833 66.0366 195.928 51.8975C214.024 37.7584 211.895 19.7632 252.344 73.7489C292.794 127.735 302.374 73.7489 309.825 59.6098C317.276 45.4707 320.469 41.6145 348.145 42.8999C375.821 44.1853 387.53 17.1925 402.432 8.19486Z" fill="url(#paint0_linear_926_3294)"/>
<path d="M438.624 51.8975C431.527 34.3308 414.354 0.996778 402.432 8.19486C387.53 17.1925 375.821 44.1853 348.145 42.8999C320.469 41.6145 317.276 45.4707 309.825 59.6098C302.374 73.7489 292.794 127.734 252.344 73.7488C211.895 19.7632 214.024 37.7584 195.928 51.8975C177.833 66.0366 167.188 86.6026 138.448 64.7512C109.708 42.8999 116.094 77.605 103.321 86.6026C90.5475 95.6002 79.903 90.4587 74.5807 73.7488C69.2584 57.039 70.3229 59.6097 54.3561 55.7536C38.3893 51.8975 65.0006 0.48262 42.6471 4.33874C20.2936 8.19486 29.4934 36.9437 14.9713 14.6217C7.00395 2.375 1 1 1 1" stroke="#219653" stroke-width="2"/>
<circle cx="220" cy="37" r="5" fill="#219653" stroke="white" stroke-width="2"/>
<defs>
<linearGradient id="paint0_linear_926_3294" x1="220.539" y1="-4.09559" x2="220.539" y2="100" gradientUnits="userSpaceOnUse">
<stop stop-color="#54BA77"/>
<stop offset="0.567708" stop-color="#EAF9EF" stop-opacity="0.15"/>
<stop offset="1" stop-color="white" stop-opacity="0"/>
</linearGradient>
</defs>
</svg>
