<svg width="64" height="83" viewBox="0 0 64 83" fill="none" xmlns="http://www.w3.org/2000/svg">
<g clip-path="url(#clip0_443_3115)">
<path d="M63.9897 16.5343C63.6264 18.8218 63.9696 21.1194 63.927 23.412C63.8794 25.9551 63.8018 28.5058 63.9471 31.0539C64.0022 32.0035 63.8268 32.9681 63.887 33.9202C64.0448 36.4057 63.907 38.8912 63.9195 41.3742C63.9346 44.218 64.1075 47.0743 63.8143 49.9081C63.6871 51.4192 63.3766 52.9093 62.8897 54.3454C62.371 55.7961 61.7722 57.2193 61.271 58.68C60.7699 60.1408 59.9029 61.396 59.0811 62.6739C58.3981 63.7728 57.6448 64.8265 56.826 65.8283C55.2614 67.7462 53.5399 69.5304 51.6793 71.1626C50.4265 72.225 49.1561 73.2848 47.808 74.252C46.5727 75.1389 45.3024 75.9733 44.0495 76.8227C43.0472 77.4942 41.9147 77.9552 40.8773 78.5766C39.3263 79.4936 37.6851 80.2302 36.0915 81.0646C35.117 81.6111 34.0861 82.0504 33.017 82.3749C32.0448 82.638 31.1102 82.4176 30.2407 81.9741C29.2402 81.4274 28.2029 80.951 27.1362 80.5484C25.4674 79.9797 24.0492 78.9825 22.4831 78.2533C21.6914 77.8825 21.0299 77.2286 20.228 76.8277C19.1255 76.274 18.2235 75.3895 17.1686 74.8032C15.9483 74.1317 15.0563 73.0493 13.8511 72.3703C13.8327 72.3602 13.8159 72.3475 13.801 72.3327C12.3677 70.872 10.5636 69.7921 9.3985 68.0533C9.14794 67.6699 8.70443 67.5045 8.41377 67.1563C6.74048 65.185 5.26349 63.0553 4.00378 60.7972C3.00151 58.9556 2.01177 57.084 1.48557 55.0019C1.20744 53.907 0.996968 52.792 0.691276 51.7121C-0.10553 48.8959 0.00221573 46.032 -0.00028995 43.1682C-0.00028995 35.5113 -0.00028995 27.8543 -0.00028995 20.1974C-0.00028995 18.3249 -0.00028995 16.4533 -0.00028995 14.5825C-0.00028995 13.7757 0.27784 13.5276 1.0997 13.6354C2.10844 13.809 3.14061 13.7946 4.1441 13.5928C5.54227 13.252 6.95797 13.2971 8.36867 13.232C8.80466 13.2119 9.09281 12.8837 9.50124 12.8436C10.8981 12.6811 12.2787 12.4003 13.6281 12.0042C14.2044 11.8464 14.8058 11.7286 15.3946 11.6009C16.4645 11.3678 17.3991 10.8266 18.4014 10.4558C19.4813 10.0574 20.5187 9.50372 21.5786 9.0427C22.974 8.40809 24.2985 7.62787 25.5301 6.71505C26.6317 5.96496 27.6595 5.11173 28.5995 4.16691C29.6895 3.02438 30.7694 1.84678 31.6063 0.491278C32.0298 -0.185219 32.2854 -0.152648 32.7188 0.536376C33.6141 1.9462 34.6795 3.24045 35.891 4.3899C37.0311 5.48483 38.3265 6.36176 39.5744 7.29884C40.6643 8.11564 41.9247 8.70445 43.1224 9.37093C44.27 10.0098 45.5153 10.4383 46.7306 10.9244C47.2203 11.1066 47.7228 11.2524 48.234 11.3603C49.7048 11.7061 51.0529 12.4427 52.6239 12.5429C53.3525 12.6076 54.0723 12.7487 54.7713 12.9639C56.0492 13.3347 57.3922 13.1493 58.6777 13.465C60.156 13.8283 61.6845 13.465 63.1703 13.698C63.6715 13.7807 63.897 13.926 63.8719 14.4497C63.8393 15.1237 64.0398 15.8277 63.9897 16.5343ZM6.68485 47.5253C6.60968 48.8808 6.62973 49.7979 6.99306 50.6974C7.21741 51.2192 7.38541 51.7635 7.49419 52.321C7.78986 54.1074 8.54908 55.7135 9.37595 57.2744C10.6471 59.6282 12.2439 61.7909 14.1192 63.6986C16.036 65.678 18.0255 67.5747 20.3132 69.1482C21.7239 70.1178 23.1071 71.1226 24.5729 71.997C26.9207 73.3901 29.4189 74.4825 31.8719 75.6651C31.979 75.7126 32.0958 75.7344 32.2128 75.7287C32.3298 75.723 32.4439 75.6901 32.5459 75.6325C33.8639 75.0588 35.1118 74.3372 36.3897 73.6882C38.1436 72.8013 39.8274 71.7991 41.5012 70.7668C42.8769 69.9199 44.1197 68.9052 45.4577 68.0107C46.1718 67.5371 46.7406 66.8982 47.3946 66.3595C48.5923 65.3573 49.6221 64.2123 50.6946 63.1023C52.5237 61.2056 53.8242 58.9506 55.0945 56.6706C55.4979 55.9465 55.6308 55.1146 56.0292 54.3981C56.9763 52.7043 57.2569 50.7951 57.5075 48.951C57.7367 47.2439 57.7947 45.5182 57.6804 43.7996C57.5853 42.6323 57.5853 41.4592 57.6804 40.2918C57.7468 39.5285 57.725 38.7601 57.6152 38.0018C57.5116 37.2629 57.5116 36.5132 57.6152 35.7743C57.7317 34.9734 57.7452 34.1608 57.6553 33.3565C57.5817 32.5947 57.5557 31.829 57.5777 31.0639C57.5777 30.6204 57.708 30.1719 57.6829 29.7335C57.5676 27.729 57.6253 25.7046 57.6829 23.6876C57.708 22.6528 57.4699 21.608 57.6152 20.5732C57.7004 19.9619 57.4699 19.7288 56.9287 19.7063C55.6082 19.6487 54.3228 19.3555 53.0324 19.1125C52.654 19.0423 52.2807 19.2027 51.8998 19.0348C51.098 18.6815 50.2085 18.6465 49.3666 18.3683C48.1739 17.975 46.936 17.6467 45.7208 17.2884C45.2197 17.1406 44.6584 17.1531 44.2174 16.8876C43.4356 16.4702 42.6289 16.1012 41.8019 15.7826C39.9654 14.9683 38.1916 14.0194 36.4949 12.9438C35.0992 12.0744 33.5883 11.2576 32.5184 9.91463C32.2854 9.62398 32.0824 9.66407 31.7817 9.91463C30.8107 10.7723 29.7854 11.5665 28.7123 12.2924C27.041 13.3497 25.4248 14.5198 23.5531 15.2214C23.2273 15.3416 23.0519 15.6398 22.6961 15.75C21.6939 16.0682 20.6565 16.3464 19.7369 16.8374C18.464 17.5164 17.0659 17.7946 15.7278 18.2155C14.7957 18.5086 13.7559 18.6264 12.7686 18.8268C10.9846 19.1876 9.23062 19.6963 7.38394 19.5785C7.34143 19.5747 7.29866 19.5747 7.25615 19.5785C6.61971 19.6562 6.44682 19.9117 6.59465 20.5306C6.62983 20.6952 6.64415 20.8636 6.63725 21.0317C6.64202 21.7498 6.58163 22.4668 6.45684 23.174C6.30068 23.9677 6.33157 24.787 6.54705 25.5668C6.74464 26.3538 6.73774 27.1784 6.527 27.9621C6.31939 28.8089 6.31939 29.6934 6.527 30.5403C6.71573 31.3648 6.71573 32.2213 6.527 33.0458C6.32296 33.9134 6.32296 34.8165 6.527 35.6841C6.71568 36.4718 6.71997 37.2924 6.53953 38.082C6.32374 38.988 6.32374 39.932 6.53953 40.838C6.7901 41.8929 6.55707 42.9327 6.3967 43.9825C6.20627 45.3405 6.84271 46.6208 6.68485 47.5253Z" fill="#E4572E"/>
<path d="M44.4381 55.4627C44.4381 57.9081 44.4381 60.3535 44.4381 62.7989C44.4484 63.2678 44.3528 63.733 44.1584 64.1598C43.9641 64.5867 43.676 64.9642 43.3156 65.2644C42.3081 66.1094 41.1976 66.8234 40.0106 67.3891C39.211 67.8003 38.3818 68.1512 37.53 68.4389C37.254 68.5421 36.9645 68.6046 36.6705 68.6243C36.5002 68.603 36.3273 68.6272 36.1694 68.6944C35.0869 69.4762 33.8165 69.0227 32.6464 69.2331C30.92 69.5438 29.2161 69.0803 27.5824 68.6293C26.0348 68.1943 24.5469 67.5699 23.1524 66.7702C22.1376 66.1914 21.0526 65.5625 20.4162 64.4626C20.2784 64.2763 20.211 64.0473 20.2257 63.8162C20.3258 62.8655 20.3199 61.9067 20.2082 60.9573C20.123 60.0929 20.2558 59.2034 20.2558 58.3516C20.2558 56.0189 20.2759 53.6837 20.2558 51.3511C20.2558 50.1634 20.1882 48.9808 20.2934 47.7932C20.3335 47.3422 20.5314 47.1267 20.9599 47.1167C22.1451 47.0866 23.3278 46.9714 24.5205 47.1167C25.3249 47.203 26.1369 47.1912 26.9385 47.0816C27.7003 46.9956 28.4693 46.9956 29.2311 47.0816C30.1823 47.1821 31.1415 47.1821 32.0926 47.0816C33.1325 46.9689 34.1749 47.1593 35.2097 47.1393C37.2694 47.0992 39.3265 47.0591 41.3862 47.1393C42.1053 47.1693 42.827 47.0541 43.5486 47.0466C44.3153 47.0466 44.4381 47.1768 44.4406 47.9385C44.4406 50.4491 44.4398 52.9571 44.4381 55.4627ZM31.6266 61.8418C32.1379 61.7534 32.6562 61.7123 33.1751 61.719C33.6061 61.7366 33.8065 61.4484 33.6762 61.1077C33.3705 60.2708 33.4257 59.3538 32.9847 58.547C32.8077 58.2668 32.7436 57.9299 32.8055 57.6044C32.8673 57.2788 33.0505 56.9888 33.3179 56.7931C33.5511 56.6088 33.7652 56.4015 33.9569 56.1742C34.5582 55.4075 34.5056 54.2951 33.8742 53.6862C32.694 52.5462 31.2883 52.7993 30.3813 54.1372C29.8626 54.9039 30.3311 56.1417 30.8824 56.5977C31.4336 57.0537 31.8721 57.4195 31.4537 58.1762C31.3999 58.3158 31.386 58.4676 31.4136 58.6146C31.5013 59.4891 31.0453 60.2558 30.9125 61.0926C30.8223 61.8518 30.717 61.8593 31.6266 61.8418Z" fill="#E4572E"/>
<path d="M25.4476 46.523C24.9164 46.523 24.3827 46.5355 23.854 46.523C23.448 46.5104 23.2476 46.3275 23.3002 45.8665C23.3829 44.9358 23.3736 43.9992 23.2726 43.0703C23.1353 41.3989 23.1934 39.7172 23.4455 38.0592C23.7228 36.1221 24.7393 34.3675 26.282 33.1634C26.9485 32.6397 27.5774 32.0885 28.3617 31.7277C29.0658 31.444 29.7983 31.2366 30.5466 31.1089C31.1605 30.9711 31.8145 31.0237 32.4484 30.9585C34.007 30.7982 35.335 31.4596 36.6805 32.091C38.0261 32.7224 38.9131 33.905 39.8201 35.0075C40.2837 35.5712 40.5317 36.3555 40.7397 37.0796C41.0755 38.2446 41.6743 39.4047 41.2834 40.665C41.049 41.4406 41.0154 42.2631 41.1857 43.0553C41.3157 43.7398 41.3762 44.4357 41.3661 45.1324C41.3661 46.1747 41.0229 46.518 39.998 46.528C39.2313 46.528 38.4671 46.528 37.7003 46.5405C37.616 46.5539 37.5299 46.5497 37.4473 46.5281C37.3648 46.5064 37.2876 46.4679 37.2207 46.4149C37.1538 46.3619 37.0986 46.2956 37.0587 46.2202C37.0188 46.1448 36.9949 46.0619 36.9887 45.9768C36.8334 45.0372 36.678 44.1277 36.9436 43.148C37.1605 42.3638 37.1405 41.533 36.886 40.7602C36.7006 40.2165 36.7782 39.6628 36.7782 39.1166C36.7782 38.0066 36.237 37.1848 35.4728 36.4657C34.9331 35.9177 34.258 35.5223 33.5159 35.3199C32.7739 35.1174 31.9914 35.1151 31.2482 35.3132C30.6596 35.4444 30.1029 35.6908 29.61 36.0383C29.1172 36.3858 28.698 36.8274 28.3767 37.3376C27.7707 38.2641 27.4823 39.3624 27.5548 40.4671C27.6275 42.2209 27.5548 43.9974 27.5824 45.7613C27.5824 46.3501 27.3594 46.5731 26.7881 46.538C26.3421 46.5104 25.8961 46.538 25.4476 46.538V46.523Z" fill="#E4572E"/>
<path d="M43.1602 26.5512C43.1602 27.3405 42.9096 27.5234 42.2581 27.4733C41.3686 27.4031 40.7222 27.1375 40.6044 26.1052C40.5443 25.5891 40.1408 25.4062 39.6021 25.5114C39.1812 25.5941 38.7502 25.7946 38.3042 25.5415C38.0536 25.4037 38.0261 25.6442 37.9835 25.7921C37.9496 26.0006 37.9044 26.2072 37.8481 26.4109C37.7632 26.6192 37.6361 26.8077 37.4748 26.9646C37.3136 27.1214 37.1216 27.2432 36.911 27.3222C36.7003 27.4013 36.4757 27.4359 36.251 27.424C36.0264 27.412 35.8066 27.3538 35.6056 27.2528C35.5404 27.2297 35.4806 27.1934 35.4301 27.1462C35.3796 27.0989 35.3395 27.0417 35.3122 26.9782C35.2849 26.9146 35.271 26.8461 35.2715 26.7769C35.272 26.7078 35.2867 26.6395 35.3149 26.5763C35.6457 25.4638 35.8411 24.2862 36.3422 23.2564C36.9436 22.0212 37.1666 20.6657 37.783 19.448C37.84 19.3111 37.9293 19.1899 38.0431 19.0948C38.157 18.9998 38.2921 18.9335 38.437 18.9018C38.9798 18.791 39.5377 18.7757 40.0857 18.8567C40.7347 18.9494 40.7923 19.6084 40.875 20.0443C41.108 21.242 41.6843 22.2993 42.0527 23.4419C42.3509 24.3689 42.6039 25.311 43.1076 26.1604C43.1546 26.285 43.1725 26.4186 43.1602 26.5512V26.5512Z" fill="#E4572E"/>
<path d="M28.0158 25.4488H28.1436C29.3614 25.4488 29.647 25.8396 29.3539 27.0398C29.2511 27.4457 28.9504 27.4757 28.6222 27.5008C27.4721 27.5885 26.3395 27.3029 25.1894 27.373C24.9138 27.3719 24.6385 27.3887 24.3651 27.4231C23.9291 27.5083 23.4881 27.4883 23.3377 27.0373C23.1749 26.5362 23.0872 25.9925 23.5206 25.5339C24.4753 24.5718 25.435 23.6147 26.3846 22.6476C26.5926 22.4371 26.8156 22.2191 26.8031 21.8959C26.7905 21.5727 26.9484 21.1593 26.5851 20.9638C26.4122 20.8793 26.2209 20.8396 26.0287 20.8483C25.8365 20.8571 25.6495 20.9141 25.4851 21.0139C25.4099 21.054 25.3473 21.1142 25.2771 21.1593C24.4903 21.6604 23.9115 21.5075 23.5231 20.6582C23.4527 20.5138 23.4359 20.349 23.4759 20.1934C23.5158 20.0377 23.6099 19.9014 23.7411 19.8088C24.7434 18.9143 25.886 18.556 27.204 18.9469C27.6571 19.0701 28.0737 19.301 28.4184 19.6199C28.763 19.9388 29.0255 20.3362 29.1835 20.7784C29.4766 21.5877 29.1559 22.3519 28.5997 23.0058C28.0985 23.5846 27.6976 24.2386 27.0536 24.6846C26.8732 24.8098 26.6552 25.0203 26.753 25.2659C26.8507 25.5114 27.1188 25.4337 27.3243 25.4412C27.5297 25.4488 27.7853 25.4488 28.0158 25.4488Z" fill="#E4572E"/>
<path d="M32.3154 25.8471C32.3154 25.954 32.3154 26.0601 32.3154 26.1653C32.3154 27.353 31.9821 27.611 30.812 27.353C30.3109 27.2452 30.2933 26.8519 30.2708 26.466C30.1906 25.1105 30.0753 23.7625 30.2457 22.397C30.3254 21.656 30.3052 20.9077 30.1856 20.1721C30.0352 19.1348 30.4036 18.7339 31.4384 18.8366C32.492 18.9671 33.557 18.978 34.6131 18.8692C35.1268 18.8041 35.247 19.2074 35.3297 19.5933C35.46 20.2072 35.237 20.6832 34.7484 20.8461C34.1528 21.0187 33.526 21.0555 32.9143 20.9538C32.368 20.8887 32.3029 21.1718 32.3154 21.5877C32.3279 22.0036 32.3354 22.377 32.9343 22.2893C33.2514 22.2557 33.5707 22.2489 33.889 22.2692C34.0992 22.2792 34.3033 22.3427 34.4821 22.4536C34.6609 22.5646 34.8083 22.7195 34.9105 22.9034C35.0126 23.0874 35.0661 23.2944 35.0658 23.5048C35.0655 23.7152 35.0114 23.9221 34.9088 24.1058C34.8594 24.2007 34.7801 24.2768 34.6832 24.3221C34.5862 24.3674 34.4771 24.3794 34.3726 24.3563C33.9491 24.3263 33.5231 24.3438 33.0997 24.3137C32.5334 24.2736 32.2578 24.4992 32.3054 25.0854C32.3254 25.336 32.3054 25.5866 32.3054 25.8496L32.3154 25.8471Z" fill="#E4572E"/>
</g>
<defs>
<clipPath id="clip0_443_3115">
<rect width="64" height="82.48" fill="white"/>
</clipPath>
</defs>
</svg>
