<svg width="64" height="83" viewBox="0 0 64 83" fill="none" xmlns="http://www.w3.org/2000/svg">
<g clip-path="url(#clip0_443_3007)">
<path d="M63.9897 16.5352C63.6264 18.8228 63.9696 21.1205 63.927 23.4132C63.8794 25.9565 63.8018 28.5073 63.9471 31.0555C64.0022 32.0052 63.8268 32.9699 63.8869 33.922C64.0448 36.4077 63.907 38.8933 63.9195 41.3764C63.9346 44.2204 64.1075 47.0768 63.8143 49.9108C63.687 51.422 63.3766 52.9121 62.8897 54.3483C62.371 55.7991 61.7722 57.2223 61.271 58.6831C60.7699 60.144 59.9029 61.3993 59.0811 62.6772C58.3981 63.7762 57.6448 64.8299 56.826 65.8318C55.2614 67.7498 53.5399 69.5341 51.6793 71.1664C50.4265 72.2288 49.1561 73.2887 47.808 74.2559C46.5727 75.1429 45.3023 75.9773 44.0495 76.8268C43.0472 77.4983 41.9147 77.9593 40.8773 78.5807C39.3263 79.4978 37.6851 80.2345 36.0915 81.0689C35.117 81.6154 34.0861 82.0548 33.017 82.3793C32.0448 82.6424 31.1102 82.4219 30.2407 81.9784C29.2402 81.4317 28.2029 80.9553 27.1362 80.5527C25.4674 79.9839 24.0492 78.9867 22.4831 78.2575C21.6914 77.8867 21.0299 77.2327 20.228 76.8318C19.1255 76.278 18.2235 75.3935 17.1686 74.8072C15.9483 74.1357 15.0563 73.0532 13.8511 72.3742C13.8327 72.364 13.8159 72.3514 13.801 72.3366C12.3677 70.8758 10.5636 69.7958 9.3985 68.0569C9.14793 67.6735 8.70443 67.5081 8.41377 67.1598C6.74048 65.1885 5.26349 63.0586 4.00378 60.8004C3.00151 58.9588 2.01177 57.087 1.48557 55.0048C1.20744 53.9098 0.996968 52.7948 0.691275 51.7149C-0.10553 48.8985 0.00221573 46.0345 -0.000289951 43.1705C-0.000289951 35.5131 -0.000289951 27.8558 -0.000289951 20.1985C-0.000289951 18.3259 -0.000289951 16.4541 -0.000289951 14.5832C-0.000289951 13.7764 0.27784 13.5283 1.0997 13.6361C2.10844 13.8098 3.14061 13.7953 4.1441 13.5935C5.54227 13.2527 6.95797 13.2978 8.36867 13.2327C8.80466 13.2126 9.09281 12.8844 9.50124 12.8443C10.8981 12.6818 12.2787 12.401 13.6281 12.0049C14.2044 11.847 14.8058 11.7293 15.3946 11.6015C16.4645 11.3684 17.3991 10.8272 18.4014 10.4564C19.4813 10.058 20.5187 9.50423 21.5786 9.04318C22.974 8.40853 24.2985 7.62828 25.5301 6.71541C26.6317 5.96527 27.6595 5.112 28.5995 4.16713C29.6895 3.02454 30.7694 1.84688 31.6063 0.491304C32.0298 -0.185228 32.2854 -0.152656 32.7188 0.536405C33.6141 1.94631 34.6795 3.24062 35.891 4.39014C37.0311 5.48512 38.3265 6.3621 39.5744 7.29922C40.6643 8.11608 41.9247 8.70491 43.1224 9.37142C44.27 10.0104 45.5153 10.4388 46.7306 10.9249C47.2202 11.1072 47.7228 11.253 48.234 11.3609C49.7048 11.7067 51.0529 12.4434 52.6239 12.5436C53.3525 12.6083 54.0723 12.7493 54.7713 12.9646C56.0492 13.3354 57.3922 13.15 58.6777 13.4657C60.156 13.829 61.6845 13.4657 63.1703 13.6987C63.6715 13.7814 63.897 13.9267 63.8719 14.4504C63.8393 15.1245 64.0398 15.8286 63.9897 16.5352ZM6.68485 47.5279C6.60968 48.8834 6.62973 49.8005 6.99305 50.7001C7.21741 51.2219 7.38541 51.7662 7.49419 52.3237C7.78986 54.1103 8.54908 55.7164 9.37595 57.2775C10.6471 59.6313 12.2439 61.7942 14.1192 63.702C16.036 65.6815 18.0255 67.5783 20.3132 69.1519C21.7239 70.1216 23.1071 71.1263 24.5729 72.0008C26.9207 73.394 29.4189 74.4865 31.8719 75.6691C31.979 75.7166 32.0958 75.7384 32.2128 75.7327C32.3298 75.7271 32.4439 75.6941 32.5459 75.6366C33.8639 75.0628 35.1118 74.3411 36.3897 73.6922C38.1436 72.8051 39.8274 71.8029 41.5012 70.7705C42.8768 69.9236 44.1197 68.9088 45.4577 68.0143C46.1718 67.5407 46.7406 66.9018 47.3946 66.363C48.5923 65.3608 49.6221 64.2157 50.6946 63.1057C52.5237 61.2089 53.8242 58.9538 55.0945 56.6736C55.4979 55.9495 55.6307 55.1176 56.0291 54.4009C56.9763 52.7071 57.2569 50.7978 57.5075 48.9536C57.7367 47.2464 57.7946 45.5206 57.6804 43.8019C57.5853 42.6345 57.5853 41.4614 57.6804 40.294C57.7468 39.5306 57.725 38.7621 57.6152 38.0038C57.5116 37.2649 57.5116 36.5151 57.6152 35.7762C57.7317 34.9753 57.7452 34.1627 57.6553 33.3583C57.5817 32.5964 57.5557 31.8307 57.5777 31.0656C57.5777 30.6221 57.708 30.1736 57.6829 29.7351C57.5676 27.7305 57.6253 25.7059 57.6829 23.6889C57.708 22.654 57.4699 21.6091 57.6152 20.5743C57.7004 19.9629 57.4699 19.7299 56.9287 19.7073C55.6082 19.6497 54.3228 19.3565 53.0324 19.1135C52.654 19.0433 52.2807 19.2037 51.8998 19.0358C51.098 18.6825 50.2085 18.6474 49.3666 18.3693C48.1739 17.9759 46.936 17.6477 45.7208 17.2894C45.2197 17.1415 44.6584 17.1541 44.2174 16.8885C43.4356 16.4711 42.6289 16.1021 41.8019 15.7835C39.9654 14.9691 38.1916 14.0202 36.4949 12.9445C35.0992 12.075 33.5883 11.2582 32.5184 9.91515C32.2854 9.62449 32.0824 9.66458 31.7817 9.91515C30.8107 10.7729 29.7854 11.5671 28.7123 12.293C27.041 13.3504 25.4248 14.5206 23.5531 15.2222C23.2273 15.3425 23.0519 15.6406 22.6961 15.7509C21.6939 16.0691 20.6565 16.3472 19.7369 16.8383C18.464 17.5174 17.0659 17.7955 15.7278 18.2165C14.7957 18.5096 13.7559 18.6274 12.7686 18.8278C10.9846 19.1887 9.23062 19.6973 7.38394 19.5796C7.34143 19.5757 7.29866 19.5757 7.25615 19.5796C6.61971 19.6572 6.44681 19.9128 6.59465 20.5317C6.62983 20.6963 6.64415 20.8647 6.63725 21.0328C6.64202 21.7509 6.58163 22.468 6.45684 23.1752C6.30068 23.969 6.33157 24.7883 6.54704 25.5681C6.74464 26.3552 6.73774 27.1798 6.527 27.9635C6.31939 28.8105 6.31939 29.695 6.527 30.5419C6.71573 31.3665 6.71573 32.223 6.527 33.0476C6.32296 33.9152 6.32296 34.8184 6.527 35.686C6.71568 36.4737 6.71997 37.2944 6.53953 38.084C6.32374 38.9901 6.32374 39.9341 6.53953 40.8402C6.7901 41.8951 6.55707 42.935 6.3967 43.9848C6.20627 45.3429 6.84271 46.6233 6.68485 47.5279Z" fill="#8B8B8B"/>
<path d="M44.4381 55.4657C44.4381 57.9112 44.4381 60.3568 44.4381 62.8023C44.4484 63.2712 44.3528 63.7364 44.1584 64.1633C43.9641 64.5902 43.676 64.9677 43.3156 65.2679C42.3081 66.113 41.1976 66.827 40.0106 67.3927C39.211 67.804 38.3818 68.1549 37.53 68.4426C37.254 68.5458 36.9645 68.6083 36.6705 68.628C36.5002 68.6068 36.3273 68.631 36.1694 68.6982C35.0869 69.4799 33.8165 69.0264 32.6464 69.2369C30.92 69.5476 29.2161 69.084 27.5824 68.633C26.0348 68.198 24.5469 67.5735 23.1524 66.7738C22.1376 66.195 21.0526 65.5661 20.4162 64.4661C20.2784 64.2798 20.211 64.0508 20.2257 63.8196C20.3258 62.8689 20.3199 61.91 20.2082 60.9606C20.123 60.0962 20.2558 59.2067 20.2558 58.3547C20.2558 56.0219 20.2759 53.6867 20.2558 51.3539C20.2558 50.1662 20.1882 48.9835 20.2934 47.7958C20.3335 47.3448 20.5314 47.1293 20.9599 47.1193C22.1451 47.0892 23.3278 46.9739 24.5205 47.1193C25.3249 47.2056 26.1369 47.1938 26.9385 47.0842C27.7003 46.9981 28.4693 46.9981 29.2311 47.0842C30.1823 47.1847 31.1415 47.1847 32.0926 47.0842C33.1325 46.9714 34.1749 47.1619 35.2097 47.1418C37.2694 47.1017 39.3265 47.0616 41.3862 47.1418C42.1053 47.1719 42.827 47.0566 43.5486 47.0491C44.3153 47.0491 44.4381 47.1794 44.4406 47.9411C44.4406 50.4518 44.4398 52.96 44.4381 55.4657ZM31.6266 61.8451C32.1379 61.7567 32.6562 61.7156 33.1751 61.7224C33.6061 61.7399 33.8065 61.4517 33.6762 61.111C33.3705 60.2741 33.4257 59.357 32.9847 58.5502C32.8077 58.27 32.7436 57.9331 32.8055 57.6075C32.8673 57.2819 33.0505 56.9919 33.3179 56.7962C33.5511 56.6119 33.7652 56.4045 33.9569 56.1773C34.5582 55.4106 34.5056 54.298 33.8742 53.6892C32.694 52.5491 31.2883 52.8021 30.3813 54.1402C29.8626 54.9069 30.3311 56.1447 30.8824 56.6008C31.4336 57.0568 31.8721 57.4226 31.4537 58.1793C31.3999 58.3189 31.386 58.4708 31.4136 58.6178C31.5013 59.4923 31.0453 60.259 30.9125 61.0959C30.8223 61.8552 30.717 61.8627 31.6266 61.8451Z" fill="#8B8B8B"/>
<path d="M25.4476 46.5254C24.9164 46.5254 24.3827 46.5379 23.854 46.5254C23.448 46.5129 23.2476 46.3299 23.3002 45.8689C23.3829 44.9381 23.3736 44.0015 23.2726 43.0726C23.1353 41.4011 23.1934 39.7193 23.4455 38.0612C23.7228 36.124 24.7393 34.3693 26.282 33.1651C26.9485 32.6414 27.5774 32.0902 28.3617 31.7294C29.0658 31.4457 29.7983 31.2382 30.5466 31.1105C31.1605 30.9726 31.8145 31.0253 32.4484 30.9601C34.007 30.7998 35.335 31.4612 36.6805 32.0927C38.0261 32.7241 38.9131 33.9068 39.8201 35.0093C40.2837 35.5731 40.5317 36.3573 40.7397 37.0815C41.0755 38.2466 41.6743 39.4068 41.2834 40.6671C41.049 41.4428 41.0154 42.2653 41.1857 43.0575C41.3157 43.7421 41.3762 44.438 41.3661 45.1347C41.3661 46.1771 41.0229 46.5204 39.998 46.5304C39.2313 46.5304 38.4671 46.5304 37.7003 46.5429C37.616 46.5563 37.5299 46.5521 37.4473 46.5305C37.3648 46.5089 37.2876 46.4703 37.2207 46.4173C37.1538 46.3643 37.0986 46.298 37.0587 46.2226C37.0188 46.1472 36.9949 46.0643 36.9887 45.9791C36.8334 45.0395 36.678 44.13 36.9436 43.1502C37.1605 42.366 37.1405 41.5352 36.886 40.7623C36.7006 40.2186 36.7782 39.6648 36.7782 39.1186C36.7782 38.0086 36.237 37.1867 35.4728 36.4676C34.9331 35.9195 34.2579 35.5241 33.5159 35.3217C32.7739 35.1192 31.9914 35.1169 31.2482 35.315C30.6596 35.4462 30.1029 35.6927 29.61 36.0401C29.1172 36.3876 28.698 36.8293 28.3767 37.3396C27.7707 38.2661 27.4823 39.3645 27.5548 40.4692C27.6275 42.2231 27.5548 43.9997 27.5824 45.7637C27.5824 46.3525 27.3594 46.5755 26.7881 46.5404C26.3421 46.5129 25.8961 46.5404 25.4476 46.5404V46.5254Z" fill="#8B8B8B"/>
<path d="M43.1602 26.5526C43.1602 27.3419 42.9096 27.5248 42.2581 27.4747C41.3686 27.4046 40.7222 27.139 40.6044 26.1066C40.5443 25.5904 40.1408 25.4075 39.6021 25.5128C39.1812 25.5955 38.7502 25.7959 38.3042 25.5428C38.0536 25.405 38.0261 25.6456 37.9835 25.7934C37.9496 26.002 37.9044 26.2086 37.8481 26.4123C37.7632 26.6206 37.6361 26.8091 37.4748 26.966C37.3136 27.1228 37.1216 27.2446 36.911 27.3237C36.7003 27.4027 36.4757 27.4374 36.251 27.4254C36.0264 27.4135 35.8066 27.3552 35.6056 27.2542C35.5404 27.2312 35.4806 27.1949 35.4301 27.1476C35.3796 27.1003 35.3395 27.0431 35.3122 26.9796C35.2849 26.916 35.271 26.8475 35.2715 26.7783C35.272 26.7092 35.2867 26.6409 35.3149 26.5777C35.6457 25.4652 35.8411 24.2875 36.3422 23.2577C36.9436 22.0224 37.1666 20.6668 37.783 19.449C37.84 19.3121 37.9293 19.1909 38.0431 19.0958C38.157 19.0007 38.2921 18.9345 38.437 18.9028C38.9798 18.7919 39.5377 18.7767 40.0857 18.8577C40.7347 18.9504 40.7923 19.6094 40.875 20.0454C41.108 21.2431 41.6843 22.3005 42.0527 23.4431C42.3509 24.3702 42.6039 25.3123 43.1076 26.1617C43.1546 26.2863 43.1725 26.42 43.1602 26.5526V26.5526Z" fill="#8B8B8B"/>
<path d="M28.0158 25.4502H28.1436C29.3614 25.4502 29.647 25.8411 29.3539 27.0413C29.2511 27.4472 28.9504 27.4773 28.6222 27.5024C27.4721 27.5901 26.3395 27.3044 25.1894 27.3746C24.9138 27.3735 24.6385 27.3902 24.3651 27.4247C23.9291 27.5099 23.4881 27.4898 23.3377 27.0388C23.1749 26.5377 23.0872 25.9939 23.5206 25.5354C24.4753 24.5732 25.435 23.6161 26.3846 22.6489C26.5926 22.4384 26.8156 22.2204 26.8031 21.8972C26.7905 21.5739 26.9484 21.1605 26.5851 20.965C26.4122 20.8805 26.2209 20.8408 26.0287 20.8496C25.8365 20.8583 25.6495 20.9153 25.4851 21.0152C25.4099 21.0553 25.3473 21.1154 25.2771 21.1605C24.4903 21.6616 23.9115 21.5088 23.5231 20.6594C23.4527 20.5149 23.4359 20.3502 23.4759 20.1945C23.5158 20.0389 23.6099 19.9026 23.7411 19.8099C24.7434 18.9154 25.886 18.5571 27.204 18.948C27.6571 19.0712 28.0737 19.3021 28.4184 19.621C28.763 19.9399 29.0255 20.3374 29.1835 20.7796C29.4766 21.589 29.1559 22.3532 28.5997 23.0072C28.0985 23.586 27.6976 24.24 27.0536 24.686C26.8732 24.8113 26.6552 25.0217 26.753 25.2673C26.8507 25.5129 27.1188 25.4352 27.3243 25.4427C27.5297 25.4502 27.7853 25.4502 28.0158 25.4502Z" fill="#8B8B8B"/>
<path d="M32.3154 25.8486C32.3154 25.9555 32.3154 26.0616 32.3154 26.1668C32.3154 27.3545 31.9821 27.6126 30.812 27.3545C30.3109 27.2468 30.2933 26.8534 30.2708 26.4675C30.1906 25.1119 30.0753 23.7639 30.2457 22.3983C30.3254 21.6573 30.3052 20.9089 30.1856 20.1732C30.0352 19.1359 30.4036 18.735 31.4384 18.8377C32.492 18.9682 33.557 18.9791 34.6131 18.8703C35.1268 18.8051 35.247 19.2086 35.3297 19.5944C35.46 20.2083 35.237 20.6844 34.7484 20.8473C34.1528 21.0199 33.526 21.0567 32.9143 20.955C32.368 20.8899 32.3029 21.173 32.3154 21.589C32.3279 22.0049 32.3354 22.3782 32.9343 22.2905C33.2514 22.2569 33.5707 22.2502 33.889 22.2705C34.0992 22.2805 34.3033 22.3439 34.4821 22.4549C34.6609 22.5659 34.8083 22.7208 34.9105 22.9048C35.0126 23.0887 35.0661 23.2957 35.0658 23.5062C35.0655 23.7166 35.0114 23.9235 34.9088 24.1072C34.8594 24.2021 34.7801 24.2782 34.6832 24.3235C34.5862 24.3688 34.4771 24.3808 34.3726 24.3577C33.9491 24.3277 33.5231 24.3452 33.0997 24.3151C32.5334 24.275 32.2578 24.5006 32.3054 25.0869C32.3254 25.3374 32.3054 25.588 32.3054 25.8511L32.3154 25.8486Z" fill="#8B8B8B"/>
</g>
<defs>
<clipPath id="clip0_443_3007">
<rect width="64" height="82.4844" fill="white"/>
</clipPath>
</defs>
</svg>
